<?xml version="1.0" standalone="no"?>
<!DOCTYPE svg PUBLIC "-//W3C//DTD SVG 1.1//EN" "http://www.w3.org/Graphics/SVG/1.1/DTD/svg11.dtd" >
<svg>
<metadata>
Created by FontForge 20090914 at Tue Jun 28 21:19:08 2016
 By www-data
Font data copyright Google 2011
</metadata>
<defs>
<font id="Roboto-Bold" horiz-adv-x="1156" >
  <font-face 
    font-family="Roboto"
    font-weight="700"
    font-stretch="normal"
    units-per-em="2048"
    panose-1="0 0 0 0 0 0 0 0 0 0"
    ascent="1536"
    descent="-512"
    x-height="1082"
    cap-height="1456"
    bbox="-1035 -554.996 2450 2172"
    underline-thickness="100"
    underline-position="-100"
    unicode-range="U+0009-U+FFFD"
  />
<missing-glyph horiz-adv-x="1024" 
d="M102 0v1024h820v-1024h-820zM204 102h616v820h-616v-820z" />
    <glyph glyph-name="fi" unicode="fi" horiz-adv-x="1249" 
d="M181 0v876.999h-161v205h161v74c0 136 41.5 240.833 124.5 314.5s199.833 110.5 350.5 110.5c52 0 103.333 -5.16699 154 -15.5s109.334 -25.166 176.001 -44.499l-42 -230c-48.667 14.667 -92.834 26 -132.501 34s-85.167 12 -136.5 12
c-67.333 0 -117.833 -15.333 -151.5 -46s-50.5 -75.667 -50.5 -135v-74h213v-205h-213v-877h-292zM1121 -0.000976562h-292v1082h292v-1082z" />
    <glyph glyph-name=".notdef" horiz-adv-x="1024" 
d="M102 0v1024h820v-1024h-820zM204 102h616v820h-616v-820z" />
    <glyph glyph-name="uni0002" horiz-adv-x="0" 
 />
    <glyph glyph-name="uni0002" horiz-adv-x="0" 
 />
    <glyph glyph-name="uni0009" unicode="&#x9;" horiz-adv-x="0" 
 />
    <glyph glyph-name="nonmarkingreturn" unicode="&#xd;" horiz-adv-x="510" 
 />
    <glyph glyph-name="space" unicode=" " horiz-adv-x="510" 
 />
    <glyph glyph-name="exclam" unicode="!" horiz-adv-x="557" 
d="M426 502h-292v954h292v-954zM426 0h-292v256h292v-256z" />
    <glyph glyph-name="quotedbl" unicode="&#x22;" horiz-adv-x="832" 
d="M372 1181l-102 -249h-129v524h231v-275zM713 1181l-102 -249h-128v524h230v-275z" />
    <glyph glyph-name="numbersign" unicode="#" horiz-adv-x="1219" 
d="M650 410h-192l-71 -410h-184l72 410h-227v169h256l51 290h-232v171h262l73 416h183l-73 -416h192l74 416h183l-73 -416h220v-171h-250l-51 -290h225v-169h-254l-72 -410h-184zM488 579h191l51 290h-192z" />
    <glyph glyph-name="dollar" unicode="$" horiz-adv-x="1216" 
d="M816 383c0 54.667 -15.6699 98.4971 -47.0029 131.497s-87 64.833 -167 95.5c-150.667 50.667 -262.334 109.667 -335.001 177s-109 162 -109 284c0 112.667 36.333 204.834 109 276.501s171.334 113.834 296.001 126.501v214h159v-217c120 -16.667 214 -63.5 282 -140.5
s101 -177.167 99 -300.5l-2 -5h-285c0 72.667 -16.5 128.5 -49.5 167.5s-79.167 58.5 -138.5 58.5c-62.667 0 -108 -16.333 -136 -49s-42 -76.667 -42 -132c0 -51.333 14.833 -92.333 44.5 -123s86.5 -63.667 170.5 -99c148 -48 258.667 -106.833 332 -176.5
s110 -165.167 110 -286.5c0 -116 -36.167 -208.833 -108.5 -278.5s-171.166 -110.834 -296.499 -123.501v-197h-159v197c-128 11.333 -233.167 53.833 -315.5 127.5s-122.166 181.834 -119.499 324.501l3 6h284c0 -85.333 20.833 -146.166 62.5 -182.499
s95.834 -54.5 162.501 -54.5c65.333 0 114.333 16 147 48s49 75.667 49 131z" />
    <glyph glyph-name="percent" unicode="%" horiz-adv-x="1513" 
d="M95 1176c0 86 27.832 157.667 83.499 215s133.167 86 232.5 86c100.667 0 178.667 -28.5 234 -85.5s83 -128.833 83 -215.5v-77c0 -86 -27.667 -157.333 -83 -214s-132.666 -85 -231.999 -85c-100 0 -178 28.333 -234 85s-84 128 -84 214v77zM288.999 1099
c0 -38.667 10.666 -71.167 31.999 -97.5s52 -39.5 92 -39.5c38.667 0 68.5 13.167 89.5 39.5s31.5 58.833 31.5 97.5v77c0 38.667 -10.667 71.5 -32 98.5s-51.666 40.5 -90.999 40.5s-69.5 -13.5 -90.5 -40.5s-31.5 -59.833 -31.5 -98.5v-77zM790.998 357
c0 85.333 27.999 156.668 83.999 214.001s133.667 86 233 86c100 0 177.833 -28.5 233.5 -85.5s83.5 -128.5 83.5 -214.5v-77c0 -86.667 -27.667 -158.334 -83 -215.001s-132.666 -85 -231.999 -85c-100 0 -178.167 28.5 -234.5 85.5s-84.5 128.5 -84.5 214.5v77z
M984.997 280.002c0 -38 11.499 -70.5 34.499 -97.5s53.167 -40.5 90.5 -40.5c43.333 0 74.333 12.5 93 37.5s28 58.5 28 100.5v77c0 38 -10.667 70.5 -32 97.5s-51.666 40.5 -90.999 40.5c-40 0 -70.5 -13.5 -91.5 -40.5s-31.5 -59.5 -31.5 -97.5v-77zM460.996 109.002
l-142 75l711 1138l142 -75z" />
    <glyph glyph-name="ampersand" unicode="&#x26;" horiz-adv-x="1346" 
d="M319 781c-44 60 -76.667 114.835 -98 164.502s-32 100.167 -32 151.5c0 121.333 35.333 215 106 281s167.667 99 291 99c106 0 192.167 -32.833 258.5 -98.5s99.5 -145.167 99.5 -238.5c0 -69.333 -14.167 -129.333 -42.5 -180s-70.166 -97.667 -125.499 -141l-102 -72
l270 -315c24 39.333 42.667 82.333 56 129s20 96 20 148h233c0 -94.667 -11.833 -181.334 -35.5 -260.001s-60.5 -148.334 -110.5 -209.001l201 -235l-2 -5h-324l-77 89c-56.667 -36.667 -115 -64.167 -175 -82.5s-124.333 -27.5 -193 -27.5
c-145.333 0 -261 38.167 -347 114.5s-129 175.833 -129 298.5c0 80.667 21.167 149.5 63.5 206.5s107.166 117.833 194.499 182.5zM552 203.002c35.333 0 70.667 4.49902 106 13.499s69.333 22.5 102 40.5l-295 342l-9 -7c-39.333 -32 -66.333 -63.333 -81 -94
s-22 -61 -22 -91c0 -59.333 18.333 -108.166 55 -146.499s84.667 -57.5 144 -57.5zM450.001 1100c0 -28 6.66797 -56.667 20.001 -86s33.666 -61.333 60.999 -96l76 49c37.333 24 62.5 48.667 75.5 74s19.5 53 19.5 83c0 34 -11 63.833 -33 89.5s-52.333 38.5 -91 38.5
c-40 0 -71.333 -14.667 -94 -44s-34 -65.333 -34 -108z" />
    <glyph glyph-name="quotesingle" unicode="'" horiz-adv-x="442" 
d="M352 1187l-102 -283h-159v552h261v-269z" />
    <glyph glyph-name="parenleft" unicode="(" horiz-adv-x="711" 
d="M124 592c0 261.333 50.667 483.165 152 665.498s216 300.5 344 354.5h6l53 -146c-87.333 -65.333 -160.666 -170.666 -219.999 -315.999s-89 -330.666 -89 -555.999v-26c0 -226 29.667 -411.5 89 -556.5s132.666 -251.167 219.999 -318.5l-53 -143h-6
c-128 54 -242.667 172 -344 354s-152 404 -152 666v22z" />
    <glyph glyph-name="parenright" unicode=")" horiz-adv-x="713" 
d="M602 570c0 -255.333 -52.832 -475.833 -158.499 -661.5s-223.167 -305.167 -352.5 -358.5h-6l-54 143c86 65.333 159 171 219 317s90 332 90 558v26c0 224 -30.333 409.5 -91 556.5s-133.334 253.5 -218.001 319.5l54 142h6c129.333 -53.333 246.833 -173 352.5 -359
s158.5 -406.333 158.5 -661v-22z" />
    <glyph glyph-name="asterisk" unicode="*" horiz-adv-x="857" 
d="M278 665l-229 76l54 170l240 -79l2 249h176l7 -257l230 78l53 -171l-233 -79l138 -202l-144 -106l-149 208l-145 -199l-145 102z" />
    <glyph glyph-name="plus" unicode="+" horiz-adv-x="1117" 
d="M694 812h360v-252h-360v-414h-276v414h-362v252h362v394h276v-394z" />
    <glyph glyph-name="comma" unicode="," horiz-adv-x="528" 
d="M417 13l-159 -315h-195l70 324v228h284v-237z" />
    <glyph glyph-name="hyphen" unicode="-" horiz-adv-x="892" 
d="M735 510h-589v225h589v-225z" />
    <glyph glyph-name="period" unicode="." horiz-adv-x="596" 
d="M436 0h-292v256h292v-256z" />
    <glyph glyph-name="slash" unicode="/" horiz-adv-x="825" 
d="M270 -125h-284l534 1581h284z" />
    <glyph glyph-name="zero" unicode="0" horiz-adv-x="1175" 
d="M1080 527c0 -170.667 -44.834 -304.667 -134.501 -402s-208.5 -146 -356.5 -146c-149.333 0 -269 48.667 -359 146s-135 231.333 -135 402v401c0 170 44.833 304 134.5 402s208.834 147 357.501 147c148 0 267.167 -49 357.5 -147s135.5 -232 135.5 -402v-401z
M788.999 958c0 93.333 -17.833 165.666 -53.5 216.999s-85.167 77 -148.5 77c-64 0 -113.5 -25.667 -148.5 -77s-52.5 -123.666 -52.5 -216.999v-459c0 -95.333 17.667 -168.5 53 -219.5s85.333 -76.5 150 -76.5c63.333 0 112.5 25.5 147.5 76.5s52.5 124.167 52.5 219.5
v459z" />
    <glyph glyph-name="one" unicode="1" horiz-adv-x="1175" 
d="M796 0h-291v1202h-301v223l592 52v-1477z" />
    <glyph glyph-name="two" unicode="2" horiz-adv-x="1175" 
d="M1094 0h-977.001v191l451 510c67.333 79.333 115.166 146.5 143.499 201.5s42.5 105.5 42.5 151.5c0 60 -15 108 -45 144s-75 54 -135 54c-63.333 0 -112.333 -23 -147 -69s-52 -104.333 -52 -175h-284l-2 6c-3.33301 129.333 39.334 238.833 128.001 328.5
s207.667 134.5 357 134.5s265.333 -38.167 348 -114.5s124 -178.833 124 -307.5c0 -87.333 -23.167 -167 -69.5 -239s-126.166 -171.667 -239.499 -299l-240 -288l2 -5h595v-224z" />
    <glyph glyph-name="three" unicode="3" horiz-adv-x="1175" 
d="M579 856c69.333 0 120.831 18.001 154.498 54.001s50.5 86.667 50.5 152c0 54.667 -17.667 100 -53 136s-84.666 54 -147.999 54c-53.333 0 -98.166 -16.333 -134.499 -49s-54.5 -74.334 -54.5 -125.001h-282l-2 6c-4 114 40 208 132 282s205.667 111 341 111
c150.667 0 270.334 -35.5 359.001 -106.5s133 -172.833 133 -305.5c0 -66.667 -19.167 -127.834 -57.5 -183.501s-90.833 -99.5 -157.5 -131.5c76 -28.667 134.667 -72.167 176 -130.5s62 -128.833 62 -211.5c0 -133.333 -48.167 -238.166 -144.5 -314.499
s-219.833 -114.5 -370.5 -114.5c-132.667 0 -248.667 36 -348 108s-147.333 173 -144 303l2 6h284c0 -54.667 19.167 -100.5 57.5 -137.5s87.833 -55.5 148.5 -55.5c66.667 0 120.667 19.667 162 59s62 89 62 149c0 76.667 -19.333 133.5 -58 170.5
s-95.334 55.5 -170.001 55.5h-161v219h161z" />
    <glyph glyph-name="four" unicode="4" horiz-adv-x="1175" 
d="M955 542h164v-226h-164v-316h-292v316h-593l-14 175l604 965h295v-914zM321 542h342v529l-6 1l-30 -65z" />
    <glyph glyph-name="five" unicode="5" horiz-adv-x="1175" 
d="M139 642l84.0029 814.001h812v-234h-573l-40 -340c27.333 20 61.666 36.5 102.999 49.5s86.333 20.167 135 21.5c135.333 2 240.166 -39.833 314.499 -125.5s111.5 -205.834 111.5 -360.501c0 -142.667 -40.333 -259.667 -121 -351s-204 -137 -370 -137
c-134 0 -248.667 35.5 -344 106.5s-141.333 168.5 -138 292.5l2 5l281 13c0 -60.667 18.333 -108 55 -142s84.667 -51 144 -51c69.333 0 119.833 22.667 151.5 68s47.5 110 47.5 194s-17.333 150.833 -52 200.5s-86 74.5 -154 74.5c-56 0 -98.833 -10.333 -128.5 -31
s-50.834 -48.667 -63.501 -84z" />
    <glyph glyph-name="six" unicode="6" horiz-adv-x="1175" 
d="M669 1477c56.667 0 109.166 -5.16699 157.499 -15.5s96.166 -25.5 143.499 -45.5l-52 -214c-45.333 15.333 -86 26.833 -122 34.5s-77.667 11.5 -125 11.5c-85.333 0 -154.166 -32.667 -206.499 -98s-78.5 -156.333 -78.5 -273v-47c38.667 38 84.834 67.5 138.501 88.5
s113.5 31.5 179.5 31.5c124.667 0 222 -44.167 292 -132.5s105 -203.5 105 -345.5c0 -146 -45.333 -264.667 -136 -356s-209 -137 -355 -137c-152 0 -275.833 52 -371.5 156s-143.5 246.333 -143.5 427v305c0 184.667 54.167 332.5 162.5 443.5s245.5 166.5 411.5 166.5z
M606.999 729c-52.667 0 -97.5 -8.5 -134.5 -25.5s-65.833 -40.5 -86.5 -70.5v-78c0 -112 20.5 -198.667 61.5 -260s95.167 -92 162.5 -92c60.667 0 109 25.5 145 76.5s54 115.167 54 192.5c0 80 -18.167 142.833 -54.5 188.5s-85.5 68.5 -147.5 68.5z" />
    <glyph glyph-name="seven" unicode="7" horiz-adv-x="1175" 
d="M1095 1231c-164.667 -192.667 -276.667 -366.168 -336 -520.501s-89 -331.166 -89 -530.499v-180h-292v180c0 202.667 37.167 387.5 111.5 554.5s182.5 332.5 324.5 496.5h-743v225h1024v-225z" />
    <glyph glyph-name="eight" unicode="8" horiz-adv-x="1175" 
d="M1056 1078c0 -72 -18.668 -135.833 -56.001 -191.5s-88.666 -99.167 -153.999 -130.5c79.333 -32.667 142.333 -79.5 189 -140.5s70 -130.833 70 -209.5c0 -134.667 -46.833 -239.5 -140.5 -314.5s-213.5 -112.5 -359.5 -112.5c-152.667 0 -278 37.5 -376 112.5
s-147 179.833 -147 314.5c0 78.667 24.167 148.5 72.5 209.5s113.833 107.833 196.5 140.5c-68.667 31.333 -122.5 74.833 -161.5 130.5s-58.5 119.5 -58.5 191.5c0 128 43.667 226.5 131 295.5s201 103.5 341 103.5c134 0 243 -34.5 327 -103.5s126 -167.5 126 -295.5z
M812.999 420c0 64.667 -20.1689 117.834 -60.502 159.501s-90.166 62.5 -149.499 62.5c-65.333 0 -119.666 -20.833 -162.999 -62.5s-65 -94.834 -65 -159.501c0 -66 21.5 -118.667 64.5 -158s98.167 -59 165.5 -59c60 0 109.667 19.667 149 59s59 92 59 158zM764.997 1065
c0 57.333 -14.999 102.832 -44.999 136.499s-69 50.5 -117 50.5c-54.667 0 -98.334 -16.5 -131.001 -49.5s-49 -78.833 -49 -137.5c0 -59.333 16.667 -107.166 50 -143.499s77.333 -54.5 132 -54.5c48 0 86.667 18 116 54s44 84 44 144z" />
    <glyph glyph-name="nine" unicode="9" horiz-adv-x="1175" 
d="M532 203c72 0 131.001 27.1689 177.001 81.502s69 130.166 69 227.499v94c-32.667 -42 -71.334 -73.667 -116.001 -95s-92.667 -32 -144 -32c-135.333 0 -241.5 44 -318.5 132s-115.5 207.667 -115.5 359c0 146 45.667 267 137 363s208 144 350 144
c146.667 0 266.334 -49.333 359.001 -148s139 -235.334 139 -410.001v-392c0 -168 -50.5 -301.333 -151.5 -400s-229.5 -148 -385.5 -148c-50.667 0 -102.834 5.5 -156.501 16.5s-104.167 26.5 -151.5 46.5l49 211c42 -17.333 83 -30 123 -38s85.333 -12 136 -12z
M567.001 693.002c47.333 0 89 9.66699 125 29s64.667 45.333 86 78v170c0 91.333 -18.667 161.166 -56 209.499s-87.333 72.5 -150 72.5c-58.667 0 -106 -27.167 -142 -81.5s-54 -121.166 -54 -200.499c0 -83.333 16.333 -150.333 49 -201s80 -76 142 -76z" />
    <glyph glyph-name="colon" unicode=":" horiz-adv-x="582" 
d="M436 0h-292v256h292v-256zM436 876h-292v256h292v-256z" />
    <glyph glyph-name="semicolon" unicode=";" horiz-adv-x="562" 
d="M437 876h-292v256h292v-256zM468 13l-159 -315h-195l70 324v228h284v-237z" />
    <glyph glyph-name="less" unicode="&#x3c;" horiz-adv-x="1043" 
d="M339 550v-6l577 -203v-272l-862 367v227l862 366v-272z" />
    <glyph glyph-name="equal" unicode="=" horiz-adv-x="1181" 
d="M1032 763h-896v229h896v-229zM1032 332h-896v229h896v-229z" />
    <glyph glyph-name="greater" unicode="&#x3e;" horiz-adv-x="1058" 
d="M705 539v6l-586 206v269l872 -366v-227l-872 -367v270z" />
    <glyph glyph-name="question" unicode="?" horiz-adv-x="1021" 
d="M324 414c0.666992 93.333 14.502 161.666 41.502 204.999s80.833 96 161.5 158c47.333 38.667 85.166 80.334 113.499 125.001s42.5 94.667 42.5 150c0 61.333 -16.167 109.333 -48.5 144s-78.5 52 -138.5 52c-49.333 0 -91.166 -14.667 -125.499 -44
s-51.833 -72.333 -52.5 -129h-284l-2 6c-2 128 40.167 226 126.5 294s198.833 102 337.5 102c149.333 0 266.5 -37.833 351.5 -113.5s127.5 -178.5 127.5 -308.5c0 -84.667 -24.833 -163 -74.5 -235s-111.834 -132.333 -186.501 -181
c-40.667 -31.333 -67.334 -62.833 -80.001 -94.5s-19 -75.167 -19 -130.5h-291zM617.002 0h-294v250h294v-250z" />
    <glyph glyph-name="at" unicode="@" horiz-adv-x="1817" 
d="M1730 513c-6 -145.333 -48.6631 -270.667 -127.996 -376s-198 -158 -356 -158c-52 0 -97 14.667 -135 44s-65 70.333 -81 123c-29.333 -54.667 -65.833 -95.667 -109.5 -123s-94.834 -41 -153.501 -41c-94 0 -166.167 39.667 -216.5 119s-68.833 184.333 -55.5 315
c16.667 169.333 64.5 305 143.5 407s174.833 153 287.5 153c77.333 0 139.5 -8.66699 186.5 -26s98.5 -44 154.5 -80l-3 -4h5l-51 -573c-4.66699 -63.333 0 -106.666 14 -129.999s33 -35 57 -35c76.667 0 138.167 36.333 184.5 109s72.166 164.667 77.499 276
c10.667 235.333 -34.833 419 -136.5 551s-258.834 198 -471.501 198c-202 0 -363.333 -71 -484 -213s-186 -332.333 -196 -571c-11.333 -236.667 37.334 -423.334 146.001 -560.001s265 -205 469 -205c56.667 0 115.167 6.66699 175.5 20s112.166 30 155.499 50l38 -147
c-44.667 -28 -101.5 -49.833 -170.5 -65.5s-136.5 -23.5 -202.5 -23.5c-264 0 -467.5 83 -610.5 249s-208.833 393.333 -197.5 682c12 284.667 97.167 512.5 255.5 683.5s366.833 256.5 625.5 256.5c258 0 455.667 -80.833 593 -242.5s200.666 -382.5 189.999 -662.5z
M720.004 415.999c-6.66699 -84.667 -0.5 -148.835 18.5 -192.502s49.833 -65.5 92.5 -65.5c37.333 0 71.166 8.66699 101.499 26s57.5 49.333 81.5 96v6.5c0 1.66699 0.333008 3.83398 1 6.50098l44 496c-15.333 4.66699 -30.666 8.33398 -45.999 11.001s-31.333 4 -48 4
c-74 0 -130.333 -32.167 -169 -96.5s-64 -161.5 -76 -291.5z" />
    <glyph glyph-name="A" unicode="A" horiz-adv-x="1303" 
d="M893 314h-472l-98 -314h-305l491 1456h299l489 -1456h-305zM493 543h329l-161 513h-6z" />
    <glyph glyph-name="B" unicode="B" horiz-adv-x="1305" 
d="M134 0l0.000976562 1456h477c171.333 0 305 -33.5 401 -100.5s144 -166.5 144 -298.5c0 -66.667 -17.333 -126.334 -52 -179.001s-85.334 -92.334 -152.001 -119.001c90.667 -16.667 159 -56 205 -118s69 -134.333 69 -217c0 -139.333 -46 -244.833 -138 -316.5
s-222.333 -107.5 -391 -107.5h-563zM426.001 644.002v-420h271c77.333 0 136.333 16.833 177 50.5s61 83.5 61 149.5c0 70.667 -20 125 -60 163s-100.333 57 -181 57h-268zM426.001 846.002h195c78 0 138 16 180 48s63 78.667 63 140c0 67.333 -21.167 117 -63.5 149
s-105.5 48 -189.5 48h-185v-385z" />
    <glyph glyph-name="C" unicode="C" horiz-adv-x="1303" 
d="M1226 482l1.99805 -6.00195c2.66699 -155.333 -44.666 -277 -141.999 -365s-231.666 -132 -402.999 -132c-174.667 0 -315.667 56.167 -423 168.5s-161 257.5 -161 435.5v289c0 177.333 52.333 322.5 157 435.5s242 169.5 412 169.5c177.333 0 316 -43.333 416 -130
s148.667 -208.667 146 -366l-2 -6h-284c0 93.333 -22.5 162.833 -67.5 208.5s-114.5 68.5 -208.5 68.5c-87.333 0 -155.5 -35.167 -204.5 -105.5s-73.5 -161.166 -73.5 -272.499v-291c0 -112 25.833 -203.333 77.5 -274s123.5 -106 215.5 -106
c87.333 0 152.5 22.833 195.5 68.5s64.5 115.834 64.5 210.501h283z" />
    <glyph glyph-name="D" unicode="D" horiz-adv-x="1355" 
d="M134 0v1456h508c178 0 324.667 -56.833 440 -170.5s173 -259.5 173 -437.5v-241c0 -178.667 -57.667 -324.5 -173 -437.5s-262 -169.5 -440 -169.5h-508zM426 1231v-1007h216c96 0 173.333 35.833 232 107.5s88 163.5 88 275.5v243
c0 111.333 -29.333 202.666 -88 273.999s-136 107 -232 107h-216z" />
    <glyph glyph-name="E" unicode="E" horiz-adv-x="1139" 
d="M966 640h-540v-416h642v-224h-934v1456h932v-225h-640v-366h540v-225z" />
    <glyph glyph-name="F" unicode="F" horiz-adv-x="1139" 
d="M985 605h-559v-605h-292v1456h953v-225h-661v-401h559v-225z" />
    <glyph glyph-name="G" unicode="G" horiz-adv-x="1364" 
d="M1250 199c-45.333 -59.333 -113.001 -110.834 -203.001 -154.501s-206 -65.5 -348 -65.5c-176 0 -320 55.333 -432 166s-168 254.334 -168 431.001v304c0 176 54.333 319.5 163 430.5s248.334 166.5 419.001 166.5c178 0 314.333 -42.167 409 -126.5
s140.334 -196.833 137.001 -337.5l-2 -6h-275c0 77.333 -22.333 137.5 -67 180.5s-109.667 64.5 -195 64.5c-89.333 0 -161.333 -34.5 -216 -103.5s-82 -157.833 -82 -266.5v-306c0 -110 28 -199.667 84 -269s131 -104 225 -104c69.333 0 124.166 7 164.499 21
s71.5 31.667 93.5 53v282h-280v202h573v-562z" />
    <glyph glyph-name="H" unicode="H" horiz-adv-x="1445" 
d="M1311 0h-292v605h-593v-605h-292v1456h292v-626h593v626h292v-1456z" />
    <glyph glyph-name="I" unicode="I" horiz-adv-x="601" 
d="M446 0h-292v1456h292v-1456z" />
    <glyph glyph-name="J" unicode="J" horiz-adv-x="1137" 
d="M714 1456h291v-1005c0 -144 -44.167 -258.667 -132.5 -344s-201.833 -128 -340.5 -128c-154 0 -276 38 -366 114s-133.333 186.333 -130 331l2 6h284c0 -77.333 19 -134.5 57 -171.5s89 -55.5 153 -55.5c53.333 0 97 22.167 131 66.5s51 104.833 51 181.5v1005z" />
    <glyph glyph-name="K" unicode="K" horiz-adv-x="1305" 
d="M533 608h-107v-608h-292v1456h292v-595h82l399 595h361l-504 -677l543 -779h-372z" />
    <glyph glyph-name="L" unicode="L" horiz-adv-x="1138" 
d="M426 224h652v-224h-944v1456h292v-1232z" />
    <glyph glyph-name="M" unicode="M" horiz-adv-x="1782" 
d="M887 383h6l374 1073h381v-1456h-292v994l-6 1l-360 -995h-198l-360 997l-6 -1v-996h-292v1456h383z" />
    <glyph glyph-name="N" unicode="N" horiz-adv-x="1445" 
d="M1311 0h-292l-587 982l-6 -1v-981h-292v1456h292l587 -981l6 1v980h292v-1456z" />
    <glyph glyph-name="O" unicode="O" horiz-adv-x="1409" 
d="M1312 597c0 -179.333 -56.332 -327.168 -168.999 -443.501s-259.334 -174.5 -440.001 -174.5c-180 0 -326 58.333 -438 175s-168 264.334 -168 443.001v262c0 178 55.833 325.5 167.5 442.5s257.167 175.5 436.5 175.5c180.667 0 327.667 -58.5 441 -175.5
s170 -264.5 170 -442.5v-262zM1021 860.998c0 113.333 -28.332 206.333 -84.999 279s-135 109 -235 109c-98.667 0 -175.5 -36.333 -230.5 -109s-82.5 -165.667 -82.5 -279v-264c0 -115.333 27.667 -209.333 83 -282s132.666 -109 231.999 -109c100 0 178 36.333 234 109
s84 166.667 84 282v264z" />
    <glyph glyph-name="P" unicode="P" horiz-adv-x="1305" 
d="M426 528v-528.001h-292v1456h557c167.333 0 299 -42.667 395 -128s144 -197.666 144 -336.999s-48 -251.333 -144 -336s-227.667 -127 -395 -127h-265zM426 752.999h265c81.333 0 143 22.167 185 66.5s63 100.833 63 169.5c0 70 -20.833 127.833 -62.5 173.5
s-103.5 68.5 -185.5 68.5h-265v-478z" />
    <glyph glyph-name="Q" unicode="Q" horiz-adv-x="1441" 
d="M1312 597c0 -73.333 -10.168 -142.334 -30.501 -207.001s-49.166 -123 -86.499 -175l217 -217l-191 -156l-213 210c-44.667 -24 -92.5 -42.167 -143.5 -54.5s-104.833 -18.5 -161.5 -18.5c-180 0 -326 58.333 -438 175s-168 264.334 -168 443.001v262
c0 178 55.833 325.5 167.5 442.5s257.167 175.5 436.5 175.5c180.667 0 327.667 -58.5 441 -175.5s170 -264.5 170 -442.5v-262zM1021 860.999c0 113.333 -28.332 206.333 -84.999 279s-135 109 -235 109c-98.667 0 -175.5 -36.333 -230.5 -109s-82.5 -165.667 -82.5 -279
v-264c0 -115.333 27.667 -209.333 83 -282s132.666 -109 231.999 -109c100 0 178 36.333 234 109s84 166.667 84 282v264z" />
    <glyph glyph-name="R" unicode="R" horiz-adv-x="1305" 
d="M426 582l0.00195312 -582.003h-292v1456h504c166 0 295.833 -37.833 389.5 -113.5s140.5 -181.167 140.5 -316.5c0 -74.667 -19.833 -139.167 -59.5 -193.5s-97.5 -98.166 -173.5 -131.499c86 -25.333 147.833 -67.666 185.5 -126.999s56.5 -132.666 56.5 -219.999v-107
c0 -40.667 5.5 -83.167 16.5 -127.5s29.833 -77.166 56.5 -98.499v-21h-301c-26.667 21.333 -43.834 56.666 -51.501 105.999s-11.5 97 -11.5 143v103c0 72.667 -19.833 129.167 -59.5 169.5s-95.834 60.5 -168.501 60.5h-232zM426.002 806.997h207c82 0 143 17.333 183 52
s60 86 60 154c0 66.667 -20.167 119.667 -60.5 159s-99.5 59 -177.5 59h-212v-424z" />
    <glyph glyph-name="S" unicode="S" horiz-adv-x="1266" 
d="M893 380c0 56 -19.501 100.997 -58.501 134.997s-107.5 66 -205.5 96c-168 50.667 -295.5 110.334 -382.5 179.001s-130.5 162.334 -130.5 281.001c0 119.333 49 216.833 147 292.5s223 113.5 375 113.5c161.333 0 291.166 -40.667 389.499 -122s145.833 -188 142.5 -320
l-2 -6h-283c0 72.667 -22 128.5 -66 167.5s-105.667 58.5 -185 58.5c-72 0 -127.667 -17.333 -167 -52s-59 -79 -59 -133c0 -49.333 21.333 -89.833 64 -121.5s116.334 -65.167 221.001 -100.5c160 -45.333 282 -104.5 366 -177.5s126 -169.167 126 -288.5
c0 -124.667 -48.667 -223 -146 -295s-226 -108 -386 -108c-156.667 0 -291.167 39 -403.5 117s-166.833 194.333 -163.5 349l2 6h283c0 -86 25.333 -149.333 76 -190s119.334 -61 206.001 -61c78 0 137.5 16.333 178.5 49s61.5 76.334 61.5 131.001z" />
    <glyph glyph-name="T" unicode="T" horiz-adv-x="1175" 
d="M1149 1231h-416v-1231h-292v1231h-410v225h1118v-225z" />
    <glyph glyph-name="U" unicode="U" horiz-adv-x="1407" 
d="M1288 1456l0.000976562 -953c0 -164 -54.333 -292.333 -163 -385s-249.667 -139 -423 -139c-172.667 0 -312.834 46.333 -420.501 139s-161.5 221 -161.5 385v953h293v-953c0 -97.333 26 -171.666 78 -222.999s122.333 -77 211 -77c90 0 161.333 25.667 214 77
s79 125.666 79 222.999v953h293z" />
    <glyph glyph-name="V" unicode="V" horiz-adv-x="1303" 
d="M630 395l18 -80h6l17 77l317 1064h308l-495 -1456h-300l-494 1456h308z" />
    <glyph glyph-name="W" unicode="W" horiz-adv-x="1804" 
d="M1283 468h6l193 988h301l-340 -1456h-271l-268 959h-6l-267 -959h-271l-340 1456h301l194 -987h6l262 987h236z" />
    <glyph glyph-name="X" unicode="X" horiz-adv-x="1303" 
d="M649 940l273 516h340l-432 -722l457 -734h-353l-281 525l-281 -525h-341l443 734l-432 722h338z" />
    <glyph glyph-name="Y" unicode="Y" horiz-adv-x="1303" 
d="M648 785h6l318 671h320l-499 -944v-512h-292v527l-491 929h320z" />
    <glyph glyph-name="Z" unicode="Z" horiz-adv-x="1163" 
d="M421 224h668v-224h-1012v152l648 1079h-647v225h994v-146z" />
    <glyph glyph-name="bracketleft" unicode="[" horiz-adv-x="570" 
d="M553 1475h-141v-1595h141v-216h-434v2027h434v-216z" />
    <glyph glyph-name="backslash" unicode="\" horiz-adv-x="863" 
d="M2 1456h289l608 -1581h-289z" />
    <glyph glyph-name="bracketright" unicode="]" horiz-adv-x="570" 
d="M13 1691h434v-2027h-434v216h142v1595h-142v216z" />
    <glyph glyph-name="asciicircum" unicode="^" horiz-adv-x="896" 
d="M275 729h-231l299 727h212l299 -727h-231l-165 413l-8 34h-6l-7 -34z" />
    <glyph glyph-name="underscore" unicode="_" horiz-adv-x="914" 
d="M911 -219h-910v219h910v-219z" />
    <glyph glyph-name="grave" unicode="`" horiz-adv-x="678" 
d="M577 1252h-251l-272 260l2 6h325z" />
    <glyph glyph-name="a" unicode="a" horiz-adv-x="1100" 
d="M750 0c-10.667 24.667 -19.835 50.6699 -27.502 78.0029s-13.167 55.333 -16.5 84c-30 -52.667 -69.667 -96.334 -119 -131.001s-108 -52 -176 -52c-113.333 0 -200.666 29.167 -261.999 87.5s-92 137.833 -92 238.5c0 106 40.833 188.167 122.5 246.5
s200.834 87.5 357.501 87.5h164v86c0 52 -13.667 92.333 -41 121s-68 43 -122 43c-47.333 0 -83.833 -11.5 -109.5 -34.5s-38.5 -54.5 -38.5 -94.5h-281l-2 6c-4.66699 91.333 35.166 170.166 119.499 236.499s194.5 99.5 330.5 99.5c130 0 235.167 -32.667 315.5 -98
s120.5 -159 120.5 -281v-447c0 -50.667 3.83301 -98.334 11.5 -143.001s19.834 -89 36.501 -133h-291zM482.999 195.003c50.667 0 96 12.6699 136 38.0029s67.333 54.666 82 87.999v153h-164c-62 0 -108.833 -15.333 -140.5 -46s-47.5 -68.334 -47.5 -113.001
c0 -36.667 11.833 -65.834 35.5 -87.501s56.5 -32.5 98.5 -32.5z" />
    <glyph glyph-name="b" unicode="b" 
d="M1088 511c0 -161.333 -36.001 -290.331 -108.001 -386.998s-176 -145 -312 -145c-63.333 0 -118.5 13.333 -165.5 40s-86.833 65.667 -119.5 117l-24 -136h-247v1560h291v-593c31.333 43.333 68.833 76.666 112.5 99.999s93.834 35 150.501 35
c137.333 0 242 -51.833 314 -155.5s108 -241.834 108 -414.501v-21zM796.999 532.002c0 105.333 -15.501 188.833 -46.501 250.5s-83.833 92.5 -158.5 92.5c-45.333 0 -83.666 -9.5 -114.999 -28.5s-56 -46.167 -74 -81.5v-458c18 -32.667 42.833 -57.667 74.5 -75
s70.5 -26 116.5 -26c75.333 0 128 26.5 158 79.5s45 128.167 45 225.5v21z" />
    <glyph glyph-name="c" unicode="c" horiz-adv-x="1056" 
d="M564 203c50.667 0 91 15.168 121 45.501s45 70.833 45 121.5h266l2 -6c2.66699 -109.333 -38 -200.833 -122 -274.5s-188 -110.5 -312 -110.5c-160 0 -283.667 51.167 -371 153.5s-131 233.166 -131 392.499v30c0 158.667 43.5 289.5 130.5 392.5
s210.167 154.5 369.5 154.5c132 0 238.333 -38 319 -114s119.667 -176 117 -300l-2 -6h-266c0 56 -14.833 102.5 -44.5 139.5s-70.834 55.5 -123.501 55.5c-75.333 0 -128.833 -30.167 -160.5 -90.5s-47.5 -137.5 -47.5 -231.5v-30c0 -96 15.833 -173.667 47.5 -233
s85.834 -89 162.501 -89z" />
    <glyph glyph-name="d" unicode="d" 
d="M67 532c0 170.667 36.834 308.332 110.501 412.999s177.5 157 311.5 157c54 0 102.667 -11.667 146 -35s81.333 -56.666 114 -99.999v593h293v-1560h-249l-25 133c-34 -50 -74.333 -88.167 -121 -114.5s-100 -39.5 -160 -39.5c-132.667 0 -235.834 48.667 -309.501 146
s-110.5 226 -110.5 386v21zM358.001 510.998c0 -94.667 16 -169.167 48 -223.5s84 -81.5 156 -81.5c42 0 78.667 8.5 110 25.5s57 41.833 77 74.5v461c-20 34 -45.5 60.5 -76.5 79.5s-67.167 28.5 -108.5 28.5c-71.333 0 -123.5 -31.667 -156.5 -95s-49.5 -146 -49.5 -248
v-21z" />
    <glyph glyph-name="e" unicode="e" horiz-adv-x="1071" 
d="M581 -21c-161.333 0 -287.333 49.502 -378 148.502s-136 226.5 -136 382.5v40c0 162 44 294.667 132 398s209 154.666 363 153.999c145.333 0 256.833 -44.5 334.5 -133.5s116.5 -208.833 116.5 -359.5v-151h-645l-3 -6c4.66699 -74 27.167 -134 67.5 -180
s100.166 -69 179.499 -69c65.333 0 120.833 6.66699 166.5 20s92.834 33.666 141.501 60.999l79 -180c-43.333 -35.333 -102 -65 -176 -89s-154.667 -36 -242 -36zM562 877.002c-58.667 0 -103.832 -20.166 -135.499 -60.499s-50.834 -93.833 -57.501 -160.5l2 -5h356v22
c0 63.333 -13 113.166 -39 149.499s-68 54.5 -126 54.5z" />
    <glyph glyph-name="f" unicode="f" horiz-adv-x="714" 
d="M188 0l-0.00292969 877.001h-161v205h161v120c0 121.333 35 214.833 105 280.5s168.333 98.5 295 98.5c24.667 0 49.834 -1.83301 75.501 -5.5s53.834 -8.83398 84.501 -15.501l-25 -217c-16 2.66699 -31.5 5 -46.5 7s-32.5 3 -52.5 3
c-47.333 0 -83.166 -13 -107.499 -39s-36.5 -63.333 -36.5 -112v-120h208v-205h-208v-877h-292z" />
    <glyph glyph-name="g" unicode="g" 
d="M69 532c0 170.667 36.999 308.333 110.999 413s178 157 312 157c60.667 0 114 -13.667 160 -41s85.333 -66.333 118 -117l23 138h251v-1077c0 -140.667 -46 -249.5 -138 -326.5s-220.333 -115.5 -385 -115.5c-54.667 0 -112.667 7.5 -174 22.5s-118 35.5 -170 61.5
l49 218c44.667 -21.333 90.834 -37.5 138.501 -48.5s99.167 -16.5 154.5 -16.5c80 0 138.833 16.667 176.5 50s56.5 85.333 56.5 156v98c-32 -40.667 -69.667 -71.667 -113 -93s-93 -32 -149 -32c-132.667 0 -236 48.667 -310 146s-111 226 -111 386v21zM360.999 510.999
c0 -94.667 15.833 -169.166 47.5 -223.499s83.5 -81.5 155.5 -81.5c44.667 0 82.5 8.16699 113.5 24.5s55.833 40.166 74.5 71.499v469c-18.667 33.333 -43.5 59 -74.5 77s-68.167 27 -111.5 27c-71.333 0 -123.333 -31.667 -156 -95s-49 -146 -49 -248v-21z" />
    <glyph glyph-name="h" unicode="h" 
d="M397 945c34 49.333 75.667 87.833 125 115.5s104 41.5 164 41.5c112.667 0 201.167 -37.5 265.5 -112.5s96.5 -190.833 96.5 -347.5v-642h-292v644c0 84 -13.5 143.5 -40.5 178.5s-67.5 52.5 -121.5 52.5c-44.667 0 -83.5 -7.16699 -116.5 -21.5
s-59.833 -34.833 -80.5 -61.5v-792h-292v1560h292v-615z" />
    <glyph glyph-name="i" unicode="i" horiz-adv-x="547" 
d="M419 0h-292v1082h292v-1082zM419 1341h-292v219h292v-219z" />
    <glyph glyph-name="j" unicode="j" horiz-adv-x="543" 
d="M427 1082l0.00292969 -1122c0 -126.667 -33.667 -224.5 -101 -293.5s-161 -103.5 -281 -103.5c-26.667 0 -51 1.33301 -73 4s-45.333 7 -70 13l14 223c15.333 -4 30.666 -7 45.999 -9s31.666 -3 48.999 -3c39.333 0 69.666 13.833 90.999 41.5s32 70.167 32 127.5v1122
h293zM421.003 1343h-293v217h293v-217z" />
    <glyph glyph-name="k" unicode="k" horiz-adv-x="1097" 
d="M478 453h-74v-453h-292v1560h292v-885h65l259 407h338l-352 -493l400 -589h-336z" />
    <glyph glyph-name="l" unicode="l" horiz-adv-x="547" 
d="M419 0h-292v1560h292v-1560z" />
    <glyph glyph-name="m" unicode="m" horiz-adv-x="1772" 
d="M383 1082l12.002 -143c34.667 52 78.167 92.167 130.5 120.5s112.833 42.5 181.5 42.5c69.333 0 128.666 -15.333 177.999 -46s86.666 -77 111.999 -139c33.333 58 76.666 103.333 129.999 136s116 49 188 49c106.667 0 190.834 -37.833 252.501 -113.5
s92.5 -191.167 92.5 -346.5v-642h-292v643c0 86.667 -13.333 147 -40 181s-66.334 51 -119.001 51c-41.333 0 -77.166 -9.16699 -107.499 -27.5s-54.5 -43.833 -72.5 -76.5c0 -12.667 0.333008 -23.5 1 -32.5s1 -18.167 1 -27.5v-711h-291v643
c0 84.667 -13.333 144.5 -40 179.5s-66.667 52.5 -120 52.5c-39.333 0 -73.833 -7.5 -103.5 -22.5s-54.167 -36.167 -73.5 -63.5v-789h-291v1082h271z" />
    <glyph glyph-name="n" unicode="n" 
d="M379 1082l13.001 -154.999c36 55.333 80.333 98.333 133 129s111.667 46 177 46c109.333 0 194.666 -35.167 255.999 -105.5s92 -181.5 92 -333.5v-663h-293v662c0 77.333 -13.5 132.166 -40.5 164.499s-67.5 48.5 -121.5 48.5c-43.333 0 -81.5 -8.16699 -114.5 -24.5
s-60.167 -38.833 -81.5 -67.5v-783h-292v1082h272z" />
    <glyph glyph-name="o" unicode="o" 
d="M67 551c0 161.333 44.999 293.5 134.999 396.5s214.667 154.5 374 154.5c160 0 285.333 -51.333 376 -154s136 -235 136 -397v-21c0 -162.667 -45.167 -295.167 -135.5 -397.5s-215.166 -153.5 -374.499 -153.5c-160 0 -285.167 51.167 -375.5 153.5
s-135.5 234.833 -135.5 397.5v21zM357.999 530c0 -98.667 17.333 -177.833 52 -237.5s90.667 -89.5 168 -89.5c75.333 0 130.5 30 165.5 90s52.5 139 52.5 237v21c0 96 -17.667 174.333 -53 235s-91 91 -167 91c-75.333 0 -130.5 -30.5 -165.5 -91.5
s-52.5 -139.167 -52.5 -234.5v-21z" />
    <glyph glyph-name="p" unicode="p" 
d="M1088 511c0 -160 -37 -288.666 -111 -385.999s-177.333 -146 -310 -146c-56.667 0 -107 10.5 -151 31.5s-81.667 51.833 -113 92.5v-519h-291v1498h263l17 -128c32 47.333 70.5 83.833 115.5 109.5s97.5 38.5 157.5 38.5c134 0 238 -52.333 312 -157
s111 -242.334 111 -413.001v-21zM796 532.001c0 102 -17 184.667 -51 248s-86 95 -156 95c-44 0 -81.5 -9 -112.5 -27s-55.5 -43.667 -73.5 -77v-474c18 -30.667 42.5 -54 73.5 -70s69.167 -24 114.5 -24c70.667 0 122.5 27.667 155.5 83s49.5 130.333 49.5 225v21z" />
    <glyph glyph-name="q" unicode="q" 
d="M67 532c0 170.667 36.834 308.332 110.501 412.999s177.5 157 311.5 157c60 0 112.667 -13.167 158 -39.5s84.333 -64.166 117 -113.499l27 133h248v-1498h-292v517c-32 -40 -69.5 -70.333 -112.5 -91s-92.167 -31 -147.5 -31c-132.667 0 -235.834 48.667 -309.501 146
s-110.5 226 -110.5 386v21zM358.001 510.998c0 -94.667 15.998 -169.667 47.998 -225s84 -83 156 -83c42.667 0 79.334 8 110.001 24s55.667 39.333 75 70v480c-19.333 32 -44.166 56.667 -74.499 74s-66.5 26 -108.5 26c-71.333 0 -123.5 -32 -156.5 -96
s-49.5 -147 -49.5 -249v-21z" />
    <glyph glyph-name="r" unicode="r" horiz-adv-x="721" 
d="M681 831l-106.999 2.99805c-43.333 0 -79 -9 -107 -27s-49.333 -43.333 -64 -76v-731h-291v1082h271l13 -160c25.333 56.667 58.166 100.834 98.499 132.501s86.833 47.5 139.5 47.5c14.667 0 28.167 -1.16699 40.5 -3.5s24.833 -5.16602 37.5 -8.49902z" />
    <glyph glyph-name="s" unicode="s" horiz-adv-x="1056" 
d="M697 300c0 32 -15.5 59.5029 -46.5 82.5029s-88.5 43.167 -172.5 60.5c-126.667 25.333 -222.834 63.666 -288.501 114.999s-98.5 121 -98.5 209c0 92.667 39.333 171.667 118 237s183.334 98 314.001 98c136.667 0 246.167 -32.667 328.5 -98
s121.833 -146.666 118.5 -243.999l-2 -6h-282c0 43.333 -14 78.666 -42 105.999s-68.333 41 -121 41c-46.667 0 -83.667 -11.667 -111 -35s-41 -52 -41 -86c0 -33.333 14.167 -60.5 42.5 -81.5s85.833 -39.833 172.5 -56.5c132.667 -26.667 231.5 -65.834 296.5 -117.501
s97.5 -122.834 97.5 -213.501c0 -97.333 -41.667 -177 -125 -239s-193.333 -93 -330 -93c-144 0 -257.833 36.5 -341.5 109.5s-123.5 156.167 -119.5 249.5l2 6h267c2 -58 21 -100 57 -126s83 -39 141 -39c54 0 95.167 10.833 123.5 32.5s42.5 51.167 42.5 88.5z" />
    <glyph glyph-name="t" unicode="t" horiz-adv-x="713" 
d="M462 1347l0.000976562 -265h183v-205h-183v-551c0 -42 8.83301 -72 26.5 -90s40.834 -27 69.501 -27c15.333 0 28.666 0.833008 39.999 2.5s24.333 4.5 39 8.5l24 -211c-29.333 -10 -57.833 -17.5 -85.5 -22.5s-57.834 -7.5 -90.501 -7.5
c-100.667 0 -178.167 27.667 -232.5 83s-81.5 143 -81.5 263v552h-158v205h158v265h291z" />
    <glyph glyph-name="u" unicode="u" 
d="M775 160c-33.333 -58 -75.666 -102.667 -126.999 -134s-111 -47 -179 -47c-114 0 -203.167 38.667 -267.5 116s-96.5 197.333 -96.5 360v627h291v-629c0 -94.667 12.833 -159.5 38.5 -194.5s65.5 -52.5 119.5 -52.5c46.667 0 86.667 7.5 120 22.5
s60.666 37.167 81.999 66.5v787h292v-1082h-242z" />
    <glyph glyph-name="v" unicode="v" horiz-adv-x="1046" 
d="M503 403l19 -100h6l20 100l178 679h305l-368 -1082h-279l-368 1082h305z" />
    <glyph glyph-name="w" unicode="w" horiz-adv-x="1507" 
d="M1053 402h6l131 680h284l-275 -1082h-244l-201 624h-6l-201 -624h-243l-275 1082h284l133 -677h6l202 677h195z" />
    <glyph glyph-name="x" unicode="x" horiz-adv-x="1046" 
d="M519 738h6l166 344h330l-326 -535l337 -547h-329l-177 359l-177 -359h-330l337 547l-327 535h328z" />
    <glyph glyph-name="y" unicode="y" horiz-adv-x="1046" 
d="M502 454l12.001 -60.001h6l207 688h314l-439 -1244c-30.667 -77.333 -72.334 -142.5 -125.001 -195.5s-131.667 -79.5 -237 -79.5c-24.667 0 -47.5 2 -68.5 6s-46.5 9.66699 -76.5 17l34 213c8.66699 -1.33301 18 -2.66602 28 -3.99902s19 -2 27 -2
c48 0 85 11.833 111 35.5s46 53.167 60 88.5l34 84l-384 1081h314z" />
    <glyph glyph-name="z" unicode="z" horiz-adv-x="1046" 
d="M438 224h536v-224h-899v172l515 684h-499v226h866v-167z" />
    <glyph glyph-name="braceleft" unicode="{" horiz-adv-x="676" 
d="M585 -360c-130 36.667 -222.5 95 -277.5 175s-82.5 177 -82.5 291v203c0 66 -14.5 117.333 -43.5 154s-73.5 55 -133.5 55v201c60 0 104.5 18.167 133.5 54.5s43.5 88.166 43.5 155.499v203c0 114 27.5 210.833 82.5 290.5s147.5 137.834 277.5 174.501l56 -157
c-56.667 -20.667 -96.667 -57.5 -120 -110.5s-35 -118.833 -35 -197.5v-203c0 -69.333 -14.833 -130.833 -44.5 -184.5s-74.5 -95.5 -134.5 -125.5c60 -31.333 104.833 -73.833 134.5 -127.5s44.5 -114.5 44.5 -182.5v-203c0 -78.667 11.667 -144.5 35 -197.5
s63.333 -89.833 120 -110.5z" />
    <glyph glyph-name="bar" unicode="|" horiz-adv-x="519" 
d="M374 -270h-231v1726h231v-1726z" />
    <glyph glyph-name="braceright" unicode="}" horiz-adv-x="676" 
d="M34 -202c56.667 20.667 96.667 57.501 120 110.501s35 118.833 35 197.5v203c0 69.333 15.333 130.666 46 183.999s77.334 95 140.001 125c-62.667 30 -109.334 71.833 -140.001 125.5s-46 115.5 -46 185.5v203c0 78.667 -11.667 144.5 -35 197.5
s-63.333 89.833 -120 110.5l56 157c129.333 -36.667 221.666 -94.834 276.999 -174.501s83 -176.5 83 -290.5v-203c0 -67.333 14.333 -119.166 43 -155.499s73.667 -54.5 135 -54.5v-201c-61.333 0 -106.333 -18.333 -135 -55s-43 -88 -43 -154v-203
c0 -114 -27.667 -211 -83 -291s-147.666 -138.333 -276.999 -175z" />
    <glyph glyph-name="asciitilde" unicode="~" horiz-adv-x="1327" 
d="M1220 758c0 -107.333 -29.498 -197.5 -88.498 -270.5s-133.5 -109.5 -223.5 -109.5c-56.667 0 -109 10.5 -157 31.5s-98 54.833 -150 101.5c-34.667 29.333 -64.5 50.666 -89.5 63.999s-52.167 20 -81.5 20c-34.667 0 -63.834 -17 -87.501 -51s-35.5 -74.667 -35.5 -122
l-202 26c0 108 28.833 197.833 86.5 269.5s132.167 107.5 223.5 107.5c55.333 0 108.166 -11.167 158.499 -33.5s100.833 -55.5 151.5 -99.5c32.667 -30 61.5 -51.5 86.5 -64.5s52.167 -19.5 81.5 -19.5c33.333 0 62.333 17.333 87 52s37 76.334 37 125.001z" />
    <glyph glyph-name="nonbreakingspace" unicode="&#xa0;" horiz-adv-x="510" 
 />
    <glyph glyph-name="exclamdown" unicode="&#xa1;" horiz-adv-x="580" 
d="M434 -374h-292v953h292v-953zM434 825h-292v257h292v-257z" />
    <glyph glyph-name="cent" unicode="&#xa2;" horiz-adv-x="1181" 
d="M564 203c50.667 0 91 15.168 121 45.501s45 70.833 45 121.5h267l3 -5c1.33301 -87.333 -25.667 -164.5 -81 -231.5s-128.333 -112.5 -219 -136.5v-242h-200v228c-140.667 14 -248.834 70.833 -324.501 170.5s-113.5 223.5 -113.5 371.5v30
c0 147.333 37.833 271.166 113.5 371.499s183.834 157.833 324.501 172.5v219h200v-233c93.333 -24 167.333 -71.5 222 -142.5s82 -157.833 82 -260.5h-274c0 56 -14.833 102.5 -44.5 139.5s-70.834 55.5 -123.501 55.5c-75.333 0 -128.833 -30.167 -160.5 -90.5
s-47.5 -137.5 -47.5 -231.5v-30c0 -96 15.833 -173.667 47.5 -233s85.834 -89 162.501 -89z" />
    <glyph glyph-name="sterling" unicode="&#xa3;" horiz-adv-x="1216" 
d="M551 588l4.00098 -85c0 -52 -10 -102 -30 -150s-48.667 -91 -86 -129h713v-224h-996v224h10c31.333 8 54.833 39.667 70.5 95s23.5 112.333 23.5 171l-4 98h-164v225h155l-8 214c0 140 40.167 250 120.5 330s187.833 120 322.5 120c143.333 0 254.5 -37.167 333.5 -111.5
s117.167 -172.5 114.5 -294.5l-2 -6h-284c0 64 -15.333 111.167 -46 141.5s-69.667 45.5 -117 45.5c-46.667 0 -83.334 -19.5 -110.001 -58.5s-40 -94.5 -40 -166.5l10 -214h355v-225h-345z" />
    <glyph glyph-name="currency" unicode="&#xa4;" horiz-adv-x="1417" 
d="M1072 107c-51.333 -41.333 -107.667 -72.8359 -169 -94.5029s-125.333 -32.5 -192 -32.5c-67.333 0 -131.833 10.833 -193.5 32.5s-117.5 52.834 -167.5 93.501l-129 -132l-141 144l135 137c-32.667 50.667 -57.5 105.834 -74.5 165.501s-25.5 122.167 -25.5 187.5
c0 67.333 9.33301 132 28 194s45.667 119 81 171l-144 147l141 144l142 -145c49.333 36.667 103.5 65 162.5 85s120.833 30 185.5 30c64 0 125.667 -10.167 185 -30.5s114 -49.166 164 -86.499l144 148l142 -145l-148 -151c34 -52 60.333 -108.5 79 -169.5
s28 -124.833 28 -191.5c0 -64.667 -8.5 -126.5 -25.5 -185.5s-41.167 -113.5 -72.5 -163.5l139 -141l-142 -145zM300.999 607.997c0 -123.333 39.667 -227.333 119 -312s176.333 -127 291 -127c113.333 0 209.833 42.5 289.5 127.5s119.5 188.833 119.5 311.5
c0 122 -39.833 225.333 -119.5 310s-176.167 127 -289.5 127c-114.667 0 -211.667 -42.333 -291 -127s-119 -188 -119 -310z" />
    <glyph glyph-name="yen" unicode="&#xa5;" horiz-adv-x="1253" 
d="M623 848h6l281 608h320l-382 -714h244v-165h-324v-125h324v-164h-324v-288h-292v288h-339v164h339v125h-339v165h267l-382 714h321z" />
    <glyph glyph-name="brokenbar" unicode="&#xa6;" horiz-adv-x="517" 
d="M127 -270v795h262v-795h-262zM389 698h-262v758h262v-758z" />
    <glyph glyph-name="section" unicode="&#xa7;" horiz-adv-x="1287" 
d="M1180 475c0 -60.667 -13.999 -113.667 -41.999 -159s-68.333 -82.333 -121 -111c45.333 -34 79.5 -74.333 102.5 -121s34.5 -102.667 34.5 -168c0 -118 -46.667 -210.333 -140 -277s-219 -100 -377 -100c-154.667 0 -283.834 33.167 -387.501 99.5
s-153.834 172.166 -150.501 317.499l2 6l283 1c0 -70.667 24.167 -121.334 72.5 -152.001s108.5 -46 180.5 -46c71.333 0 126.833 13.833 166.5 41.5s59.5 63.834 59.5 108.501s-20.333 80.5 -61 107.5s-117.334 57.167 -230.001 90.5
c-162.667 42.667 -283 95.167 -361 157.5s-117 150.833 -117 265.5c0 59.333 14 112 42 158s68.333 83.667 121 113c-46 33.333 -80.333 73.5 -103 120.5s-34 103.167 -34 168.5c0 114.667 47.167 206.834 141.5 276.501s220.5 104.5 378.5 104.5
c162 0 288.833 -37 380.5 -111s135.834 -177.667 132.501 -311l-2 -6h-283c0 58.667 -20 107.167 -60 145.5s-96 57.5 -168 57.5c-76 0 -133 -14.5 -171 -43.5s-57 -65.833 -57 -110.5c0 -50 18.5 -87.833 55.5 -113.5s114.5 -54.5 232.5 -86.5
c164.667 -42.667 285.834 -95.167 363.501 -157.5s116.5 -150.833 116.5 -265.5zM599.001 663c-26.667 6.66699 -51.335 13.668 -74.002 21.001l-65 22c-25.333 -14.667 -44.166 -34.334 -56.499 -59.001s-18.5 -53 -18.5 -85c0 -53.333 18.5 -93.833 55.5 -121.5
s114.5 -58.834 232.5 -93.501l68.5 -20l69.5 -21c26 14.667 46.167 34.334 60.5 59.001s21.5 53 21.5 85c0 47.333 -20.667 86 -62 116s-118.666 62.333 -231.999 97z" />
    <glyph glyph-name="dieresis" unicode="&#xa8;" horiz-adv-x="1090" 
d="M922 1252h-266v204h266v-204zM422 1252h-266v204h266v-204z" />
    <glyph glyph-name="copyright" unicode="&#xa9;" horiz-adv-x="1606" 
d="M1109 596l2.00098 -5.99902c2.66699 -100.667 -25.333 -177.167 -84 -229.5s-140.334 -78.5 -245.001 -78.5c-106.667 0 -191.5 35.333 -254.5 106s-94.5 164.334 -94.5 281.001v119c0 115.333 31.5 208.666 94.5 279.999s147.833 107 254.5 107
c104.667 0 186.5 -26.5 245.5 -79.5s87.167 -129.167 84.5 -228.5l-2 -6h-148c0 62.667 -15 108.167 -45 136.5s-75 42.5 -135 42.5c-62.667 0 -110.667 -23 -144 -69s-50 -106.667 -50 -182v-120c0 -76.667 16.667 -137.834 50 -183.501s81.333 -68.5 144 -68.5
c60 0 104.833 13.833 134.5 41.5s44.5 73.5 44.5 137.5h148zM208.001 729.001c0 -176 57.168 -324.167 171.501 -444.5s253.166 -180.5 416.499 -180.5c162.667 0 301.167 60.167 415.5 180.5s171.5 268.5 171.5 444.5c0 175.333 -57.167 322.833 -171.5 442.5
s-252.833 179.5 -415.5 179.5c-164 0 -303 -59.833 -417 -179.5s-171 -267.167 -171 -442.5zM86.002 729.001c0 210 69 387 207 531s305.667 216 503 216c196.667 0 364.167 -72 502.5 -216s207.5 -321 207.5 -531c0 -210.667 -69.333 -388.334 -208 -533.001
s-306 -217 -502 -217c-197.333 0 -365 72.333 -503 217s-207 322.334 -207 533.001z" />
    <glyph glyph-name="ordfeminine" unicode="&#xaa;" horiz-adv-x="909" 
d="M604 706c-5.33301 14 -9.66699 28.8301 -13 44.4971s-6 32.167 -8 49.5c-22 -31.333 -51.5 -57.166 -88.5 -77.499s-81.5 -30.5 -133.5 -30.5c-79.333 0 -140.666 20.333 -183.999 61s-65 96.334 -65 167.001c0 74 28.167 131 84.5 171s138.5 60 246.5 60h137v51
c0 41.333 -9.83301 72.833 -29.5 94.5s-48.5 32.5 -86.5 32.5c-44 0 -78 -8.66699 -102 -26s-36 -41.666 -36 -72.999l-165 13l-1 6c-4 65.333 22.333 119.666 79 162.999s131.667 65 225 65c89.333 0 160.166 -23.667 212.499 -71s78.5 -115.666 78.5 -204.999v-314
c0 -34 2 -65.667 6 -95s10.667 -58 20 -86h-177zM403.999 835.997c34 0 69.001 10 105.001 30s59.667 41.667 71 65v103h-136c-49.333 0 -87.833 -10.667 -115.5 -32s-41.5 -47.333 -41.5 -78c0 -28.667 9.66699 -50.5 29 -65.5s48.666 -22.5 87.999 -22.5z" />
    <glyph glyph-name="guillemotleft" unicode="&#xab;" horiz-adv-x="1025" 
d="M324 515l240 -399h-187l-280 390v19l280 390h187zM659 515l240 -399h-187l-280 390v19l280 390h187z" />
    <glyph glyph-name="logicalnot" unicode="&#xac;" horiz-adv-x="1129" 
d="M961 374h-200v260h-635v171h835v-431z" />
    <glyph glyph-name="uni00AD" unicode="&#xad;" horiz-adv-x="892" 
d="M735 510h-589v225h589v-225z" />
    <glyph glyph-name="registered" unicode="&#xae;" horiz-adv-x="1606" 
d="M86 729c0 210 69 387 207 531s305.667 216 503 216c196.667 0 364.167 -72 502.5 -216s207.5 -321 207.5 -531c0 -210.667 -69.333 -388.334 -208 -533.001s-306 -217 -502 -217c-197.333 0 -365 72.333 -503 217s-207 322.334 -207 533.001zM208 729
c0 -176 57.168 -324.167 171.501 -444.5s253.166 -180.5 416.499 -180.5c162.667 0 301.167 60.167 415.5 180.5s171.5 268.5 171.5 444.5c0 175.333 -57.167 322.833 -171.5 442.5s-252.833 179.5 -415.5 179.5c-164 0 -303 -59.833 -417 -179.5s-171 -267.167 -171 -442.5
zM652.001 653l-0.00195312 -337.001h-151v850h281c100.667 0 180 -22.667 238 -68s87 -110 87 -194c0 -38.667 -9.66699 -72.5 -29 -101.5s-47.666 -53.833 -84.999 -74.5c38.667 -20 66.834 -48.167 84.501 -84.5s26.5 -79.166 26.5 -128.499v-56
c0 -27.333 1.16699 -51.833 3.5 -73.5s6.83301 -39.5 13.5 -53.5v-16h-155c-6 14 -9.66699 34.5 -11 61.5s-2 54.5 -2 82.5v54c0 47.333 -11.167 82.333 -33.5 105s-58.833 34 -109.5 34h-158zM651.999 786.999h135c47.333 0 87.5 10 120.5 30s49.5 48.667 49.5 86
c0 48 -13 81.667 -39 101s-71.333 29 -136 29h-130v-246z" />
    <glyph glyph-name="macron" unicode="&#xaf;" horiz-adv-x="1028" 
d="M879 1292h-731v165h731v-165z" />
    <glyph glyph-name="macron" unicode="&#x2c9;" horiz-adv-x="1028" 
d="M879 1292h-731v165h731v-165z" />
    <glyph glyph-name="degree" unicode="&#xb0;" horiz-adv-x="796" 
d="M126 1203c0 74.667 26.8311 139 80.498 193s117.834 81 192.501 81c73.333 0 136.333 -27 189 -81s79 -118.333 79 -193c0 -75.333 -26.333 -139.333 -79 -192s-115.667 -79 -189 -79c-75.333 0 -139.666 26.333 -192.999 79s-80 116.667 -80 192zM272.998 1203
c0 -35.333 12.333 -64.833 37 -88.5s54.334 -35.5 89.001 -35.5c34 0 62.667 11.667 86 35s35 53 35 89s-11.667 66.333 -35 91s-52 37 -86 37c-34.667 0 -64.334 -12.333 -89.001 -37s-37 -55 -37 -91z" />
    <glyph glyph-name="plusminus" unicode="&#xb1;" horiz-adv-x="1101" 
d="M679 947h327v-232h-327v-383h-256v383h-333v232h333v363h256v-363zM948 -43h-834v228h834v-228z" />
    <glyph glyph-name="twosuperior" unicode="&#xb2;" horiz-adv-x="860" 
d="M736 667l-621.998 0.00390625v155l309 252c40 33.333 65.833 61.166 77.5 83.499s17.5 47.166 17.5 74.499c0 26 -7.83301 47.833 -23.5 65.5s-39.834 26.5 -72.501 26.5c-36.667 0 -64.334 -10 -83.001 -30s-28 -45.667 -28 -77h-201l-2 6c-4 70.667 23.5 131 82.5 181
s137.833 75 236.5 75c96 0 170.333 -21.667 223 -65s79 -104.333 79 -183c0 -54.667 -17.833 -102.834 -53.5 -144.501s-95.167 -96.834 -178.5 -165.501l-109 -93l2 -6h346v-155z" />
    <glyph glyph-name="threesuperior" unicode="&#xb3;" horiz-adv-x="856" 
d="M408 1139c41.333 0 72.001 8.16797 92.001 24.501s30 39.833 30 70.5c0 25.333 -9.5 46.5 -28.5 63.5s-46.833 25.5 -83.5 25.5c-34 0 -60.5 -7.33301 -79.5 -22s-28.5 -32.334 -28.5 -53.001h-200l-2 6c-4 67.333 23.333 121.5 82 162.5s132.667 61.5 222 61.5
c101.333 0 181.5 -19.833 240.5 -59.5s88.5 -96.167 88.5 -169.5c0 -36.667 -11.833 -70.167 -35.5 -100.5s-55.834 -53.833 -96.501 -70.5c46.667 -16 82.5 -39.833 107.5 -71.5s37.5 -70.167 37.5 -115.5c0 -74.667 -29.833 -132.667 -89.5 -174s-140.167 -62 -241.5 -62
c-97.333 0 -177.333 20.833 -240 62.5s-92 100.167 -88 175.5l2 6h201c0 -28 10.5 -49.833 31.5 -65.5s51.5 -23.5 91.5 -23.5c37.333 0 67.333 8 90 24s34 38.667 34 68c0 33.333 -11.667 59 -35 77s-57.333 27 -102 27h-111v133h111z" />
    <glyph glyph-name="acute" unicode="&#xb4;" horiz-adv-x="727" 
d="M314 1518h325l2 -6l-277 -260h-249z" />
    <glyph glyph-name="mu" unicode="&#xb5;" horiz-adv-x="1264" 
d="M430 1082l0.000976562 -620c0 -99.333 15 -166.833 45 -202.5s75 -53.5 135 -53.5c50 0 91.667 9.16699 125 27.5s59.333 44.833 78 79.5v769h292v-1082h-272l-6 67c-29.333 -28.667 -62.833 -50.5 -100.5 -65.5s-78.834 -22.5 -123.501 -22.5
c-34 0 -65.5 3.5 -94.5 10.5s-55.167 18.167 -78.5 33.5v-439h-291v1498h291z" />
    <glyph glyph-name="paragraph" unicode="&#xb6;" horiz-adv-x="1078" 
d="M636 0v520.001h-83c-155.333 0 -276.166 43.167 -362.499 129.5s-129.5 199.166 -129.5 338.499c0 138 43.167 250.5 129.5 337.5s207.166 130.5 362.499 130.5h375v-1456h-292z" />
    <glyph glyph-name="periodcentered" unicode="&#xb7;" horiz-adv-x="619" 
d="M451 568h-292v260h292v-260z" />
    <glyph glyph-name="cedilla" unicode="&#xb8;" horiz-adv-x="549" 
d="M347 6l-11.001 -57.002c42.667 -7.33301 78.334 -24.666 107.001 -51.999s43 -67.666 43 -120.999c0 -71.333 -30.5 -128.333 -91.5 -171s-147.5 -64 -259.5 -64l-7 161c34 0 61 6.83301 81 20.5s30 34.5 30 62.5c0 27.333 -10.667 46.5 -32 57.5s-58 18.167 -110 21.5
l31 142h219z" />
    <glyph glyph-name="onesuperior" unicode="&#xb9;" horiz-adv-x="573" 
d="M416 665h-211v630h-127v159l338 23v-812z" />
    <glyph glyph-name="ordmasculine" unicode="&#xba;" horiz-adv-x="937" 
d="M118 1142c0 98.667 31.334 179.167 94.001 241.5s146.667 93.5 252 93.5s189.5 -31.167 252.5 -93.5s94.5 -142.833 94.5 -241.5v-117c0 -99.333 -31.333 -179.833 -94 -241.5s-146.334 -92.5 -251.001 -92.5c-106 0 -190.5 30.833 -253.5 92.5
s-94.5 142.167 -94.5 241.5v117zM293.001 1025c0 -56.667 14.667 -102.167 44 -136.5s72.333 -51.5 129 -51.5c54.667 0 96.667 17.167 126 51.5s44 79.833 44 136.5v117c0 55.333 -14.833 100.333 -44.5 135s-72.167 52 -127.5 52c-56 0 -98.5 -17.333 -127.5 -52
s-43.5 -79.667 -43.5 -135v-117z" />
    <glyph glyph-name="guillemotright" unicode="&#xbb;" horiz-adv-x="1025" 
d="M341 550l-239 400h188l280 -390v-19l-280 -390h-188zM687 550l-239 400h188l280 -390v-19l-280 -390h-188z" />
    <glyph glyph-name="onequarter" unicode="&#xbc;" horiz-adv-x="1493" 
d="M505 664h-211v630h-127v159l338 23v-812zM451 117l-142 75l711 1138l142 -75zM1397 296h101v-157h-101v-139h-211v139h-410l-14 126l424 536h211v-505zM978 296h208v257l-6 2l-13 -20z" />
    <glyph glyph-name="onehalf" unicode="&#xbd;" horiz-adv-x="1553" 
d="M464 117l-142 75l711 1138l142 -75zM505 664h-211v630h-127v159l338 23v-812zM1547 0l-621.998 0.00390625v155l309 252c40 33.333 65.833 61.166 77.5 83.499s17.5 47.166 17.5 74.499c0 26 -7.83301 47.833 -23.5 65.5s-39.834 26.5 -72.501 26.5
c-36.667 0 -64.334 -10 -83.001 -30s-28 -45.667 -28 -77h-201l-2 6c-4 70.667 23.5 131 82.5 181s137.833 75 236.5 75c96 0 170.333 -21.667 223 -65s79 -104.333 79 -183c0 -54.667 -17.833 -102.834 -53.5 -144.501s-95.167 -96.834 -178.5 -165.501l-109 -93l2 -6h346
v-155z" />
    <glyph glyph-name="threequarters" unicode="&#xbe;" horiz-adv-x="1717" 
d="M634 117l-142 75l711 1138l142 -75zM1586 296h101v-157h-101v-139h-211v139h-410l-14 126l424 536h211v-505zM1167 296h208v257l-6 2l-13 -20zM424 1140c41.333 0 72.001 8.16797 92.001 24.501s30 39.833 30 70.5c0 25.333 -9.5 46.5 -28.5 63.5
s-46.833 25.5 -83.5 25.5c-34 0 -60.5 -7.33301 -79.5 -22s-28.5 -32.334 -28.5 -53.001h-200l-2 6c-4 67.333 23.333 121.5 82 162.5s132.667 61.5 222 61.5c101.333 0 181.5 -19.833 240.5 -59.5s88.5 -96.167 88.5 -169.5c0 -36.667 -11.833 -70.167 -35.5 -100.5
s-55.834 -53.833 -96.501 -70.5c46.667 -16 82.5 -39.833 107.5 -71.5s37.5 -70.167 37.5 -115.5c0 -74.667 -29.833 -132.667 -89.5 -174s-140.167 -62 -241.5 -62c-97.333 0 -177.333 20.833 -240 62.5s-92 100.167 -88 175.5l2 6h201c0 -28 10.5 -49.833 31.5 -65.5
s51.5 -23.5 91.5 -23.5c37.333 0 67.333 8 90 24s34 38.667 34 68c0 33.333 -11.667 59 -35 77s-57.333 27 -102 27h-111v133h111z" />
    <glyph glyph-name="questiondown" unicode="&#xbf;" horiz-adv-x="1037" 
d="M726 668c-1.33301 -94 -15.499 -162.835 -42.499 -206.502s-80.167 -96.167 -159.5 -157.5c-48 -38.667 -86.167 -80.5 -114.5 -125.5s-42.5 -94.833 -42.5 -149.5c0 -60 16.167 -107.333 48.5 -142s78.833 -52 139.5 -52c48.667 0 90 14.333 124 43
s52 71.334 54 128.001h283l2 -6c1.33301 -127.333 -41.167 -224.833 -127.5 -292.5s-198.166 -101.5 -335.499 -101.5c-150.667 0 -268.334 37.667 -353.001 113s-127 178 -127 308c0 83.333 24.667 161 74 233s111.666 133 186.999 183c40 30 66.5 60.833 79.5 92.5
s19.5 75.834 19.5 132.501h291zM433.001 1082h294v-251h-294v251z" />
    <glyph glyph-name="Agrave" unicode="&#xc0;" horiz-adv-x="1303" 
d="M893 314h-472l-98 -314h-305l491 1456h299l489 -1456h-305zM493 543h329l-161 513h-6zM793 1600h-251l-272 260l2 6h325z" />
    <glyph glyph-name="Aacute" unicode="&#xc1;" horiz-adv-x="1303" 
d="M893 314h-472l-98 -314h-305l491 1456h299l489 -1456h-305zM493 543h329l-161 513h-6zM711 1866h325l2 -6l-277 -260h-249z" />
    <glyph glyph-name="Acircumflex" unicode="&#xc2;" horiz-adv-x="1303" 
d="M893 314h-472l-98 -314h-305l491 1456h299l489 -1456h-305zM493 543h329l-161 513h-6zM1025 1615v-23h-232l-140 133l-139 -133h-227v26l282 240h169z" />
    <glyph glyph-name="Atilde" unicode="&#xc3;" horiz-adv-x="1303" 
d="M893 314h-472l-98 -314h-305l491 1456h299l489 -1456h-305zM493 543h329l-161 513h-6zM1027 1856c0 -64 -19.832 -118.499 -59.499 -163.499s-89.834 -67.5 -150.501 -67.5c-46.667 0 -99.5 14.5 -158.5 43.5s-105.833 43.5 -140.5 43.5c-24 0 -44 -10.833 -60 -32.5
s-24 -47.5 -24 -77.5l-156 42c0 62.667 19.833 117.167 59.5 163.5s89.5 69.5 149.5 69.5c37.333 0 88 -14.5 152 -43.5s113.333 -43.5 148 -43.5c22.667 0 42.667 10.667 60 32s26 47.666 26 78.999z" />
    <glyph glyph-name="Adieresis" unicode="&#xc4;" horiz-adv-x="1303" 
d="M893 314h-472l-98 -314h-305l491 1456h299l489 -1456h-305zM493 543h329l-161 513h-6zM1036 1601h-266v204h266v-204zM536 1601h-266v204h266v-204z" />
    <glyph glyph-name="Aring" unicode="&#xc5;" horiz-adv-x="1303" 
d="M893 314h-472l-98 -314h-305l491 1456h299l489 -1456h-305zM493 543h329l-161 513h-6zM466 1746c0 48.667 18 89.5 54 122.5s80.667 49.5 134 49.5c52 0 95.833 -16.5 131.5 -49.5s53.5 -73.833 53.5 -122.5c0 -49.333 -17.833 -89.833 -53.5 -121.5
s-79.5 -47.5 -131.5 -47.5c-53.333 0 -98 15.833 -134 47.5s-54 72.167 -54 121.5zM582 1746c0 -20.667 6.83301 -37.832 20.5 -51.499s30.834 -20.5 51.501 -20.5c20 0 36.5 6.66699 49.5 20s19.5 30.666 19.5 51.999s-6.5 38.833 -19.5 52.5s-29.5 20.5 -49.5 20.5
c-20.667 0 -37.834 -6.83301 -51.501 -20.5s-20.5 -31.167 -20.5 -52.5z" />
    <glyph glyph-name="AE" unicode="&#xc6;" horiz-adv-x="1945" 
d="M1874 0h-898l-14 335h-440l-168 -335h-342l784 1456h1016v-228h-596l16 -366h499v-227h-490l17 -408h616v-227zM642 575h310l-23 559l-6 1z" />
    <glyph glyph-name="Ccedilla" unicode="&#xc7;" horiz-adv-x="1303" 
d="M1226 482l1.99805 -6.00195c2.66699 -155.333 -44.666 -277 -141.999 -365s-231.666 -132 -402.999 -132c-174.667 0 -315.667 56.167 -423 168.5s-161 257.5 -161 435.5v289c0 177.333 52.333 322.5 157 435.5s242 169.5 412 169.5c177.333 0 316 -43.333 416 -130
s148.667 -208.667 146 -366l-2 -6h-284c0 93.333 -22.5 162.833 -67.5 208.5s-114.5 68.5 -208.5 68.5c-87.333 0 -155.5 -35.167 -204.5 -105.5s-73.5 -161.166 -73.5 -272.499v-291c0 -112 25.833 -203.333 77.5 -274s123.5 -106 215.5 -106
c87.333 0 152.5 22.833 195.5 68.5s64.5 115.834 64.5 210.501h283zM779.998 3.99805l-11.001 -57.002c42.667 -7.33301 78.334 -24.666 107.001 -51.999s43 -67.666 43 -120.999c0 -71.333 -30.5 -128.333 -91.5 -171s-147.5 -64 -259.5 -64l-7 161
c34 0 61 6.83301 81 20.5s30 34.5 30 62.5c0 27.333 -10.667 46.5 -32 57.5s-58 18.167 -110 21.5l31 142h219z" />
    <glyph glyph-name="Egrave" unicode="&#xc8;" horiz-adv-x="1139" 
d="M966 640h-540v-416h642v-224h-934v1456h932v-225h-640v-366h540v-225zM741 1600h-251l-272 260l2 6h325z" />
    <glyph glyph-name="Eacute" unicode="&#xc9;" horiz-adv-x="1139" 
d="M966 640h-540v-416h642v-224h-934v1456h932v-225h-640v-366h540v-225zM659 1866h325l2 -6l-277 -260h-249z" />
    <glyph glyph-name="Ecircumflex" unicode="&#xca;" horiz-adv-x="1139" 
d="M966 640h-540v-416h642v-224h-934v1456h932v-225h-640v-366h540v-225zM973 1615v-23h-232l-140 133l-139 -133h-227v26l282 240h169z" />
    <glyph glyph-name="Edieresis" unicode="&#xcb;" horiz-adv-x="1139" 
d="M966 640h-540v-416h642v-224h-934v1456h932v-225h-640v-366h540v-225zM984 1601h-266v204h266v-204zM484 1601h-266v204h266v-204z" />
    <glyph glyph-name="Igrave" unicode="&#xcc;" horiz-adv-x="601" 
d="M446 0h-292v1456h292v-1456zM441 1600h-251l-272 260l2 6h325z" />
    <glyph glyph-name="Iacute" unicode="&#xcd;" horiz-adv-x="601" 
d="M446 0h-292v1456h292v-1456zM358 1866h325l2 -6l-277 -260h-249z" />
    <glyph glyph-name="Icircumflex" unicode="&#xce;" horiz-adv-x="601" 
d="M446 0h-292v1456h292v-1456zM673 1615v-23h-232l-140 133l-139 -133h-227v26l282 240h169z" />
    <glyph glyph-name="Idieresis" unicode="&#xcf;" horiz-adv-x="601" 
d="M446 0h-292v1456h292v-1456zM684 1601h-266v204h266v-204zM184 1601h-266v204h266v-204z" />
    <glyph glyph-name="Eth" unicode="&#xd0;" horiz-adv-x="1355" 
d="M134 0v652h-136v181h136v623h508c178 0 324.667 -56.833 440 -170.5s173 -259.5 173 -437.5v-241c0 -178.667 -57.667 -324.5 -173 -437.5s-262 -169.5 -440 -169.5h-508zM669 652l-243 0.000976562v-428h216c96 0 173.333 35.833 232 107.5s88 163.5 88 275.5v243
c0 111.333 -29.333 202.666 -88 273.999s-136 107 -232 107h-216v-398h243v-181z" />
    <glyph glyph-name="Ntilde" unicode="&#xd1;" horiz-adv-x="1445" 
d="M1311 0h-292l-587 982l-6 -1v-981h-292v1456h292l587 -981l6 1v980h292v-1456zM1096 1856c0 -64 -19.832 -118.499 -59.499 -163.499s-89.834 -67.5 -150.501 -67.5c-46.667 0 -99.5 14.5 -158.5 43.5s-105.833 43.5 -140.5 43.5c-24 0 -44 -10.833 -60 -32.5
s-24 -47.5 -24 -77.5l-156 42c0 62.667 19.833 117.167 59.5 163.5s89.5 69.5 149.5 69.5c37.333 0 88 -14.5 152 -43.5s113.333 -43.5 148 -43.5c22.667 0 42.667 10.667 60 32s26 47.666 26 78.999z" />
    <glyph glyph-name="Ograve" unicode="&#xd2;" horiz-adv-x="1409" 
d="M1312 597c0 -179.333 -56.332 -327.168 -168.999 -443.501s-259.334 -174.5 -440.001 -174.5c-180 0 -326 58.333 -438 175s-168 264.334 -168 443.001v262c0 178 55.833 325.5 167.5 442.5s257.167 175.5 436.5 175.5c180.667 0 327.667 -58.5 441 -175.5
s170 -264.5 170 -442.5v-262zM1021 860.998c0 113.333 -28.332 206.333 -84.999 279s-135 109 -235 109c-98.667 0 -175.5 -36.333 -230.5 -109s-82.5 -165.667 -82.5 -279v-264c0 -115.333 27.667 -209.333 83 -282s132.666 -109 231.999 -109c100 0 178 36.333 234 109
s84 166.667 84 282v264zM845.002 1621h-251l-272 260l2 6h325z" />
    <glyph glyph-name="Oacute" unicode="&#xd3;" horiz-adv-x="1409" 
d="M1312 597c0 -179.333 -56.332 -327.168 -168.999 -443.501s-259.334 -174.5 -440.001 -174.5c-180 0 -326 58.333 -438 175s-168 264.334 -168 443.001v262c0 178 55.833 325.5 167.5 442.5s257.167 175.5 436.5 175.5c180.667 0 327.667 -58.5 441 -175.5
s170 -264.5 170 -442.5v-262zM1021 860.998c0 113.333 -28.332 206.333 -84.999 279s-135 109 -235 109c-98.667 0 -175.5 -36.333 -230.5 -109s-82.5 -165.667 -82.5 -279v-264c0 -115.333 27.667 -209.333 83 -282s132.666 -109 231.999 -109c100 0 178 36.333 234 109
s84 166.667 84 282v264zM763.002 1887h325l2 -6l-277 -260h-249z" />
    <glyph glyph-name="Ocircumflex" unicode="&#xd4;" horiz-adv-x="1409" 
d="M1312 597c0 -179.333 -56.332 -327.168 -168.999 -443.501s-259.334 -174.5 -440.001 -174.5c-180 0 -326 58.333 -438 175s-168 264.334 -168 443.001v262c0 178 55.833 325.5 167.5 442.5s257.167 175.5 436.5 175.5c180.667 0 327.667 -58.5 441 -175.5
s170 -264.5 170 -442.5v-262zM1021 860.998c0 113.333 -28.332 206.333 -84.999 279s-135 109 -235 109c-98.667 0 -175.5 -36.333 -230.5 -109s-82.5 -165.667 -82.5 -279v-264c0 -115.333 27.667 -209.333 83 -282s132.666 -109 231.999 -109c100 0 178 36.333 234 109
s84 166.667 84 282v264zM1077 1636v-23h-232l-140 133l-139 -133h-227v26l282 240h169z" />
    <glyph glyph-name="Otilde" unicode="&#xd5;" horiz-adv-x="1409" 
d="M1312 597c0 -179.333 -56.332 -327.168 -168.999 -443.501s-259.334 -174.5 -440.001 -174.5c-180 0 -326 58.333 -438 175s-168 264.334 -168 443.001v262c0 178 55.833 325.5 167.5 442.5s257.167 175.5 436.5 175.5c180.667 0 327.667 -58.5 441 -175.5
s170 -264.5 170 -442.5v-262zM1021 860.998c0 113.333 -28.332 206.333 -84.999 279s-135 109 -235 109c-98.667 0 -175.5 -36.333 -230.5 -109s-82.5 -165.667 -82.5 -279v-264c0 -115.333 27.667 -209.333 83 -282s132.666 -109 231.999 -109c100 0 178 36.333 234 109
s84 166.667 84 282v264zM1079 1877c0 -64 -19.832 -118.499 -59.499 -163.499s-89.834 -67.5 -150.501 -67.5c-46.667 0 -99.5 14.5 -158.5 43.5s-105.833 43.5 -140.5 43.5c-24 0 -44 -10.833 -60 -32.5s-24 -47.5 -24 -77.5l-156 42c0 62.667 19.833 117.167 59.5 163.5
s89.5 69.5 149.5 69.5c37.333 0 88 -14.5 152 -43.5s113.333 -43.5 148 -43.5c22.667 0 42.667 10.667 60 32s26 47.666 26 78.999z" />
    <glyph glyph-name="Odieresis" unicode="&#xd6;" horiz-adv-x="1409" 
d="M1312 597c0 -179.333 -56.332 -327.168 -168.999 -443.501s-259.334 -174.5 -440.001 -174.5c-180 0 -326 58.333 -438 175s-168 264.334 -168 443.001v262c0 178 55.833 325.5 167.5 442.5s257.167 175.5 436.5 175.5c180.667 0 327.667 -58.5 441 -175.5
s170 -264.5 170 -442.5v-262zM1021 860.998c0 113.333 -28.332 206.333 -84.999 279s-135 109 -235 109c-98.667 0 -175.5 -36.333 -230.5 -109s-82.5 -165.667 -82.5 -279v-264c0 -115.333 27.667 -209.333 83 -282s132.666 -109 231.999 -109c100 0 178 36.333 234 109
s84 166.667 84 282v264zM1088 1622h-266v204h266v-204zM588.002 1622h-266v204h266v-204z" />
    <glyph glyph-name="multiply" unicode="&#xd7;" horiz-adv-x="1088" 
d="M64 371l309 315l-309 315l172 164l303 -310l304 310l172 -164l-309 -315l309 -315l-172 -164l-304 309l-303 -309z" />
    <glyph glyph-name="Oslash" unicode="&#xd8;" horiz-adv-x="1410" 
d="M1312 597c0 -179.333 -56.333 -327.167 -169 -443.5s-259.334 -174.5 -440.001 -174.5c-53.333 0 -104.166 5.5 -152.499 16.5s-93.833 27.5 -136.5 49.5l-81 -140h-143l121 207c-68.667 55.333 -121.5 125 -158.5 209s-55.5 176 -55.5 276v262
c0 178 55.833 325.5 167.5 442.5s257.167 175.5 436.5 175.5c65.333 0 127.333 -8.5 186 -25.5s112.667 -41.5 162 -73.5l81 140h143l-128 -220c53.333 -56 94.5 -121.5 123.5 -196.5s43.5 -155.833 43.5 -242.5v-262zM388 596.999c0 -48.667 5 -93.668 15 -135.001
s24.667 -76.666 44 -105.999l6 -1l467 803c-27.333 28.667 -59.5 51 -96.5 67s-77.833 24 -122.5 24c-98.667 0 -175.5 -36.333 -230.5 -109s-82.5 -165.667 -82.5 -279v-264zM1021 860.998c0 31.333 -2.5 61.332 -7.5 89.999s-11.833 54.334 -20.5 77.001l-5 1l-452 -775
c22.667 -16 48 -28 76 -36s58.333 -12 91 -12c100 0 178 36.333 234 109s84 166.667 84 282v264z" />
    <glyph glyph-name="Ugrave" unicode="&#xd9;" horiz-adv-x="1407" 
d="M1288 1456l0.000976562 -953c0 -164 -54.333 -292.333 -163 -385s-249.667 -139 -423 -139c-172.667 0 -312.834 46.333 -420.501 139s-161.5 221 -161.5 385v953h293v-953c0 -97.333 26 -171.666 78 -222.999s122.333 -77 211 -77c90 0 161.333 25.667 214 77
s79 125.666 79 222.999v953h293zM844.001 1600h-251l-272 260l2 6h325z" />
    <glyph glyph-name="Uacute" unicode="&#xda;" horiz-adv-x="1407" 
d="M1288 1456l0.000976562 -953c0 -164 -54.333 -292.333 -163 -385s-249.667 -139 -423 -139c-172.667 0 -312.834 46.333 -420.501 139s-161.5 221 -161.5 385v953h293v-953c0 -97.333 26 -171.666 78 -222.999s122.333 -77 211 -77c90 0 161.333 25.667 214 77
s79 125.666 79 222.999v953h293zM762.001 1866h325l2 -6l-277 -260h-249z" />
    <glyph glyph-name="Ucircumflex" unicode="&#xdb;" horiz-adv-x="1407" 
d="M1288 1456l0.000976562 -953c0 -164 -54.333 -292.333 -163 -385s-249.667 -139 -423 -139c-172.667 0 -312.834 46.333 -420.501 139s-161.5 221 -161.5 385v953h293v-953c0 -97.333 26 -171.666 78 -222.999s122.333 -77 211 -77c90 0 161.333 25.667 214 77
s79 125.666 79 222.999v953h293zM1076 1615v-23h-232l-140 133l-139 -133h-227v26l282 240h169z" />
    <glyph glyph-name="Udieresis" unicode="&#xdc;" horiz-adv-x="1407" 
d="M1288 1456l0.000976562 -953c0 -164 -54.333 -292.333 -163 -385s-249.667 -139 -423 -139c-172.667 0 -312.834 46.333 -420.501 139s-161.5 221 -161.5 385v953h293v-953c0 -97.333 26 -171.666 78 -222.999s122.333 -77 211 -77c90 0 161.333 25.667 214 77
s79 125.666 79 222.999v953h293zM1087 1601h-266v204h266v-204zM587.001 1601h-266v204h266v-204z" />
    <glyph glyph-name="Yacute" unicode="&#xdd;" horiz-adv-x="1303" 
d="M648 785h6l318 671h320l-499 -944v-512h-292v527l-491 929h320zM715 1866h325l2 -6l-277 -260h-249z" />
    <glyph glyph-name="Thorn" unicode="&#xde;" horiz-adv-x="1247" 
d="M424 1456v-270h221c169.333 0 301.333 -41.333 396 -124s142 -190.667 142 -324c0 -134 -47.333 -242.333 -142 -325s-226.667 -124 -396 -124h-221v-289h-292v1456h292zM424 961v-446.998h221c82 0 143.5 21.167 184.5 63.5s61.5 95.166 61.5 158.499
s-20.5 116.666 -61.5 159.999s-102.5 65 -184.5 65h-221z" />
    <glyph glyph-name="germandbls" unicode="&#xdf;" horiz-adv-x="1294" 
d="M426 0l-290.999 -0.00195312v1101c0 150.667 43 267 129 349s203.333 123 352 123c120 0 219.667 -31.833 299 -95.5s119 -154.167 119 -271.5c0 -72 -17.833 -140.5 -53.5 -205.5s-53.5 -120.167 -53.5 -165.5c0 -37.333 50 -103.166 150 -197.499
s150 -188.166 150 -281.499c0 -126 -38.333 -220.333 -115 -283s-187.334 -94 -332.001 -94c-54 0 -107.5 5 -160.5 15s-92.5 23.667 -118.5 41l55 223c26 -14.667 58 -27.5 96 -38.5s78.667 -16.5 122 -16.5c50.667 0 90.334 12.667 119.001 38s43 59.666 43 102.999
c0 47.333 -50 115.833 -150 205.5s-150 181.834 -150 276.501c0 60 18.167 123.333 54.5 190s54.5 125 54.5 175c0 45.333 -15 83 -45 113s-64.333 45 -103 45c-50.667 0 -91.834 -22.5 -123.501 -67.5s-47.5 -106.5 -47.5 -184.5v-1097z" />
    <glyph glyph-name="agrave" unicode="&#xe0;" horiz-adv-x="1100" 
d="M750 0c-10.667 24.667 -19.835 50.6699 -27.502 78.0029s-13.167 55.333 -16.5 84c-30 -52.667 -69.667 -96.334 -119 -131.001s-108 -52 -176 -52c-113.333 0 -200.666 29.167 -261.999 87.5s-92 137.833 -92 238.5c0 106 40.833 188.167 122.5 246.5
s200.834 87.5 357.501 87.5h164v86c0 52 -13.667 92.333 -41 121s-68 43 -122 43c-47.333 0 -83.833 -11.5 -109.5 -34.5s-38.5 -54.5 -38.5 -94.5h-281l-2 6c-4.66699 91.333 35.166 170.166 119.499 236.499s194.5 99.5 330.5 99.5c130 0 235.167 -32.667 315.5 -98
s120.5 -159 120.5 -281v-447c0 -50.667 3.83301 -98.334 11.5 -143.001s19.834 -89 36.501 -133h-291zM482.999 195.003c50.667 0 96 12.6699 136 38.0029s67.333 54.666 82 87.999v153h-164c-62 0 -108.833 -15.333 -140.5 -46s-47.5 -68.334 -47.5 -113.001
c0 -36.667 11.833 -65.834 35.5 -87.501s56.5 -32.5 98.5 -32.5zM685.999 1278.01h-251l-272 260l2 6h325z" />
    <glyph glyph-name="aacute" unicode="&#xe1;" horiz-adv-x="1100" 
d="M750 0c-10.667 24.667 -19.835 50.6699 -27.502 78.0029s-13.167 55.333 -16.5 84c-30 -52.667 -69.667 -96.334 -119 -131.001s-108 -52 -176 -52c-113.333 0 -200.666 29.167 -261.999 87.5s-92 137.833 -92 238.5c0 106 40.833 188.167 122.5 246.5
s200.834 87.5 357.501 87.5h164v86c0 52 -13.667 92.333 -41 121s-68 43 -122 43c-47.333 0 -83.833 -11.5 -109.5 -34.5s-38.5 -54.5 -38.5 -94.5h-281l-2 6c-4.66699 91.333 35.166 170.166 119.499 236.499s194.5 99.5 330.5 99.5c130 0 235.167 -32.667 315.5 -98
s120.5 -159 120.5 -281v-447c0 -50.667 3.83301 -98.334 11.5 -143.001s19.834 -89 36.501 -133h-291zM482.999 195.003c50.667 0 96 12.6699 136 38.0029s67.333 54.666 82 87.999v153h-164c-62 0 -108.833 -15.333 -140.5 -46s-47.5 -68.334 -47.5 -113.001
c0 -36.667 11.833 -65.834 35.5 -87.501s56.5 -32.5 98.5 -32.5zM603.999 1544.01h325l2 -6l-277 -260h-249z" />
    <glyph glyph-name="acircumflex" unicode="&#xe2;" horiz-adv-x="1100" 
d="M750 0c-10.667 24.667 -19.835 50.6699 -27.502 78.0029s-13.167 55.333 -16.5 84c-30 -52.667 -69.667 -96.334 -119 -131.001s-108 -52 -176 -52c-113.333 0 -200.666 29.167 -261.999 87.5s-92 137.833 -92 238.5c0 106 40.833 188.167 122.5 246.5
s200.834 87.5 357.501 87.5h164v86c0 52 -13.667 92.333 -41 121s-68 43 -122 43c-47.333 0 -83.833 -11.5 -109.5 -34.5s-38.5 -54.5 -38.5 -94.5h-281l-2 6c-4.66699 91.333 35.166 170.166 119.499 236.499s194.5 99.5 330.5 99.5c130 0 235.167 -32.667 315.5 -98
s120.5 -159 120.5 -281v-447c0 -50.667 3.83301 -98.334 11.5 -143.001s19.834 -89 36.501 -133h-291zM482.999 195.003c50.667 0 96 12.6699 136 38.0029s67.333 54.666 82 87.999v153h-164c-62 0 -108.833 -15.333 -140.5 -46s-47.5 -68.334 -47.5 -113.001
c0 -36.667 11.833 -65.834 35.5 -87.501s56.5 -32.5 98.5 -32.5zM917.999 1293.01v-23h-232l-140 133l-139 -133h-227v26l282 240h169z" />
    <glyph glyph-name="atilde" unicode="&#xe3;" horiz-adv-x="1100" 
d="M750 0c-10.667 24.667 -19.835 50.6699 -27.502 78.0029s-13.167 55.333 -16.5 84c-30 -52.667 -69.667 -96.334 -119 -131.001s-108 -52 -176 -52c-113.333 0 -200.666 29.167 -261.999 87.5s-92 137.833 -92 238.5c0 106 40.833 188.167 122.5 246.5
s200.834 87.5 357.501 87.5h164v86c0 52 -13.667 92.333 -41 121s-68 43 -122 43c-47.333 0 -83.833 -11.5 -109.5 -34.5s-38.5 -54.5 -38.5 -94.5h-281l-2 6c-4.66699 91.333 35.166 170.166 119.499 236.499s194.5 99.5 330.5 99.5c130 0 235.167 -32.667 315.5 -98
s120.5 -159 120.5 -281v-447c0 -50.667 3.83301 -98.334 11.5 -143.001s19.834 -89 36.501 -133h-291zM482.999 195.003c50.667 0 96 12.6699 136 38.0029s67.333 54.666 82 87.999v153h-164c-62 0 -108.833 -15.333 -140.5 -46s-47.5 -68.334 -47.5 -113.001
c0 -36.667 11.833 -65.834 35.5 -87.501s56.5 -32.5 98.5 -32.5zM919.999 1534.01c0 -64 -19.832 -118.499 -59.499 -163.499s-89.834 -67.5 -150.501 -67.5c-46.667 0 -99.5 14.5 -158.5 43.5s-105.833 43.5 -140.5 43.5c-24 0 -44 -10.833 -60 -32.5s-24 -47.5 -24 -77.5
l-156 42c0 62.667 19.833 117.167 59.5 163.5s89.5 69.5 149.5 69.5c37.333 0 88 -14.5 152 -43.5s113.333 -43.5 148 -43.5c22.667 0 42.667 10.667 60 32s26 47.666 26 78.999z" />
    <glyph glyph-name="adieresis" unicode="&#xe4;" horiz-adv-x="1100" 
d="M750 0c-10.667 24.667 -19.835 50.6699 -27.502 78.0029s-13.167 55.333 -16.5 84c-30 -52.667 -69.667 -96.334 -119 -131.001s-108 -52 -176 -52c-113.333 0 -200.666 29.167 -261.999 87.5s-92 137.833 -92 238.5c0 106 40.833 188.167 122.5 246.5
s200.834 87.5 357.501 87.5h164v86c0 52 -13.667 92.333 -41 121s-68 43 -122 43c-47.333 0 -83.833 -11.5 -109.5 -34.5s-38.5 -54.5 -38.5 -94.5h-281l-2 6c-4.66699 91.333 35.166 170.166 119.499 236.499s194.5 99.5 330.5 99.5c130 0 235.167 -32.667 315.5 -98
s120.5 -159 120.5 -281v-447c0 -50.667 3.83301 -98.334 11.5 -143.001s19.834 -89 36.501 -133h-291zM482.999 195.003c50.667 0 96 12.6699 136 38.0029s67.333 54.666 82 87.999v153h-164c-62 0 -108.833 -15.333 -140.5 -46s-47.5 -68.334 -47.5 -113.001
c0 -36.667 11.833 -65.834 35.5 -87.501s56.5 -32.5 98.5 -32.5zM928.999 1279.01h-266v204h266v-204zM428.999 1279.01h-266v204h266v-204z" />
    <glyph glyph-name="aring" unicode="&#xe5;" horiz-adv-x="1100" 
d="M750 0c-10.667 24.667 -19.835 50.6699 -27.502 78.0029s-13.167 55.333 -16.5 84c-30 -52.667 -69.667 -96.334 -119 -131.001s-108 -52 -176 -52c-113.333 0 -200.666 29.167 -261.999 87.5s-92 137.833 -92 238.5c0 106 40.833 188.167 122.5 246.5
s200.834 87.5 357.501 87.5h164v86c0 52 -13.667 92.333 -41 121s-68 43 -122 43c-47.333 0 -83.833 -11.5 -109.5 -34.5s-38.5 -54.5 -38.5 -94.5h-281l-2 6c-4.66699 91.333 35.166 170.166 119.499 236.499s194.5 99.5 330.5 99.5c130 0 235.167 -32.667 315.5 -98
s120.5 -159 120.5 -281v-447c0 -50.667 3.83301 -98.334 11.5 -143.001s19.834 -89 36.501 -133h-291zM482.999 195.003c50.667 0 96 12.6699 136 38.0029s67.333 54.666 82 87.999v153h-164c-62 0 -108.833 -15.333 -140.5 -46s-47.5 -68.334 -47.5 -113.001
c0 -36.667 11.833 -65.834 35.5 -87.501s56.5 -32.5 98.5 -32.5zM358.999 1424.01c0 48.667 18 89.5 54 122.5s80.667 49.5 134 49.5c52 0 95.833 -16.5 131.5 -49.5s53.5 -73.833 53.5 -122.5c0 -49.333 -17.833 -89.833 -53.5 -121.5s-79.5 -47.5 -131.5 -47.5
c-53.333 0 -98 15.833 -134 47.5s-54 72.167 -54 121.5zM474.999 1424.01c0 -20.667 6.83301 -37.832 20.5 -51.499s30.834 -20.5 51.501 -20.5c20 0 36.5 6.66699 49.5 20s19.5 30.666 19.5 51.999s-6.5 38.833 -19.5 52.5s-29.5 20.5 -49.5 20.5
c-20.667 0 -37.834 -6.83301 -51.501 -20.5s-20.5 -31.167 -20.5 -52.5z" />
    <glyph glyph-name="ae" unicode="&#xe6;" horiz-adv-x="1771" 
d="M1280 -21c-86 0 -162.331 13.501 -228.998 40.501s-122.334 66.167 -167.001 117.5c-40 -46 -93.833 -83.833 -161.5 -113.5s-147.834 -44.5 -240.501 -44.5c-128 0 -226.833 30.167 -296.5 90.5s-104.5 142.833 -104.5 247.5c0 106 42.167 187.667 126.5 245
s207.5 86 369.5 86h181v59c0 52.667 -13.5 94.167 -40.5 124.5s-65.167 45.5 -114.5 45.5c-54 0 -96.5 -12.5 -127.5 -37.5s-46.5 -56.167 -46.5 -93.5l-282 18l-2 6c-4 96 36.5 175.333 121.5 238s198.167 94 339.5 94c68 0 130 -9.16699 186 -27.5
s103.667 -44.833 143 -79.5c40.667 34.667 88 61.167 142 79.5s114 27.5 180 27.5c141.333 0 252.5 -44 333.5 -132s121.5 -207.333 121.5 -358v-158h-651l-2 -6c2.66699 -74 24.667 -133.333 66 -178s103.333 -67 186 -67c61.333 0 112.5 6.66699 153.5 20
s88.167 33.666 141.5 60.999l77 -184c-41.333 -32 -97.833 -60.167 -169.5 -84.5s-149.5 -36.5 -233.5 -36.5zM537.002 185.001c38.667 0 79 10.167 121 30.5s75.333 44.5 100 72.5v176h-179c-64.667 0 -115.334 -14.833 -152.001 -44.5s-55 -65.167 -55 -106.5
c0 -39.333 13.833 -70.5 41.5 -93.5s68.834 -34.5 123.501 -34.5zM1257 877.001c-63.333 0 -110.668 -20.5 -142.001 -61.5s-49.333 -96.5 -54 -166.5l2 -5h362v28c0 62.667 -14.167 112.5 -42.5 149.5s-70.166 55.5 -125.499 55.5z" />
    <glyph glyph-name="ccedilla" unicode="&#xe7;" horiz-adv-x="1056" 
d="M564 203c50.667 0 91 15.168 121 45.501s45 70.833 45 121.5h266l2 -6c2.66699 -109.333 -38 -200.833 -122 -274.5s-188 -110.5 -312 -110.5c-160 0 -283.667 51.167 -371 153.5s-131 233.166 -131 392.499v30c0 158.667 43.5 289.5 130.5 392.5
s210.167 154.5 369.5 154.5c132 0 238.333 -38 319 -114s119.667 -176 117 -300l-2 -6h-266c0 56 -14.833 102.5 -44.5 139.5s-70.834 55.5 -123.501 55.5c-75.333 0 -128.833 -30.167 -160.5 -90.5s-47.5 -137.5 -47.5 -231.5v-30c0 -96 15.833 -173.667 47.5 -233
s85.834 -89 162.501 -89zM667 4.00098l-11.001 -57.002c42.667 -7.33301 78.334 -24.666 107.001 -51.999s43 -67.666 43 -120.999c0 -71.333 -30.5 -128.333 -91.5 -171s-147.5 -64 -259.5 -64l-7 161c34 0 61 6.83301 81 20.5s30 34.5 30 62.5
c0 27.333 -10.667 46.5 -32 57.5s-58 18.167 -110 21.5l31 142h219z" />
    <glyph glyph-name="egrave" unicode="&#xe8;" horiz-adv-x="1071" 
d="M581 -21c-161.333 0 -287.333 49.502 -378 148.502s-136 226.5 -136 382.5v40c0 162 44 294.667 132 398s209 154.666 363 153.999c145.333 0 256.833 -44.5 334.5 -133.5s116.5 -208.833 116.5 -359.5v-151h-645l-3 -6c4.66699 -74 27.167 -134 67.5 -180
s100.166 -69 179.499 -69c65.333 0 120.833 6.66699 166.5 20s92.834 33.666 141.501 60.999l79 -180c-43.333 -35.333 -102 -65 -176 -89s-154.667 -36 -242 -36zM562 877.002c-58.667 0 -103.832 -20.166 -135.499 -60.499s-50.834 -93.833 -57.501 -160.5l2 -5h356v22
c0 63.333 -13 113.166 -39 149.499s-68 54.5 -126 54.5zM679.002 1279h-251l-272 260l2 6h325z" />
    <glyph glyph-name="eacute" unicode="&#xe9;" horiz-adv-x="1071" 
d="M581 -21c-161.333 0 -287.333 49.502 -378 148.502s-136 226.5 -136 382.5v40c0 162 44 294.667 132 398s209 154.666 363 153.999c145.333 0 256.833 -44.5 334.5 -133.5s116.5 -208.833 116.5 -359.5v-151h-645l-3 -6c4.66699 -74 27.167 -134 67.5 -180
s100.166 -69 179.499 -69c65.333 0 120.833 6.66699 166.5 20s92.834 33.666 141.501 60.999l79 -180c-43.333 -35.333 -102 -65 -176 -89s-154.667 -36 -242 -36zM562 877.002c-58.667 0 -103.832 -20.166 -135.499 -60.499s-50.834 -93.833 -57.501 -160.5l2 -5h356v22
c0 63.333 -13 113.166 -39 149.499s-68 54.5 -126 54.5zM597.002 1545h325l2 -6l-277 -260h-249z" />
    <glyph glyph-name="ecircumflex" unicode="&#xea;" horiz-adv-x="1071" 
d="M581 -21c-161.333 0 -287.333 49.502 -378 148.502s-136 226.5 -136 382.5v40c0 162 44 294.667 132 398s209 154.666 363 153.999c145.333 0 256.833 -44.5 334.5 -133.5s116.5 -208.833 116.5 -359.5v-151h-645l-3 -6c4.66699 -74 27.167 -134 67.5 -180
s100.166 -69 179.499 -69c65.333 0 120.833 6.66699 166.5 20s92.834 33.666 141.501 60.999l79 -180c-43.333 -35.333 -102 -65 -176 -89s-154.667 -36 -242 -36zM562 877.002c-58.667 0 -103.832 -20.166 -135.499 -60.499s-50.834 -93.833 -57.501 -160.5l2 -5h356v22
c0 63.333 -13 113.166 -39 149.499s-68 54.5 -126 54.5zM911.002 1294v-23h-232l-140 133l-139 -133h-227v26l282 240h169z" />
    <glyph glyph-name="edieresis" unicode="&#xeb;" horiz-adv-x="1071" 
d="M581 -21c-161.333 0 -287.333 49.502 -378 148.502s-136 226.5 -136 382.5v40c0 162 44 294.667 132 398s209 154.666 363 153.999c145.333 0 256.833 -44.5 334.5 -133.5s116.5 -208.833 116.5 -359.5v-151h-645l-3 -6c4.66699 -74 27.167 -134 67.5 -180
s100.166 -69 179.499 -69c65.333 0 120.833 6.66699 166.5 20s92.834 33.666 141.501 60.999l79 -180c-43.333 -35.333 -102 -65 -176 -89s-154.667 -36 -242 -36zM562 877.002c-58.667 0 -103.832 -20.166 -135.499 -60.499s-50.834 -93.833 -57.501 -160.5l2 -5h356v22
c0 63.333 -13 113.166 -39 149.499s-68 54.5 -126 54.5zM922.002 1280h-266v204h266v-204zM422.002 1280h-266v204h266v-204z" />
    <glyph glyph-name="igrave" unicode="&#xec;" horiz-adv-x="562" 
d="M425 0h-292v1082h292v-1082zM421 1257h-251l-272 260l2 6h325z" />
    <glyph glyph-name="iacute" unicode="&#xed;" horiz-adv-x="562" 
d="M425 0h-292v1082h292v-1082zM338 1523h325l2 -6l-277 -260h-249z" />
    <glyph glyph-name="icircumflex" unicode="&#xee;" horiz-adv-x="562" 
d="M425 0h-292v1082h292v-1082zM653 1273v-23h-232l-140 133l-139 -133h-227v26l282 240h169z" />
    <glyph glyph-name="idieresis" unicode="&#xef;" horiz-adv-x="562" 
d="M425 0h-292v1082h292v-1082zM664 1258h-266v204h266v-204zM164 1258h-266v204h266v-204z" />
    <glyph glyph-name="eth" unicode="&#xf0;" horiz-adv-x="1218" 
d="M921 1290c68 -70.667 120.835 -152.334 158.502 -245.001s56.5 -193.667 56.5 -303v-196c0 -166.667 -52.333 -302.834 -157 -408.501s-235.334 -158.5 -392.001 -158.5c-158.667 0 -288.167 46.833 -388.5 140.5s-150.5 209.834 -150.5 348.501
c0 150.667 44.833 271.5 134.5 362.5s211.5 136.5 365.5 136.5c54 0 105 -8.5 153 -25.5s89.333 -40.5 124 -70.5l4 4c-9.33301 55.333 -27.333 106.5 -54 153.5s-60 88.833 -100 125.5l-245 -136l-78 113l192 106l-1 6c-20.667 10.667 -43.334 20.667 -68.001 30
s-50.334 18 -77.001 26l92 218c58.667 -12.667 114.834 -30.167 168.501 -52.5s103.5 -49.166 149.5 -80.499l198 109l77 -113zM591.002 203c77.333 0 138.833 32.167 184.5 96.5s68.5 146.5 68.5 246.5v118c-23.333 26 -56.333 47.667 -99 65s-93 26 -151 26
c-81.333 0 -144 -26.333 -188 -79s-66 -122 -66 -208c0 -74.667 22.667 -137.5 68 -188.5s106.333 -76.5 183 -76.5z" />
    <glyph glyph-name="ntilde" unicode="&#xf1;" 
d="M379 1082l13.001 -154.999c36 55.333 80.333 98.333 133 129s111.667 46 177 46c109.333 0 194.666 -35.167 255.999 -105.5s92 -181.5 92 -333.5v-663h-293v662c0 77.333 -13.5 132.166 -40.5 164.499s-67.5 48.5 -121.5 48.5c-43.333 0 -81.5 -8.16699 -114.5 -24.5
s-60.167 -38.833 -81.5 -67.5v-783h-292v1082h272zM951.001 1534c0 -64 -19.832 -118.499 -59.499 -163.499s-89.834 -67.5 -150.501 -67.5c-46.667 0 -99.5 14.5 -158.5 43.5s-105.833 43.5 -140.5 43.5c-24 0 -44 -10.833 -60 -32.5s-24 -47.5 -24 -77.5l-156 42
c0 62.667 19.833 117.167 59.5 163.5s89.5 69.5 149.5 69.5c37.333 0 88 -14.5 152 -43.5s113.333 -43.5 148 -43.5c22.667 0 42.667 10.667 60 32s26 47.666 26 78.999z" />
    <glyph glyph-name="ograve" unicode="&#xf2;" 
d="M67 551c0 161.333 44.999 293.5 134.999 396.5s214.667 154.5 374 154.5c160 0 285.333 -51.333 376 -154s136 -235 136 -397v-21c0 -162.667 -45.167 -295.167 -135.5 -397.5s-215.166 -153.5 -374.499 -153.5c-160 0 -285.167 51.167 -375.5 153.5
s-135.5 234.833 -135.5 397.5v21zM357.999 530c0 -98.667 17.333 -177.833 52 -237.5s90.667 -89.5 168 -89.5c75.333 0 130.5 30 165.5 90s52.5 139 52.5 237v21c0 96 -17.667 174.333 -53 235s-91 91 -167 91c-75.333 0 -130.5 -30.5 -165.5 -91.5
s-52.5 -139.167 -52.5 -234.5v-21zM716.999 1278h-251l-272 260l2 6h325z" />
    <glyph glyph-name="oacute" unicode="&#xf3;" 
d="M67 551c0 161.333 44.999 293.5 134.999 396.5s214.667 154.5 374 154.5c160 0 285.333 -51.333 376 -154s136 -235 136 -397v-21c0 -162.667 -45.167 -295.167 -135.5 -397.5s-215.166 -153.5 -374.499 -153.5c-160 0 -285.167 51.167 -375.5 153.5
s-135.5 234.833 -135.5 397.5v21zM357.999 530c0 -98.667 17.333 -177.833 52 -237.5s90.667 -89.5 168 -89.5c75.333 0 130.5 30 165.5 90s52.5 139 52.5 237v21c0 96 -17.667 174.333 -53 235s-91 91 -167 91c-75.333 0 -130.5 -30.5 -165.5 -91.5
s-52.5 -139.167 -52.5 -234.5v-21zM634.999 1544h325l2 -6l-277 -260h-249z" />
    <glyph glyph-name="ocircumflex" unicode="&#xf4;" 
d="M67 551c0 161.333 44.999 293.5 134.999 396.5s214.667 154.5 374 154.5c160 0 285.333 -51.333 376 -154s136 -235 136 -397v-21c0 -162.667 -45.167 -295.167 -135.5 -397.5s-215.166 -153.5 -374.499 -153.5c-160 0 -285.167 51.167 -375.5 153.5
s-135.5 234.833 -135.5 397.5v21zM357.999 530c0 -98.667 17.333 -177.833 52 -237.5s90.667 -89.5 168 -89.5c75.333 0 130.5 30 165.5 90s52.5 139 52.5 237v21c0 96 -17.667 174.333 -53 235s-91 91 -167 91c-75.333 0 -130.5 -30.5 -165.5 -91.5
s-52.5 -139.167 -52.5 -234.5v-21zM948.999 1293v-23h-232l-140 133l-139 -133h-227v26l282 240h169z" />
    <glyph glyph-name="otilde" unicode="&#xf5;" 
d="M67 551c0 161.333 44.999 293.5 134.999 396.5s214.667 154.5 374 154.5c160 0 285.333 -51.333 376 -154s136 -235 136 -397v-21c0 -162.667 -45.167 -295.167 -135.5 -397.5s-215.166 -153.5 -374.499 -153.5c-160 0 -285.167 51.167 -375.5 153.5
s-135.5 234.833 -135.5 397.5v21zM357.999 530c0 -98.667 17.333 -177.833 52 -237.5s90.667 -89.5 168 -89.5c75.333 0 130.5 30 165.5 90s52.5 139 52.5 237v21c0 96 -17.667 174.333 -53 235s-91 91 -167 91c-75.333 0 -130.5 -30.5 -165.5 -91.5
s-52.5 -139.167 -52.5 -234.5v-21zM950.999 1534c0 -64 -19.832 -118.499 -59.499 -163.499s-89.834 -67.5 -150.501 -67.5c-46.667 0 -99.5 14.5 -158.5 43.5s-105.833 43.5 -140.5 43.5c-24 0 -44 -10.833 -60 -32.5s-24 -47.5 -24 -77.5l-156 42
c0 62.667 19.833 117.167 59.5 163.5s89.5 69.5 149.5 69.5c37.333 0 88 -14.5 152 -43.5s113.333 -43.5 148 -43.5c22.667 0 42.667 10.667 60 32s26 47.666 26 78.999z" />
    <glyph glyph-name="odieresis" unicode="&#xf6;" 
d="M67 551c0 161.333 44.999 293.5 134.999 396.5s214.667 154.5 374 154.5c160 0 285.333 -51.333 376 -154s136 -235 136 -397v-21c0 -162.667 -45.167 -295.167 -135.5 -397.5s-215.166 -153.5 -374.499 -153.5c-160 0 -285.167 51.167 -375.5 153.5
s-135.5 234.833 -135.5 397.5v21zM357.999 530c0 -98.667 17.333 -177.833 52 -237.5s90.667 -89.5 168 -89.5c75.333 0 130.5 30 165.5 90s52.5 139 52.5 237v21c0 96 -17.667 174.333 -53 235s-91 91 -167 91c-75.333 0 -130.5 -30.5 -165.5 -91.5
s-52.5 -139.167 -52.5 -234.5v-21zM959.999 1279h-266v204h266v-204zM459.999 1279h-266v204h266v-204z" />
    <glyph glyph-name="divide" unicode="&#xf7;" horiz-adv-x="1168" 
d="M1092 573h-1029v227h1029v-227zM725 973h-293v233h293v-233zM725 164h-293v233h293v-233z" />
    <glyph glyph-name="oslash" unicode="&#xf8;" 
d="M67 551c0 161.333 44.999 293.498 134.999 396.498s214.667 154.5 374 154.5c33.333 0 65.5 -2.66699 96.5 -8s61.167 -12.666 90.5 -21.999l70 143h161l-103 -211c63.333 -49.333 112 -113.166 146 -191.499s51 -165.5 51 -261.5v-21
c0 -162.667 -45.167 -295.167 -135.5 -397.5s-215.166 -153.5 -374.499 -153.5c-32 0 -62.667 2.33301 -92 7s-57.333 11 -84 19l-71 -146h-161l103 211c-67.333 47.333 -118.5 110.833 -153.5 190.5s-52.5 169.5 -52.5 269.5v21zM357.999 529.998
c0 -41.333 2.83398 -79.332 8.50098 -113.999s14.5 -63.334 26.5 -86.001l6 -1l260 531c-12.667 5.33301 -25.834 9.5 -39.501 12.5s-28.167 4.5 -43.5 4.5c-75.333 0 -130.5 -30.5 -165.5 -91.5s-52.5 -139.167 -52.5 -234.5v-21zM796 550.999
c0 36 -2.66797 70.001 -8.00098 102.001s-12.666 59.333 -21.999 82l-6 1l-255 -521c10 -4.66699 21.167 -7.83398 33.5 -9.50098s25.5 -2.5 39.5 -2.5c75.333 0 130.5 30 165.5 90s52.5 139 52.5 237v21z" />
    <glyph glyph-name="ugrave" unicode="&#xf9;" 
d="M775 160c-33.333 -58 -75.666 -102.667 -126.999 -134s-111 -47 -179 -47c-114 0 -203.167 38.667 -267.5 116s-96.5 197.333 -96.5 360v627h291v-629c0 -94.667 12.833 -159.5 38.5 -194.5s65.5 -52.5 119.5 -52.5c46.667 0 86.667 7.5 120 22.5
s60.666 37.167 81.999 66.5v787h292v-1082h-242zM716 1257h-251l-272 260l2 6h325z" />
    <glyph glyph-name="uacute" unicode="&#xfa;" 
d="M775 160c-33.333 -58 -75.666 -102.667 -126.999 -134s-111 -47 -179 -47c-114 0 -203.167 38.667 -267.5 116s-96.5 197.333 -96.5 360v627h291v-629c0 -94.667 12.833 -159.5 38.5 -194.5s65.5 -52.5 119.5 -52.5c46.667 0 86.667 7.5 120 22.5
s60.666 37.167 81.999 66.5v787h292v-1082h-242zM634 1523h325l2 -6l-277 -260h-249z" />
    <glyph glyph-name="ucircumflex" unicode="&#xfb;" 
d="M775 160c-33.333 -58 -75.666 -102.667 -126.999 -134s-111 -47 -179 -47c-114 0 -203.167 38.667 -267.5 116s-96.5 197.333 -96.5 360v627h291v-629c0 -94.667 12.833 -159.5 38.5 -194.5s65.5 -52.5 119.5 -52.5c46.667 0 86.667 7.5 120 22.5
s60.666 37.167 81.999 66.5v787h292v-1082h-242zM948 1273v-23h-232l-140 133l-139 -133h-227v26l282 240h169z" />
    <glyph glyph-name="udieresis" unicode="&#xfc;" 
d="M775 160c-33.333 -58 -75.666 -102.667 -126.999 -134s-111 -47 -179 -47c-114 0 -203.167 38.667 -267.5 116s-96.5 197.333 -96.5 360v627h291v-629c0 -94.667 12.833 -159.5 38.5 -194.5s65.5 -52.5 119.5 -52.5c46.667 0 86.667 7.5 120 22.5
s60.666 37.167 81.999 66.5v787h292v-1082h-242zM959 1258h-266v204h266v-204zM459 1258h-266v204h266v-204z" />
    <glyph glyph-name="yacute" unicode="&#xfd;" horiz-adv-x="1046" 
d="M502 454l12.001 -60.001h6l207 688h314l-439 -1244c-30.667 -77.333 -72.334 -142.5 -125.001 -195.5s-131.667 -79.5 -237 -79.5c-24.667 0 -47.5 2 -68.5 6s-46.5 9.66699 -76.5 17l34 213c8.66699 -1.33301 18 -2.66602 28 -3.99902s19 -2 27 -2
c48 0 85 11.833 111 35.5s46 53.167 60 88.5l34 84l-384 1081h314zM581.001 1523h325l2 -6l-277 -260h-249z" />
    <glyph glyph-name="thorn" unicode="&#xfe;" horiz-adv-x="1162" 
d="M1098 511c0 -160 -36.999 -288.666 -110.999 -385.999s-177.333 -146 -310 -146c-56.667 0 -107 10.5 -151 31.5s-81.667 51.833 -113 92.5v-519h-291v416h-1v1560h292v-591c31.333 42.667 68.666 75.5 111.999 98.5s93.333 34.5 150 34.5c134 0 238 -52.333 312 -157
s111 -242.334 111 -413.001v-21zM806.001 532.001c0 102 -17 184.667 -51 248s-86 95 -156 95c-44 0 -81.5 -9 -112.5 -27s-55.5 -43.667 -73.5 -77v-474c18 -30.667 42.5 -54 73.5 -70s69.167 -24 114.5 -24c70.667 0 122.5 27.667 155.5 83s49.5 130.333 49.5 225v21z" />
    <glyph glyph-name="ydieresis" unicode="&#xff;" horiz-adv-x="1046" 
d="M502 454l12.001 -60.001h6l207 688h314l-439 -1244c-30.667 -77.333 -72.334 -142.5 -125.001 -195.5s-131.667 -79.5 -237 -79.5c-24.667 0 -47.5 2 -68.5 6s-46.5 9.66699 -76.5 17l34 213c8.66699 -1.33301 18 -2.66602 28 -3.99902s19 -2 27 -2
c48 0 85 11.833 111 35.5s46 53.167 60 88.5l34 84l-384 1081h314zM907.001 1258h-266v204h266v-204zM407.001 1258h-266v204h266v-204z" />
    <glyph glyph-name="Amacron" unicode="&#x100;" horiz-adv-x="1303" 
d="M893 314h-472l-98 -314h-305l491 1456h299l489 -1456h-305zM493 543h329l-161 513h-6zM1020 1613h-731v165h731v-165z" />
    <glyph glyph-name="amacron" unicode="&#x101;" horiz-adv-x="1100" 
d="M750 0c-10.667 24.667 -19.835 50.6699 -27.502 78.0029s-13.167 55.333 -16.5 84c-30 -52.667 -69.667 -96.334 -119 -131.001s-108 -52 -176 -52c-113.333 0 -200.666 29.167 -261.999 87.5s-92 137.833 -92 238.5c0 106 40.833 188.167 122.5 246.5
s200.834 87.5 357.501 87.5h164v86c0 52 -13.667 92.333 -41 121s-68 43 -122 43c-47.333 0 -83.833 -11.5 -109.5 -34.5s-38.5 -54.5 -38.5 -94.5h-281l-2 6c-4.66699 91.333 35.166 170.166 119.499 236.499s194.5 99.5 330.5 99.5c130 0 235.167 -32.667 315.5 -98
s120.5 -159 120.5 -281v-447c0 -50.667 3.83301 -98.334 11.5 -143.001s19.834 -89 36.501 -133h-291zM482.999 195.003c50.667 0 96 12.6699 136 38.0029s67.333 54.666 82 87.999v153h-164c-62 0 -108.833 -15.333 -140.5 -46s-47.5 -68.334 -47.5 -113.001
c0 -36.667 11.833 -65.834 35.5 -87.501s56.5 -32.5 98.5 -32.5zM912.999 1292.01h-731v165h731v-165z" />
    <glyph glyph-name="Abreve" unicode="&#x102;" horiz-adv-x="1303" 
d="M893 314h-472l-98 -314h-305l491 1456h299l489 -1456h-305zM493 543h329l-161 513h-6zM992 1896l2 -6c3.33301 -84.667 -26.167 -153.834 -88.5 -207.501s-146.166 -80.5 -251.499 -80.5c-106 0 -190.333 26.833 -253 80.5s-92 122.834 -88 207.501l2 6h213
c0 -35.333 10.167 -64.333 30.5 -87s52.166 -34 95.499 -34c42 0 73.167 11.333 93.5 34s30.5 51.667 30.5 87h214z" />
    <glyph glyph-name="abreve" unicode="&#x103;" horiz-adv-x="1100" 
d="M750 0c-10.667 24.667 -19.835 50.6699 -27.502 78.0029s-13.167 55.333 -16.5 84c-30 -52.667 -69.667 -96.334 -119 -131.001s-108 -52 -176 -52c-113.333 0 -200.666 29.167 -261.999 87.5s-92 137.833 -92 238.5c0 106 40.833 188.167 122.5 246.5
s200.834 87.5 357.501 87.5h164v86c0 52 -13.667 92.333 -41 121s-68 43 -122 43c-47.333 0 -83.833 -11.5 -109.5 -34.5s-38.5 -54.5 -38.5 -94.5h-281l-2 6c-4.66699 91.333 35.166 170.166 119.499 236.499s194.5 99.5 330.5 99.5c130 0 235.167 -32.667 315.5 -98
s120.5 -159 120.5 -281v-447c0 -50.667 3.83301 -98.334 11.5 -143.001s19.834 -89 36.501 -133h-291zM482.999 195.003c50.667 0 96 12.6699 136 38.0029s67.333 54.666 82 87.999v153h-164c-62 0 -108.833 -15.333 -140.5 -46s-47.5 -68.334 -47.5 -113.001
c0 -36.667 11.833 -65.834 35.5 -87.501s56.5 -32.5 98.5 -32.5zM884.999 1574.01l2 -6c3.33301 -84.667 -26.167 -153.834 -88.5 -207.501s-146.166 -80.5 -251.499 -80.5c-106 0 -190.333 26.833 -253 80.5s-92 122.834 -88 207.501l2 6h213
c0 -35.333 10.167 -64.333 30.5 -87s52.166 -34 95.499 -34c42 0 73.167 11.333 93.5 34s30.5 51.667 30.5 87h214z" />
    <glyph glyph-name="Aogonek" unicode="&#x104;" horiz-adv-x="1303" 
d="M893 314h-472l-98 -314h-305l491 1456h299l489 -1456h-305zM493 543h329l-161 513h-6zM1213 0c-36 -35.333 -62.3311 -65.3311 -78.998 -89.998s-25 -53.334 -25 -86.001c0 -18 5.66699 -34.167 17 -48.5s34.333 -21.5 69 -21.5c18.667 0 35.167 2 49.5 6
s29.166 8.66699 44.499 14l35 -154c-24 -12.667 -50.833 -23.167 -80.5 -31.5s-64.834 -12.5 -105.501 -12.5c-72 0 -131.167 18.833 -177.5 56.5s-69.5 90.167 -69.5 157.5c0 51.333 15.333 100.166 46 146.499s78.667 87.5 144 123.5z" />
    <glyph glyph-name="aogonek" unicode="&#x105;" horiz-adv-x="1100" 
d="M750 0c-10.667 24.667 -19.835 50.6699 -27.502 78.0029s-13.167 55.333 -16.5 84c-30 -52.667 -69.667 -96.334 -119 -131.001s-108 -52 -176 -52c-113.333 0 -200.666 29.167 -261.999 87.5s-92 137.833 -92 238.5c0 106 40.833 188.167 122.5 246.5
s200.834 87.5 357.501 87.5h164v86c0 52 -13.667 92.333 -41 121s-68 43 -122 43c-47.333 0 -83.833 -11.5 -109.5 -34.5s-38.5 -54.5 -38.5 -94.5h-281l-2 6c-4.66699 91.333 35.166 170.166 119.499 236.499s194.5 99.5 330.5 99.5c130 0 235.167 -32.667 315.5 -98
s120.5 -159 120.5 -281v-447c0 -50.667 3.83301 -98.334 11.5 -143.001s19.834 -89 36.501 -133h-291zM482.999 195.003c50.667 0 96 12.6699 136 38.0029s67.333 54.666 82 87.999v153h-164c-62 0 -108.833 -15.333 -140.5 -46s-47.5 -68.334 -47.5 -113.001
c0 -36.667 11.833 -65.834 35.5 -87.501s56.5 -32.5 98.5 -32.5zM955.999 0.00585938c-36 -35.333 -62.3311 -65.3311 -78.998 -89.998s-25 -53.334 -25 -86.001c0 -18 5.66699 -34.167 17 -48.5s34.333 -21.5 69 -21.5c18.667 0 35.167 2 49.5 6s29.166 8.66699 44.499 14
l35 -154c-24 -12.667 -50.833 -23.167 -80.5 -31.5s-64.834 -12.5 -105.501 -12.5c-72 0 -131.167 18.833 -177.5 56.5s-69.5 90.167 -69.5 157.5c0 51.333 15.333 100.166 46 146.499s78.667 87.5 144 123.5z" />
    <glyph glyph-name="Cacute" unicode="&#x106;" horiz-adv-x="1303" 
d="M1226 482l1.99805 -6.00195c2.66699 -155.333 -44.666 -277 -141.999 -365s-231.666 -132 -402.999 -132c-174.667 0 -315.667 56.167 -423 168.5s-161 257.5 -161 435.5v289c0 177.333 52.333 322.5 157 435.5s242 169.5 412 169.5c177.333 0 316 -43.333 416 -130
s148.667 -208.667 146 -366l-2 -6h-284c0 93.333 -22.5 162.833 -67.5 208.5s-114.5 68.5 -208.5 68.5c-87.333 0 -155.5 -35.167 -204.5 -105.5s-73.5 -161.166 -73.5 -272.499v-291c0 -112 25.833 -203.333 77.5 -274s123.5 -106 215.5 -106
c87.333 0 152.5 22.833 195.5 68.5s64.5 115.834 64.5 210.501h283zM736.998 1887h325l2 -6l-277 -260h-249z" />
    <glyph glyph-name="cacute" unicode="&#x107;" horiz-adv-x="1056" 
d="M564 203c50.667 0 91 15.168 121 45.501s45 70.833 45 121.5h266l2 -6c2.66699 -109.333 -38 -200.833 -122 -274.5s-188 -110.5 -312 -110.5c-160 0 -283.667 51.167 -371 153.5s-131 233.166 -131 392.499v30c0 158.667 43.5 289.5 130.5 392.5
s210.167 154.5 369.5 154.5c132 0 238.333 -38 319 -114s119.667 -176 117 -300l-2 -6h-266c0 56 -14.833 102.5 -44.5 139.5s-70.834 55.5 -123.501 55.5c-75.333 0 -128.833 -30.167 -160.5 -90.5s-47.5 -137.5 -47.5 -231.5v-30c0 -96 15.833 -173.667 47.5 -233
s85.834 -89 162.501 -89zM592 1544h325l2 -6l-277 -260h-249z" />
    <glyph glyph-name="Ccircumflex" unicode="&#x108;" horiz-adv-x="1303" 
d="M1226 482l1.99805 -6.00195c2.66699 -155.333 -44.666 -277 -141.999 -365s-231.666 -132 -402.999 -132c-174.667 0 -315.667 56.167 -423 168.5s-161 257.5 -161 435.5v289c0 177.333 52.333 322.5 157 435.5s242 169.5 412 169.5c177.333 0 316 -43.333 416 -130
s148.667 -208.667 146 -366l-2 -6h-284c0 93.333 -22.5 162.833 -67.5 208.5s-114.5 68.5 -208.5 68.5c-87.333 0 -155.5 -35.167 -204.5 -105.5s-73.5 -161.166 -73.5 -272.499v-291c0 -112 25.833 -203.333 77.5 -274s123.5 -106 215.5 -106
c87.333 0 152.5 22.833 195.5 68.5s64.5 115.834 64.5 210.501h283zM1051 1636v-23h-232l-140 133l-139 -133h-227v26l282 240h169z" />
    <glyph glyph-name="ccircumflex" unicode="&#x109;" horiz-adv-x="1056" 
d="M564 203c50.667 0 91 15.168 121 45.501s45 70.833 45 121.5h266l2 -6c2.66699 -109.333 -38 -200.833 -122 -274.5s-188 -110.5 -312 -110.5c-160 0 -283.667 51.167 -371 153.5s-131 233.166 -131 392.499v30c0 158.667 43.5 289.5 130.5 392.5
s210.167 154.5 369.5 154.5c132 0 238.333 -38 319 -114s119.667 -176 117 -300l-2 -6h-266c0 56 -14.833 102.5 -44.5 139.5s-70.834 55.5 -123.501 55.5c-75.333 0 -128.833 -30.167 -160.5 -90.5s-47.5 -137.5 -47.5 -231.5v-30c0 -96 15.833 -173.667 47.5 -233
s85.834 -89 162.501 -89zM906 1293v-23h-232l-140 133l-139 -133h-227v26l282 240h169z" />
    <glyph glyph-name="uni010A" unicode="&#x10a;" horiz-adv-x="1303" 
d="M1226 482l1.99805 -6.00195c2.66699 -155.333 -44.666 -277 -141.999 -365s-231.666 -132 -402.999 -132c-174.667 0 -315.667 56.167 -423 168.5s-161 257.5 -161 435.5v289c0 177.333 52.333 322.5 157 435.5s242 169.5 412 169.5c177.333 0 316 -43.333 416 -130
s148.667 -208.667 146 -366l-2 -6h-284c0 93.333 -22.5 162.833 -67.5 208.5s-114.5 68.5 -208.5 68.5c-87.333 0 -155.5 -35.167 -204.5 -105.5s-73.5 -161.166 -73.5 -272.499v-291c0 -112 25.833 -203.333 77.5 -274s123.5 -106 215.5 -106
c87.333 0 152.5 22.833 195.5 68.5s64.5 115.834 64.5 210.501h283zM842.998 1622h-327v241h327v-241z" />
    <glyph glyph-name="uni010B" unicode="&#x10b;" horiz-adv-x="1056" 
d="M564 203c50.667 0 91 15.168 121 45.501s45 70.833 45 121.5h266l2 -6c2.66699 -109.333 -38 -200.833 -122 -274.5s-188 -110.5 -312 -110.5c-160 0 -283.667 51.167 -371 153.5s-131 233.166 -131 392.499v30c0 158.667 43.5 289.5 130.5 392.5
s210.167 154.5 369.5 154.5c132 0 238.333 -38 319 -114s119.667 -176 117 -300l-2 -6h-266c0 56 -14.833 102.5 -44.5 139.5s-70.834 55.5 -123.501 55.5c-75.333 0 -128.833 -30.167 -160.5 -90.5s-47.5 -137.5 -47.5 -231.5v-30c0 -96 15.833 -173.667 47.5 -233
s85.834 -89 162.501 -89zM698 1279h-327v241h327v-241z" />
    <glyph glyph-name="Ccaron" unicode="&#x10c;" horiz-adv-x="1303" 
d="M1226 482l1.99805 -6.00195c2.66699 -155.333 -44.666 -277 -141.999 -365s-231.666 -132 -402.999 -132c-174.667 0 -315.667 56.167 -423 168.5s-161 257.5 -161 435.5v289c0 177.333 52.333 322.5 157 435.5s242 169.5 412 169.5c177.333 0 316 -43.333 416 -130
s148.667 -208.667 146 -366l-2 -6h-284c0 93.333 -22.5 162.833 -67.5 208.5s-114.5 68.5 -208.5 68.5c-87.333 0 -155.5 -35.167 -204.5 -105.5s-73.5 -161.166 -73.5 -272.499v-291c0 -112 25.833 -203.333 77.5 -274s123.5 -106 215.5 -106
c87.333 0 152.5 22.833 195.5 68.5s64.5 115.834 64.5 210.501h283zM677.998 1767l117 127h264v-17l-281 -255h-199l-281 256v16h264z" />
    <glyph glyph-name="ccaron" unicode="&#x10d;" horiz-adv-x="1056" 
d="M564 203c50.667 0 91 15.168 121 45.501s45 70.833 45 121.5h266l2 -6c2.66699 -109.333 -38 -200.833 -122 -274.5s-188 -110.5 -312 -110.5c-160 0 -283.667 51.167 -371 153.5s-131 233.166 -131 392.499v30c0 158.667 43.5 289.5 130.5 392.5
s210.167 154.5 369.5 154.5c132 0 238.333 -38 319 -114s119.667 -176 117 -300l-2 -6h-266c0 56 -14.833 102.5 -44.5 139.5s-70.834 55.5 -123.501 55.5c-75.333 0 -128.833 -30.167 -160.5 -90.5s-47.5 -137.5 -47.5 -231.5v-30c0 -96 15.833 -173.667 47.5 -233
s85.834 -89 162.501 -89zM533 1424l117 127h264v-17l-281 -255h-199l-281 256v16h264z" />
    <glyph glyph-name="Dcaron" unicode="&#x10e;" horiz-adv-x="1355" 
d="M134 0v1456h508c178 0 324.667 -56.833 440 -170.5s173 -259.5 173 -437.5v-241c0 -178.667 -57.667 -324.5 -173 -437.5s-262 -169.5 -440 -169.5h-508zM426 1231v-1007h216c96 0 173.333 35.833 232 107.5s88 163.5 88 275.5v243
c0 111.333 -29.333 202.666 -88 273.999s-136 107 -232 107h-216zM589 1746l117 127h264v-17l-281 -255h-199l-281 256v16h264z" />
    <glyph glyph-name="dcaron" unicode="&#x10f;" 
d="M67 532c0 170.667 36.834 308.332 110.501 412.999s177.5 157 311.5 157c54 0 102.667 -11.667 146 -35s81.333 -56.666 114 -99.999v593h293v-1560h-249l-25 133c-34 -50 -74.333 -88.167 -121 -114.5s-100 -39.5 -160 -39.5c-132.667 0 -235.834 48.667 -309.501 146
s-110.5 226 -110.5 386v21zM358.001 510.998c0 -94.667 16 -169.167 48 -223.5s84 -81.5 156 -81.5c42 0 78.667 8.5 110 25.5s57 41.833 77 74.5v461c-20 34 -45.5 60.5 -76.5 79.5s-67.167 28.5 -108.5 28.5c-71.333 0 -123.5 -31.667 -156.5 -95s-49.5 -146 -49.5 -248
v-21zM1368 1398l-129 -235h-122l61 245v151h190v-161z" />
    <glyph glyph-name="Dcroat" unicode="&#x110;" horiz-adv-x="1355" 
d="M134 0v652h-136v181h136v623h508c178 0 324.667 -56.833 440 -170.5s173 -259.5 173 -437.5v-241c0 -178.667 -57.667 -324.5 -173 -437.5s-262 -169.5 -440 -169.5h-508zM669 652l-243 0.000976562v-428h216c96 0 173.333 35.833 232 107.5s88 163.5 88 275.5v243
c0 111.333 -29.333 202.666 -88 273.999s-136 107 -232 107h-216v-398h243v-181z" />
    <glyph glyph-name="dcroat" unicode="&#x111;" 
d="M1186 1220l-143.999 -0.00195312v-1220h-249l-25 133c-34 -50 -74.333 -88.167 -121 -114.5s-100 -39.5 -160 -39.5c-132.667 0 -235.834 48.667 -309.501 146s-110.5 226 -110.5 386v21c0 170.667 36.833 308.334 110.5 413.001s177.5 157 311.5 157
c54 0 102.667 -11.667 146 -35s81.333 -56.666 114 -99.999v253h-234v181h234v159h293v-159h144v-181zM358.001 510.998c0 -94.667 16 -169.167 48 -223.5s84 -81.5 156 -81.5c42 0 78.667 8.5 110 25.5s57 41.833 77 74.5v461c-20 34 -45.5 60.5 -76.5 79.5
s-67.167 28.5 -108.5 28.5c-71.333 0 -123.5 -31.667 -156.5 -95s-49.5 -146 -49.5 -248v-21z" />
    <glyph glyph-name="Emacron" unicode="&#x112;" horiz-adv-x="1139" 
d="M966 640h-540v-416h642v-224h-934v1456h932v-225h-640v-366h540v-225zM968 1613h-731v165h731v-165z" />
    <glyph glyph-name="emacron" unicode="&#x113;" horiz-adv-x="1071" 
d="M581 -21c-161.333 0 -287.333 49.502 -378 148.502s-136 226.5 -136 382.5v40c0 162 44 294.667 132 398s209 154.666 363 153.999c145.333 0 256.833 -44.5 334.5 -133.5s116.5 -208.833 116.5 -359.5v-151h-645l-3 -6c4.66699 -74 27.167 -134 67.5 -180
s100.166 -69 179.499 -69c65.333 0 120.833 6.66699 166.5 20s92.834 33.666 141.501 60.999l79 -180c-43.333 -35.333 -102 -65 -176 -89s-154.667 -36 -242 -36zM562 877.002c-58.667 0 -103.832 -20.166 -135.499 -60.499s-50.834 -93.833 -57.501 -160.5l2 -5h356v22
c0 63.333 -13 113.166 -39 149.499s-68 54.5 -126 54.5zM906.002 1292h-731v165h731v-165z" />
    <glyph glyph-name="Ebreve" unicode="&#x114;" horiz-adv-x="1139" 
d="M966 640h-540v-416h642v-224h-934v1456h932v-225h-640v-366h540v-225zM940 1896l2 -6c3.33301 -84.667 -26.167 -153.834 -88.5 -207.501s-146.166 -80.5 -251.499 -80.5c-106 0 -190.333 26.833 -253 80.5s-92 122.834 -88 207.501l2 6h213
c0 -35.333 10.167 -64.333 30.5 -87s52.166 -34 95.499 -34c42 0 73.167 11.333 93.5 34s30.5 51.667 30.5 87h214z" />
    <glyph glyph-name="ebreve" unicode="&#x115;" horiz-adv-x="1071" 
d="M581 -21c-161.333 0 -287.333 49.502 -378 148.502s-136 226.5 -136 382.5v40c0 162 44 294.667 132 398s209 154.666 363 153.999c145.333 0 256.833 -44.5 334.5 -133.5s116.5 -208.833 116.5 -359.5v-151h-645l-3 -6c4.66699 -74 27.167 -134 67.5 -180
s100.166 -69 179.499 -69c65.333 0 120.833 6.66699 166.5 20s92.834 33.666 141.501 60.999l79 -180c-43.333 -35.333 -102 -65 -176 -89s-154.667 -36 -242 -36zM562 877.002c-58.667 0 -103.832 -20.166 -135.499 -60.499s-50.834 -93.833 -57.501 -160.5l2 -5h356v22
c0 63.333 -13 113.166 -39 149.499s-68 54.5 -126 54.5zM878.002 1575l2 -6c3.33301 -84.667 -26.167 -153.834 -88.5 -207.501s-146.166 -80.5 -251.499 -80.5c-106 0 -190.333 26.833 -253 80.5s-92 122.834 -88 207.501l2 6h213c0 -35.333 10.167 -64.333 30.5 -87
s52.166 -34 95.499 -34c42 0 73.167 11.333 93.5 34s30.5 51.667 30.5 87h214z" />
    <glyph glyph-name="Edotaccent" unicode="&#x116;" horiz-adv-x="1139" 
d="M966 640h-540v-416h642v-224h-934v1456h932v-225h-640v-366h540v-225zM765 1601h-327v241h327v-241z" />
    <glyph glyph-name="edotaccent" unicode="&#x117;" horiz-adv-x="1071" 
d="M581 -21c-161.333 0 -287.333 49.502 -378 148.502s-136 226.5 -136 382.5v40c0 162 44 294.667 132 398s209 154.666 363 153.999c145.333 0 256.833 -44.5 334.5 -133.5s116.5 -208.833 116.5 -359.5v-151h-645l-3 -6c4.66699 -74 27.167 -134 67.5 -180
s100.166 -69 179.499 -69c65.333 0 120.833 6.66699 166.5 20s92.834 33.666 141.501 60.999l79 -180c-43.333 -35.333 -102 -65 -176 -89s-154.667 -36 -242 -36zM562 877.002c-58.667 0 -103.832 -20.166 -135.499 -60.499s-50.834 -93.833 -57.501 -160.5l2 -5h356v22
c0 63.333 -13 113.166 -39 149.499s-68 54.5 -126 54.5zM703.002 1280h-327v241h327v-241z" />
    <glyph glyph-name="Eogonek" unicode="&#x118;" horiz-adv-x="1139" 
d="M966 640h-540v-416h642v-224h-934v1456h932v-225h-640v-366h540v-225zM675 0c-36 -35.333 -62.3311 -65.3311 -78.998 -89.998s-25 -53.334 -25 -86.001c0 -18 5.66699 -34.167 17 -48.5s34.333 -21.5 69 -21.5c18.667 0 35.167 2 49.5 6s29.166 8.66699 44.499 14
l35 -154c-24 -12.667 -50.833 -23.167 -80.5 -31.5s-64.834 -12.5 -105.501 -12.5c-72 0 -131.167 18.833 -177.5 56.5s-69.5 90.167 -69.5 157.5c0 51.333 15.333 100.166 46 146.499s78.667 87.5 144 123.5z" />
    <glyph glyph-name="eogonek" unicode="&#x119;" horiz-adv-x="1071" 
d="M581 -21c-161.333 0 -287.333 49.502 -378 148.502s-136 226.5 -136 382.5v40c0 162 44 294.667 132 398s209 154.666 363 153.999c145.333 0 256.833 -44.5 334.5 -133.5s116.5 -208.833 116.5 -359.5v-151h-645l-3 -6c4.66699 -74 27.167 -134 67.5 -180
s100.166 -69 179.499 -69c65.333 0 120.833 6.66699 166.5 20s92.834 33.666 141.501 60.999l79 -180c-43.333 -35.333 -102 -65 -176 -89s-154.667 -36 -242 -36zM562 877.002c-58.667 0 -103.832 -20.166 -135.499 -60.499s-50.834 -93.833 -57.501 -160.5l2 -5h356v22
c0 63.333 -13 113.166 -39 149.499s-68 54.5 -126 54.5zM876.002 42.0029c-36 -35.333 -62.3311 -65.3311 -78.998 -89.998s-25 -53.334 -25 -86.001c0 -18 5.66699 -34.167 17 -48.5s34.333 -21.5 69 -21.5c18.667 0 35.167 2 49.5 6s29.166 8.66699 44.499 14l35 -154
c-24 -12.667 -50.833 -23.167 -80.5 -31.5s-64.834 -12.5 -105.501 -12.5c-72 0 -131.167 18.833 -177.5 56.5s-69.5 90.167 -69.5 157.5c0 51.333 15.333 100.166 46 146.499s78.667 87.5 144 123.5z" />
    <glyph glyph-name="Ecaron" unicode="&#x11a;" horiz-adv-x="1139" 
d="M966 640h-540v-416h642v-224h-934v1456h932v-225h-640v-366h540v-225zM600 1746l117 127h264v-17l-281 -255h-199l-281 256v16h264z" />
    <glyph glyph-name="ecaron" unicode="&#x11b;" horiz-adv-x="1071" 
d="M581 -21c-161.333 0 -287.333 49.502 -378 148.502s-136 226.5 -136 382.5v40c0 162 44 294.667 132 398s209 154.666 363 153.999c145.333 0 256.833 -44.5 334.5 -133.5s116.5 -208.833 116.5 -359.5v-151h-645l-3 -6c4.66699 -74 27.167 -134 67.5 -180
s100.166 -69 179.499 -69c65.333 0 120.833 6.66699 166.5 20s92.834 33.666 141.501 60.999l79 -180c-43.333 -35.333 -102 -65 -176 -89s-154.667 -36 -242 -36zM562 877.002c-58.667 0 -103.832 -20.166 -135.499 -60.499s-50.834 -93.833 -57.501 -160.5l2 -5h356v22
c0 63.333 -13 113.166 -39 149.499s-68 54.5 -126 54.5zM538.002 1425l117 127h264v-17l-281 -255h-199l-281 256v16h264z" />
    <glyph glyph-name="Gcircumflex" unicode="&#x11c;" horiz-adv-x="1364" 
d="M1250 199c-45.333 -59.333 -113.001 -110.834 -203.001 -154.501s-206 -65.5 -348 -65.5c-176 0 -320 55.333 -432 166s-168 254.334 -168 431.001v304c0 176 54.333 319.5 163 430.5s248.334 166.5 419.001 166.5c178 0 314.333 -42.167 409 -126.5
s140.334 -196.833 137.001 -337.5l-2 -6h-275c0 77.333 -22.333 137.5 -67 180.5s-109.667 64.5 -195 64.5c-89.333 0 -161.333 -34.5 -216 -103.5s-82 -157.833 -82 -266.5v-306c0 -110 28 -199.667 84 -269s131 -104 225 -104c69.333 0 124.166 7 164.499 21
s71.5 31.667 93.5 53v282h-280v202h573v-562zM1046 1636v-23h-232l-140 133l-139 -133h-227v26l282 240h169z" />
    <glyph glyph-name="gcircumflex" unicode="&#x11d;" 
d="M69 532c0 170.667 36.999 308.333 110.999 413s178 157 312 157c60.667 0 114 -13.667 160 -41s85.333 -66.333 118 -117l23 138h251v-1077c0 -140.667 -46 -249.5 -138 -326.5s-220.333 -115.5 -385 -115.5c-54.667 0 -112.667 7.5 -174 22.5s-118 35.5 -170 61.5
l49 218c44.667 -21.333 90.834 -37.5 138.501 -48.5s99.167 -16.5 154.5 -16.5c80 0 138.833 16.667 176.5 50s56.5 85.333 56.5 156v98c-32 -40.667 -69.667 -71.667 -113 -93s-93 -32 -149 -32c-132.667 0 -236 48.667 -310 146s-111 226 -111 386v21zM360.999 510.999
c0 -94.667 15.833 -169.166 47.5 -223.499s83.5 -81.5 155.5 -81.5c44.667 0 82.5 8.16699 113.5 24.5s55.833 40.166 74.5 71.499v469c-18.667 33.333 -43.5 59 -74.5 77s-68.167 27 -111.5 27c-71.333 0 -123.333 -31.667 -156 -95s-49 -146 -49 -248v-21zM928.999 1293
v-23h-232l-140 133l-139 -133h-227v26l282 240h169z" />
    <glyph glyph-name="Gbreve" unicode="&#x11e;" horiz-adv-x="1364" 
d="M1250 199c-45.333 -59.333 -113.001 -110.834 -203.001 -154.501s-206 -65.5 -348 -65.5c-176 0 -320 55.333 -432 166s-168 254.334 -168 431.001v304c0 176 54.333 319.5 163 430.5s248.334 166.5 419.001 166.5c178 0 314.333 -42.167 409 -126.5
s140.334 -196.833 137.001 -337.5l-2 -6h-275c0 77.333 -22.333 137.5 -67 180.5s-109.667 64.5 -195 64.5c-89.333 0 -161.333 -34.5 -216 -103.5s-82 -157.833 -82 -266.5v-306c0 -110 28 -199.667 84 -269s131 -104 225 -104c69.333 0 124.166 7 164.499 21
s71.5 31.667 93.5 53v282h-280v202h573v-562zM1013 1917l2 -6c3.33301 -84.667 -26.167 -153.834 -88.5 -207.501s-146.166 -80.5 -251.499 -80.5c-106 0 -190.333 26.833 -253 80.5s-92 122.834 -88 207.501l2 6h213c0 -35.333 10.167 -64.333 30.5 -87
s52.166 -34 95.499 -34c42 0 73.167 11.333 93.5 34s30.5 51.667 30.5 87h214z" />
    <glyph glyph-name="gbreve" unicode="&#x11f;" 
d="M69 532c0 170.667 36.999 308.333 110.999 413s178 157 312 157c60.667 0 114 -13.667 160 -41s85.333 -66.333 118 -117l23 138h251v-1077c0 -140.667 -46 -249.5 -138 -326.5s-220.333 -115.5 -385 -115.5c-54.667 0 -112.667 7.5 -174 22.5s-118 35.5 -170 61.5
l49 218c44.667 -21.333 90.834 -37.5 138.501 -48.5s99.167 -16.5 154.5 -16.5c80 0 138.833 16.667 176.5 50s56.5 85.333 56.5 156v98c-32 -40.667 -69.667 -71.667 -113 -93s-93 -32 -149 -32c-132.667 0 -236 48.667 -310 146s-111 226 -111 386v21zM360.999 510.999
c0 -94.667 15.833 -169.166 47.5 -223.499s83.5 -81.5 155.5 -81.5c44.667 0 82.5 8.16699 113.5 24.5s55.833 40.166 74.5 71.499v469c-18.667 33.333 -43.5 59 -74.5 77s-68.167 27 -111.5 27c-71.333 0 -123.333 -31.667 -156 -95s-49 -146 -49 -248v-21zM895.999 1574
l2 -6c3.33301 -84.667 -26.167 -153.834 -88.5 -207.501s-146.166 -80.5 -251.499 -80.5c-106 0 -190.333 26.833 -253 80.5s-92 122.834 -88 207.501l2 6h213c0 -35.333 10.167 -64.333 30.5 -87s52.166 -34 95.499 -34c42 0 73.167 11.333 93.5 34s30.5 51.667 30.5 87
h214z" />
    <glyph glyph-name="uni0120" unicode="&#x120;" horiz-adv-x="1364" 
d="M1250 199c-45.333 -59.333 -113.001 -110.834 -203.001 -154.501s-206 -65.5 -348 -65.5c-176 0 -320 55.333 -432 166s-168 254.334 -168 431.001v304c0 176 54.333 319.5 163 430.5s248.334 166.5 419.001 166.5c178 0 314.333 -42.167 409 -126.5
s140.334 -196.833 137.001 -337.5l-2 -6h-275c0 77.333 -22.333 137.5 -67 180.5s-109.667 64.5 -195 64.5c-89.333 0 -161.333 -34.5 -216 -103.5s-82 -157.833 -82 -266.5v-306c0 -110 28 -199.667 84 -269s131 -104 225 -104c69.333 0 124.166 7 164.499 21
s71.5 31.667 93.5 53v282h-280v202h573v-562zM837.999 1622h-327v241h327v-241z" />
    <glyph glyph-name="uni0121" unicode="&#x121;" 
d="M69 532c0 170.667 36.999 308.333 110.999 413s178 157 312 157c60.667 0 114 -13.667 160 -41s85.333 -66.333 118 -117l23 138h251v-1077c0 -140.667 -46 -249.5 -138 -326.5s-220.333 -115.5 -385 -115.5c-54.667 0 -112.667 7.5 -174 22.5s-118 35.5 -170 61.5
l49 218c44.667 -21.333 90.834 -37.5 138.501 -48.5s99.167 -16.5 154.5 -16.5c80 0 138.833 16.667 176.5 50s56.5 85.333 56.5 156v98c-32 -40.667 -69.667 -71.667 -113 -93s-93 -32 -149 -32c-132.667 0 -236 48.667 -310 146s-111 226 -111 386v21zM360.999 510.999
c0 -94.667 15.833 -169.166 47.5 -223.499s83.5 -81.5 155.5 -81.5c44.667 0 82.5 8.16699 113.5 24.5s55.833 40.166 74.5 71.499v469c-18.667 33.333 -43.5 59 -74.5 77s-68.167 27 -111.5 27c-71.333 0 -123.333 -31.667 -156 -95s-49 -146 -49 -248v-21zM720.999 1279
h-327v241h327v-241z" />
    <glyph glyph-name="Gcommaaccent" unicode="&#x122;" horiz-adv-x="1364" 
d="M1250 199c-45.333 -59.333 -113.001 -110.834 -203.001 -154.501s-206 -65.5 -348 -65.5c-176 0 -320 55.333 -432 166s-168 254.334 -168 431.001v304c0 176 54.333 319.5 163 430.5s248.334 166.5 419.001 166.5c178 0 314.333 -42.167 409 -126.5
s140.334 -196.833 137.001 -337.5l-2 -6h-275c0 77.333 -22.333 137.5 -67 180.5s-109.667 64.5 -195 64.5c-89.333 0 -161.333 -34.5 -216 -103.5s-82 -157.833 -82 -266.5v-306c0 -110 28 -199.667 84 -269s131 -104 225 -104c69.333 0 124.166 7 164.499 21
s71.5 31.667 93.5 53v282h-280v202h573v-562zM777.999 -267.001l-129 -235h-122l61 245v151h190v-161z" />
    <glyph glyph-name="gcommaaccent" unicode="&#x123;" 
d="M69 532c0 170.667 36.999 308.333 110.999 413s178 157 312 157c60.667 0 114 -13.667 160 -41s85.333 -66.333 118 -117l23 138h251v-1077c0 -140.667 -46 -249.5 -138 -326.5s-220.333 -115.5 -385 -115.5c-54.667 0 -112.667 7.5 -174 22.5s-118 35.5 -170 61.5
l49 218c44.667 -21.333 90.834 -37.5 138.501 -48.5s99.167 -16.5 154.5 -16.5c80 0 138.833 16.667 176.5 50s56.5 85.333 56.5 156v98c-32 -40.667 -69.667 -71.667 -113 -93s-93 -32 -149 -32c-132.667 0 -236 48.667 -310 146s-111 226 -111 386v21zM360.999 510.999
c0 -94.667 15.833 -169.166 47.5 -223.499s83.5 -81.5 155.5 -81.5c44.667 0 82.5 8.16699 113.5 24.5s55.833 40.166 74.5 71.499v469c-18.667 33.333 -43.5 59 -74.5 77s-68.167 27 -111.5 27c-71.333 0 -123.333 -31.667 -156 -95s-49 -146 -49 -248v-21zM431.999 1433
l115 260h159l-35 -270v-165h-239v175z" />
    <glyph glyph-name="Hcircumflex" unicode="&#x124;" horiz-adv-x="1445" 
d="M1311 0h-292v605h-593v-605h-292v1456h292v-626h593v626h292v-1456zM1092 1615v-23h-232l-140 133l-139 -133h-227v26l282 240h169z" />
    <glyph glyph-name="hcircumflex" unicode="&#x125;" 
d="M397 945c34 49.333 75.667 87.833 125 115.5s104 41.5 164 41.5c112.667 0 201.167 -37.5 265.5 -112.5s96.5 -190.833 96.5 -347.5v-642h-292v644c0 84 -13.5 143.5 -40.5 178.5s-67.5 52.5 -121.5 52.5c-44.667 0 -83.5 -7.16699 -116.5 -21.5
s-59.833 -34.833 -80.5 -61.5v-792h-292v1560h292v-615zM890 1616v-23h-232l-140 133l-139 -133h-227v26l282 240h169z" />
    <glyph glyph-name="Hbar" unicode="&#x126;" horiz-adv-x="1445" 
d="M1319 1199h119v-171h-119v-1028h-292v605h-593v-605h-292v1028h-126v171h126v257h292v-257h593v257h292v-257zM434 830h593v198h-593v-198z" />
    <glyph glyph-name="hbar" unicode="&#x127;" 
d="M658 1217h-261v-272c34 49.333 75.667 87.833 125 115.5s104 41.5 164 41.5c112.667 0 201.167 -37.5 265.5 -112.5s96.5 -190.833 96.5 -347.5v-642h-292v644c0 84 -13.5 143.5 -40.5 178.5s-67.5 52.5 -121.5 52.5c-44.667 0 -83.5 -7.16699 -116.5 -21.5
s-59.833 -34.833 -80.5 -61.5v-792h-292v1217h-118v181h118v162h292v-162h261v-181z" />
    <glyph glyph-name="Itilde" unicode="&#x128;" horiz-adv-x="601" 
d="M446 0h-292v1456h292v-1456zM675 1856c0 -64 -19.832 -118.499 -59.499 -163.499s-89.834 -67.5 -150.501 -67.5c-46.667 0 -99.5 14.5 -158.5 43.5s-105.833 43.5 -140.5 43.5c-24 0 -44 -10.833 -60 -32.5s-24 -47.5 -24 -77.5l-156 42
c0 62.667 19.833 117.167 59.5 163.5s89.5 69.5 149.5 69.5c37.333 0 88 -14.5 152 -43.5s113.333 -43.5 148 -43.5c22.667 0 42.667 10.667 60 32s26 47.666 26 78.999z" />
    <glyph glyph-name="itilde" unicode="&#x129;" horiz-adv-x="562" 
d="M425 0h-292v1082h292v-1082zM655 1513c0 -64 -19.832 -118.499 -59.499 -163.499s-89.834 -67.5 -150.501 -67.5c-46.667 0 -99.5 14.5 -158.5 43.5s-105.833 43.5 -140.5 43.5c-24 0 -44 -10.833 -60 -32.5s-24 -47.5 -24 -77.5l-156 42
c0 62.667 19.833 117.167 59.5 163.5s89.5 69.5 149.5 69.5c37.333 0 88 -14.5 152 -43.5s113.333 -43.5 148 -43.5c22.667 0 42.667 10.667 60 32s26 47.666 26 78.999z" />
    <glyph glyph-name="Imacron" unicode="&#x12a;" horiz-adv-x="601" 
d="M446 0h-292v1456h292v-1456zM668 1613h-731v165h731v-165z" />
    <glyph glyph-name="imacron" unicode="&#x12b;" horiz-adv-x="562" 
d="M425 0h-292v1082h292v-1082zM648 1271h-731v165h731v-165z" />
    <glyph glyph-name="Ibreve" unicode="&#x12c;" horiz-adv-x="601" 
d="M446 0h-292v1456h292v-1456zM640 1896l2 -6c3.33301 -84.667 -26.167 -153.834 -88.5 -207.501s-146.166 -80.5 -251.499 -80.5c-106 0 -190.333 26.833 -253 80.5s-92 122.834 -88 207.501l2 6h213c0 -35.333 10.167 -64.333 30.5 -87s52.166 -34 95.499 -34
c42 0 73.167 11.333 93.5 34s30.5 51.667 30.5 87h214z" />
    <glyph glyph-name="ibreve" unicode="&#x12d;" horiz-adv-x="562" 
d="M425 0h-292v1082h292v-1082zM620 1553l2 -6c3.33301 -84.667 -26.167 -153.834 -88.5 -207.501s-146.166 -80.5 -251.499 -80.5c-106 0 -190.333 26.833 -253 80.5s-92 122.834 -88 207.501l2 6h213c0 -35.333 10.167 -64.333 30.5 -87s52.166 -34 95.499 -34
c42 0 73.167 11.333 93.5 34s30.5 51.667 30.5 87h214z" />
    <glyph glyph-name="Iogonek" unicode="&#x12e;" horiz-adv-x="601" 
d="M446 0h-292v1456h292v-1456zM362 0c-36 -35.333 -62.3311 -65.3311 -78.998 -89.998s-25 -53.334 -25 -86.001c0 -18 5.66699 -34.167 17 -48.5s34.333 -21.5 69 -21.5c18.667 0 35.167 2 49.5 6s29.166 8.66699 44.499 14l35 -154
c-24 -12.667 -50.833 -23.167 -80.5 -31.5s-64.834 -12.5 -105.501 -12.5c-72 0 -131.167 18.833 -177.5 56.5s-69.5 90.167 -69.5 157.5c0 51.333 15.333 100.166 46 146.499s78.667 87.5 144 123.5z" />
    <glyph glyph-name="iogonek" unicode="&#x12f;" horiz-adv-x="547" 
d="M419 0h-292v1082h292v-1082zM419 1341h-292v219h292v-219zM335 0c-36 -35.333 -62.3311 -65.3311 -78.998 -89.998s-25 -53.334 -25 -86.001c0 -18 5.66699 -34.167 17 -48.5s34.333 -21.5 69 -21.5c18.667 0 35.167 2 49.5 6s29.166 8.66699 44.499 14l35 -154
c-24 -12.667 -50.833 -23.167 -80.5 -31.5s-64.834 -12.5 -105.501 -12.5c-72 0 -131.167 18.833 -177.5 56.5s-69.5 90.167 -69.5 157.5c0 51.333 15.333 100.166 46 146.499s78.667 87.5 144 123.5z" />
    <glyph glyph-name="Idotaccent" unicode="&#x130;" horiz-adv-x="601" 
d="M446 0h-292v1456h292v-1456zM465 1601h-327v241h327v-241z" />
    <glyph glyph-name="dotlessi" unicode="&#x131;" horiz-adv-x="562" 
d="M425 0h-292v1082h292v-1082z" />
    <glyph glyph-name="IJ" unicode="&#x132;" horiz-adv-x="1738" 
d="M446 0h-292v1456h292v-1456zM1315 1456h291v-1005c0 -144 -44.167 -258.667 -132.5 -344s-201.833 -128 -340.5 -128c-154 0 -276 38 -366 114s-133.333 186.333 -130 331l2 6h284c0 -77.333 19 -134.5 57 -171.5s89 -55.5 153 -55.5c53.333 0 97 22.167 131 66.5
s51 104.833 51 181.5v1005z" />
    <glyph glyph-name="ij" unicode="&#x133;" horiz-adv-x="1090" 
d="M419 0h-292v1082h292v-1082zM419 1341h-292v219h292v-219zM974 1082l0.00292969 -1122c0 -126.667 -33.667 -224.5 -101 -293.5s-161 -103.5 -281 -103.5c-26.667 0 -51 1.33301 -73 4s-45.333 7 -70 13l14 223c15.333 -4 30.666 -7 45.999 -9s31.666 -3 48.999 -3
c39.333 0 69.666 13.833 90.999 41.5s32 70.167 32 127.5v1122h293zM968.003 1343h-293v217h293v-217z" />
    <glyph glyph-name="Jcircumflex" unicode="&#x134;" horiz-adv-x="1137" 
d="M714 1456h291v-1005c0 -144 -44.167 -258.667 -132.5 -344s-201.833 -128 -340.5 -128c-154 0 -276 38 -366 114s-133.333 186.333 -130 331l2 6h284c0 -77.333 19 -134.5 57 -171.5s89 -55.5 153 -55.5c53.333 0 97 22.167 131 66.5s51 104.833 51 181.5v1005z
M1214 1611v-23h-232l-140 133l-139 -133h-227v26l282 240h169z" />
    <glyph glyph-name="jcircumflex" unicode="&#x135;" horiz-adv-x="578" 
d="M441 1082l0.000976562 -1122c0 -126.667 -33.667 -224.5 -101 -293.5s-160.666 -103.5 -279.999 -103.5c-27.333 0 -51.833 1.33301 -73.5 4s-45.167 7 -70.5 13l15 221c15.333 -4 31.166 -7.16699 47.499 -9.5s33.166 -3.5 50.499 -3.5c38 0 67.667 15 89 45
s32 72.333 32 127v1122h291zM647.001 1265v-23h-232l-140 133l-139 -133h-227v26l282 240h169z" />
    <glyph glyph-name="Kcommaaccent" unicode="&#x136;" horiz-adv-x="1305" 
d="M533 608h-107v-608h-292v1456h292v-595h82l399 595h361l-504 -677l543 -779h-372zM732 -255l-129 -235h-122l61 245v151h190v-161z" />
    <glyph glyph-name="kcommaaccent" unicode="&#x137;" horiz-adv-x="1097" 
d="M478 453h-74v-453h-292v1560h292v-885h65l259 407h338l-352 -493l400 -589h-336zM654 -254l-129 -235h-122l61 245v151h190v-161z" />
    <glyph glyph-name="kgreenlandic" unicode="&#x138;" horiz-adv-x="1210" 
d="M537 405h-116v-405h-292v1082h292v-412h87l279 412h368l-384 -507l401 -575h-374z" />
    <glyph glyph-name="Lacute" unicode="&#x139;" horiz-adv-x="1138" 
d="M426 224h652v-224h-944v1456h292v-1232zM340 1843h325l2 -6l-277 -260h-249z" />
    <glyph glyph-name="lacute" unicode="&#x13a;" horiz-adv-x="547" 
d="M419 0h-292v1560h292v-1560zM331 1894h325l2 -6l-277 -260h-249z" />
    <glyph glyph-name="Lcommaaccent" unicode="&#x13b;" horiz-adv-x="1138" 
d="M426 224h652v-224h-944v1456h292v-1232zM693 -254l-129 -235h-122l61 245v151h190v-161z" />
    <glyph glyph-name="lcommaaccent" unicode="&#x13c;" horiz-adv-x="547" 
d="M419 0h-292v1560h292v-1560zM361 -254l-129 -235h-122l61 245v151h190v-161z" />
    <glyph glyph-name="Lcaron" unicode="&#x13d;" horiz-adv-x="1138" 
d="M426 224h652v-224h-944v1456h292v-1232zM864 1297l-129 -235h-122l61 245v151h190v-161z" />
    <glyph glyph-name="lcaron" unicode="&#x13e;" horiz-adv-x="547" 
d="M419 0h-292v1560h292v-1560zM762 1398l-129 -235h-122l61 245v151h190v-161z" />
    <glyph glyph-name="Ldot" unicode="&#x13f;" horiz-adv-x="1138" 
d="M426 224h652v-224h-944v1456h292v-1232zM925 680h-327v241h327v-241z" />
    <glyph glyph-name="ldot" unicode="&#x140;" horiz-adv-x="547" 
d="M419 0h-292v1560h292v-1560zM720 628h-327v241h327v-241z" />
    <glyph glyph-name="Lslash" unicode="&#x141;" horiz-adv-x="1040" 
d="M419 884l243 70v-195l-243 -70v-465h652v-224h-944v605l-115 -33v195l115 33v656h292v-572z" />
    <glyph glyph-name="lslash" unicode="&#x142;" horiz-adv-x="594" 
d="M439 907l141 47v-195l-141 -47v-712h-292v615l-132 -43v195l132 43v750h292v-653z" />
    <glyph glyph-name="Nacute" unicode="&#x143;" horiz-adv-x="1445" 
d="M1311 0h-292l-587 982l-6 -1v-981h-292v1456h292l587 -981l6 1v980h292v-1456zM780 1866h325l2 -6l-277 -260h-249z" />
    <glyph glyph-name="nacute" unicode="&#x144;" 
d="M379 1082l13.001 -154.999c36 55.333 80.333 98.333 133 129s111.667 46 177 46c109.333 0 194.666 -35.167 255.999 -105.5s92 -181.5 92 -333.5v-663h-293v662c0 77.333 -13.5 132.166 -40.5 164.499s-67.5 48.5 -121.5 48.5c-43.333 0 -81.5 -8.16699 -114.5 -24.5
s-60.167 -38.833 -81.5 -67.5v-783h-292v1082h272zM635.001 1544h325l2 -6l-277 -260h-249z" />
    <glyph glyph-name="Ncommaaccent" unicode="&#x145;" horiz-adv-x="1445" 
d="M1311 0h-292l-587 982l-6 -1v-981h-292v1456h292l587 -981l6 1v980h292v-1456zM810 -254l-129 -235h-122l61 245v151h190v-161z" />
    <glyph glyph-name="ncommaaccent" unicode="&#x146;" 
d="M379 1082l13.001 -154.999c36 55.333 80.333 98.333 133 129s111.667 46 177 46c109.333 0 194.666 -35.167 255.999 -105.5s92 -181.5 92 -333.5v-663h-293v662c0 77.333 -13.5 132.166 -40.5 164.499s-67.5 48.5 -121.5 48.5c-43.333 0 -81.5 -8.16699 -114.5 -24.5
s-60.167 -38.833 -81.5 -67.5v-783h-292v1082h272zM665.001 -253.999l-129 -235h-122l61 245v151h190v-161z" />
    <glyph glyph-name="Ncaron" unicode="&#x147;" horiz-adv-x="1445" 
d="M1311 0h-292l-587 982l-6 -1v-981h-292v1456h292l587 -981l6 1v980h292v-1456zM721 1746l117 127h264v-17l-281 -255h-199l-281 256v16h264z" />
    <glyph glyph-name="ncaron" unicode="&#x148;" 
d="M379 1082l13.001 -154.999c36 55.333 80.333 98.333 133 129s111.667 46 177 46c109.333 0 194.666 -35.167 255.999 -105.5s92 -181.5 92 -333.5v-663h-293v662c0 77.333 -13.5 132.166 -40.5 164.499s-67.5 48.5 -121.5 48.5c-43.333 0 -81.5 -8.16699 -114.5 -24.5
s-60.167 -38.833 -81.5 -67.5v-783h-292v1082h272zM576.001 1424l117 127h264v-17l-281 -255h-199l-281 256v16h264z" />
    <glyph glyph-name="napostrophe" unicode="&#x149;" 
d="M379 1082l13.001 -154.999c36 55.333 80.333 98.333 133 129s111.667 46 177 46c109.333 0 194.666 -35.167 255.999 -105.5s92 -181.5 92 -333.5v-663h-293v662c0 77.333 -13.5 132.166 -40.5 164.499s-67.5 48.5 -121.5 48.5c-43.333 0 -81.5 -8.16699 -114.5 -24.5
s-60.167 -38.833 -81.5 -67.5v-783h-292v1082h272zM224.001 1398l-129 -235h-122l61 245v151h190v-161z" />
    <glyph glyph-name="Eng" unicode="&#x14a;" horiz-adv-x="1438" 
d="M1308 1456l-0.000976562 -1496c0 -126.667 -33.667 -224.5 -101 -293.5s-160.666 -103.5 -279.999 -103.5c-27.333 0 -52.333 1.33301 -75 4s-46 7 -70 13l14 221c15.333 -4 31.333 -7.16699 48 -9.5s34 -3.5 52 -3.5c38 0 67.667 15 89 45s32 72.333 32 127v40l-587 982
l-6 -1v-981h-293v1456h293l587 -981l6 1v980h291z" />
    <glyph glyph-name="eng" unicode="&#x14b;" 
d="M379 1082l13 -152c35.333 54 79.333 96.167 132 126.5s111.334 45.5 176.001 45.5c109.333 0 194.666 -35.167 255.999 -105.5s92 -181.5 92 -333.5v-703c0 -126.667 -33.667 -224.5 -101 -293.5s-161 -103.5 -281 -103.5c-26.667 0 -51.334 1.33301 -74.001 4
s-46 7 -70 13l14 224c14.667 -4 30.334 -7 47.001 -9s34 -3 52 -3c38.667 0 68.334 14.333 89.001 43s31 70.334 31 125.001v702c0 77.333 -13.5 132.166 -40.5 164.499s-67.5 48.5 -121.5 48.5c-42.667 0 -80.334 -7.83301 -113.001 -23.5s-59.667 -37.5 -81 -65.5v-786
h-292v1082h272z" />
    <glyph glyph-name="Omacron" unicode="&#x14c;" horiz-adv-x="1409" 
d="M1312 597c0 -179.333 -56.332 -327.168 -168.999 -443.501s-259.334 -174.5 -440.001 -174.5c-180 0 -326 58.333 -438 175s-168 264.334 -168 443.001v262c0 178 55.833 325.5 167.5 442.5s257.167 175.5 436.5 175.5c180.667 0 327.667 -58.5 441 -175.5
s170 -264.5 170 -442.5v-262zM1021 860.998c0 113.333 -28.332 206.333 -84.999 279s-135 109 -235 109c-98.667 0 -175.5 -36.333 -230.5 -109s-82.5 -165.667 -82.5 -279v-264c0 -115.333 27.667 -209.333 83 -282s132.666 -109 231.999 -109c100 0 178 36.333 234 109
s84 166.667 84 282v264zM1072 1634h-731v165h731v-165z" />
    <glyph glyph-name="omacron" unicode="&#x14d;" 
d="M67 551c0 161.333 44.999 293.5 134.999 396.5s214.667 154.5 374 154.5c160 0 285.333 -51.333 376 -154s136 -235 136 -397v-21c0 -162.667 -45.167 -295.167 -135.5 -397.5s-215.166 -153.5 -374.499 -153.5c-160 0 -285.167 51.167 -375.5 153.5
s-135.5 234.833 -135.5 397.5v21zM357.999 530c0 -98.667 17.333 -177.833 52 -237.5s90.667 -89.5 168 -89.5c75.333 0 130.5 30 165.5 90s52.5 139 52.5 237v21c0 96 -17.667 174.333 -53 235s-91 91 -167 91c-75.333 0 -130.5 -30.5 -165.5 -91.5
s-52.5 -139.167 -52.5 -234.5v-21zM943.999 1292h-731v165h731v-165z" />
    <glyph glyph-name="Obreve" unicode="&#x14e;" horiz-adv-x="1409" 
d="M1312 597c0 -179.333 -56.332 -327.168 -168.999 -443.501s-259.334 -174.5 -440.001 -174.5c-180 0 -326 58.333 -438 175s-168 264.334 -168 443.001v262c0 178 55.833 325.5 167.5 442.5s257.167 175.5 436.5 175.5c180.667 0 327.667 -58.5 441 -175.5
s170 -264.5 170 -442.5v-262zM1021 860.998c0 113.333 -28.332 206.333 -84.999 279s-135 109 -235 109c-98.667 0 -175.5 -36.333 -230.5 -109s-82.5 -165.667 -82.5 -279v-264c0 -115.333 27.667 -209.333 83 -282s132.666 -109 231.999 -109c100 0 178 36.333 234 109
s84 166.667 84 282v264zM1044 1917l2 -6c3.33301 -84.667 -26.167 -153.834 -88.5 -207.501s-146.166 -80.5 -251.499 -80.5c-106 0 -190.333 26.833 -253 80.5s-92 122.834 -88 207.501l2 6h213c0 -35.333 10.167 -64.333 30.5 -87s52.166 -34 95.499 -34
c42 0 73.167 11.333 93.5 34s30.5 51.667 30.5 87h214z" />
    <glyph glyph-name="obreve" unicode="&#x14f;" 
d="M67 551c0 161.333 44.999 293.5 134.999 396.5s214.667 154.5 374 154.5c160 0 285.333 -51.333 376 -154s136 -235 136 -397v-21c0 -162.667 -45.167 -295.167 -135.5 -397.5s-215.166 -153.5 -374.499 -153.5c-160 0 -285.167 51.167 -375.5 153.5
s-135.5 234.833 -135.5 397.5v21zM357.999 530c0 -98.667 17.333 -177.833 52 -237.5s90.667 -89.5 168 -89.5c75.333 0 130.5 30 165.5 90s52.5 139 52.5 237v21c0 96 -17.667 174.333 -53 235s-91 91 -167 91c-75.333 0 -130.5 -30.5 -165.5 -91.5
s-52.5 -139.167 -52.5 -234.5v-21zM915.999 1574l2 -6c3.33301 -84.667 -26.167 -153.834 -88.5 -207.501s-146.166 -80.5 -251.499 -80.5c-106 0 -190.333 26.833 -253 80.5s-92 122.834 -88 207.501l2 6h213c0 -35.333 10.167 -64.333 30.5 -87s52.166 -34 95.499 -34
c42 0 73.167 11.333 93.5 34s30.5 51.667 30.5 87h214z" />
    <glyph glyph-name="Ohungarumlaut" unicode="&#x150;" horiz-adv-x="1409" 
d="M1312 597c0 -179.333 -56.332 -327.168 -168.999 -443.501s-259.334 -174.5 -440.001 -174.5c-180 0 -326 58.333 -438 175s-168 264.334 -168 443.001v262c0 178 55.833 325.5 167.5 442.5s257.167 175.5 436.5 175.5c180.667 0 327.667 -58.5 441 -175.5
s170 -264.5 170 -442.5v-262zM1021 860.998c0 113.333 -28.332 206.333 -84.999 279s-135 109 -235 109c-98.667 0 -175.5 -36.333 -230.5 -109s-82.5 -165.667 -82.5 -279v-264c0 -115.333 27.667 -209.333 83 -282s132.666 -109 231.999 -109c100 0 178 36.333 234 109
s84 166.667 84 282v264zM982.002 1888h279l2 -6l-285 -260h-234l-2 5zM594.002 1888h275l2 -5l-240 -261h-235z" />
    <glyph glyph-name="ohungarumlaut" unicode="&#x151;" 
d="M67 551c0 161.333 44.999 293.5 134.999 396.5s214.667 154.5 374 154.5c160 0 285.333 -51.333 376 -154s136 -235 136 -397v-21c0 -162.667 -45.167 -295.167 -135.5 -397.5s-215.166 -153.5 -374.499 -153.5c-160 0 -285.167 51.167 -375.5 153.5
s-135.5 234.833 -135.5 397.5v21zM357.999 530c0 -98.667 17.333 -177.833 52 -237.5s90.667 -89.5 168 -89.5c75.333 0 130.5 30 165.5 90s52.5 139 52.5 237v21c0 96 -17.667 174.333 -53 235s-91 91 -167 91c-75.333 0 -130.5 -30.5 -165.5 -91.5
s-52.5 -139.167 -52.5 -234.5v-21zM853.999 1545h279l2 -6l-285 -260h-234l-2 5zM465.999 1545h275l2 -5l-240 -261h-235z" />
    <glyph glyph-name="OE" unicode="&#x152;" horiz-adv-x="1984" 
d="M1803 0l-812 0.000976562c-61.333 -6.66699 -113.5 -11.834 -156.5 -15.501s-86.833 -5.5 -131.5 -5.5c-180 0 -326 55.167 -438 165.5s-168 254.166 -168 431.499v304c0 176.667 55.667 320.334 167 431.001s257 166 437 166c46 0 92.667 -2 140 -6s97.333 -9 150 -15
h810v-225h-640v-366h540v-225h-540v-416h642v-224zM703 204.001c28 0 55.999 0.666992 83.999 2s55.333 3.66602 82 6.99902v1029c-29.333 2.66699 -57.833 5 -85.5 7s-55.167 3 -82.5 3c-98.667 0 -175.5 -31.5 -230.5 -94.5s-82.5 -154.833 -82.5 -275.5v-306
c0 -121.333 27.833 -213.666 83.5 -276.999s132.834 -95 231.501 -95z" />
    <glyph glyph-name="oe" unicode="&#x153;" horiz-adv-x="1848" 
d="M1361 -21c-86 0 -162.502 14.668 -229.502 44.001s-122.5 71 -166.5 125c-44.667 -54 -99.667 -95.667 -165 -125s-139.333 -44 -222 -44c-160 0 -285.167 51.167 -375.5 153.5s-135.5 234.833 -135.5 397.5v21c0 161.333 45 293.5 135 396.5s214.667 154.5 374 154.5
c83.333 0 158 -14.833 224 -44.5s121.333 -71.5 166 -125.5c42.667 54.667 95.834 96.667 159.501 126s135.834 44 216.501 44c145.333 0 256.833 -44.5 334.5 -133.5s116.5 -208.833 116.5 -359.5v-151h-645l-3 -6c4.66699 -74 27.167 -134 67.5 -180
s100.166 -69 179.499 -69c65.333 0 120.833 6.66699 166.5 20s92.834 33.666 141.501 60.999l79 -180c-43.333 -35.333 -102 -65 -176 -89s-154.667 -36 -242 -36zM357.998 530.001c0 -98.667 17.333 -177.833 52 -237.5s90.667 -89.5 168 -89.5c75.333 0 130.5 30 165.5 90
s52.5 139 52.5 237v21c0 96 -17.667 174.333 -53 235s-91 91 -167 91c-75.333 0 -130.5 -30.5 -165.5 -91.5s-52.5 -139.167 -52.5 -234.5v-21zM1342 877.002c-58.667 0 -103.832 -20.166 -135.499 -60.499s-50.834 -93.833 -57.501 -160.5l2 -5h356v22
c0 63.333 -13 113.166 -39 149.499s-68 54.5 -126 54.5z" />
    <glyph glyph-name="Racute" unicode="&#x154;" horiz-adv-x="1305" 
d="M426 582l0.00195312 -582.003h-292v1456h504c166 0 295.833 -37.833 389.5 -113.5s140.5 -181.167 140.5 -316.5c0 -74.667 -19.833 -139.167 -59.5 -193.5s-97.5 -98.166 -173.5 -131.499c86 -25.333 147.833 -67.666 185.5 -126.999s56.5 -132.666 56.5 -219.999v-107
c0 -40.667 5.5 -83.167 16.5 -127.5s29.833 -77.166 56.5 -98.499v-21h-301c-26.667 21.333 -43.834 56.666 -51.501 105.999s-11.5 97 -11.5 143v103c0 72.667 -19.833 129.167 -59.5 169.5s-95.834 60.5 -168.501 60.5h-232zM426.002 806.997h207c82 0 143 17.333 183 52
s60 86 60 154c0 66.667 -20.167 119.667 -60.5 159s-99.5 59 -177.5 59h-212v-424zM686.002 1866h325l2 -6l-277 -260h-249z" />
    <glyph glyph-name="racute" unicode="&#x155;" horiz-adv-x="721" 
d="M681 831l-106.999 2.99805c-43.333 0 -79 -9 -107 -27s-49.333 -43.333 -64 -76v-731h-291v1082h271l13 -160c25.333 56.667 58.166 100.834 98.499 132.501s86.833 47.5 139.5 47.5c14.667 0 28.167 -1.16699 40.5 -3.5s24.833 -5.16602 37.5 -8.49902zM470.001 1544
h325l2 -6l-277 -260h-249z" />
    <glyph glyph-name="Rcommaaccent" unicode="&#x156;" horiz-adv-x="1305" 
d="M426 582l0.00195312 -582.003h-292v1456h504c166 0 295.833 -37.833 389.5 -113.5s140.5 -181.167 140.5 -316.5c0 -74.667 -19.833 -139.167 -59.5 -193.5s-97.5 -98.166 -173.5 -131.499c86 -25.333 147.833 -67.666 185.5 -126.999s56.5 -132.666 56.5 -219.999v-107
c0 -40.667 5.5 -83.167 16.5 -127.5s29.833 -77.166 56.5 -98.499v-21h-301c-26.667 21.333 -43.834 56.666 -51.501 105.999s-11.5 97 -11.5 143v103c0 72.667 -19.833 129.167 -59.5 169.5s-95.834 60.5 -168.501 60.5h-232zM426.002 806.997h207c82 0 143 17.333 183 52
s60 86 60 154c0 66.667 -20.167 119.667 -60.5 159s-99.5 59 -177.5 59h-212v-424zM716.002 -254.003l-129 -235h-122l61 245v151h190v-161z" />
    <glyph glyph-name="rcommaaccent" unicode="&#x157;" horiz-adv-x="721" 
d="M681 831l-106.999 2.99805c-43.333 0 -79 -9 -107 -27s-49.333 -43.333 -64 -76v-731h-291v1082h271l13 -160c25.333 56.667 58.166 100.834 98.499 132.501s86.833 47.5 139.5 47.5c14.667 0 28.167 -1.16699 40.5 -3.5s24.833 -5.16602 37.5 -8.49902z
M359.001 -254.002l-129 -235h-122l61 245v151h190v-161z" />
    <glyph glyph-name="Rcaron" unicode="&#x158;" horiz-adv-x="1305" 
d="M426 582l0.00195312 -582.003h-292v1456h504c166 0 295.833 -37.833 389.5 -113.5s140.5 -181.167 140.5 -316.5c0 -74.667 -19.833 -139.167 -59.5 -193.5s-97.5 -98.166 -173.5 -131.499c86 -25.333 147.833 -67.666 185.5 -126.999s56.5 -132.666 56.5 -219.999v-107
c0 -40.667 5.5 -83.167 16.5 -127.5s29.833 -77.166 56.5 -98.499v-21h-301c-26.667 21.333 -43.834 56.666 -51.501 105.999s-11.5 97 -11.5 143v103c0 72.667 -19.833 129.167 -59.5 169.5s-95.834 60.5 -168.501 60.5h-232zM426.002 806.997h207c82 0 143 17.333 183 52
s60 86 60 154c0 66.667 -20.167 119.667 -60.5 159s-99.5 59 -177.5 59h-212v-424zM627.002 1746l117 127h264v-17l-281 -255h-199l-281 256v16h264z" />
    <glyph glyph-name="rcaron" unicode="&#x159;" horiz-adv-x="721" 
d="M681 831l-106.999 2.99805c-43.333 0 -79 -9 -107 -27s-49.333 -43.333 -64 -76v-731h-291v1082h271l13 -160c25.333 56.667 58.166 100.834 98.499 132.501s86.833 47.5 139.5 47.5c14.667 0 28.167 -1.16699 40.5 -3.5s24.833 -5.16602 37.5 -8.49902zM412.001 1424
l117 127h264v-17l-281 -255h-199l-281 256v16h264z" />
    <glyph glyph-name="Sacute" unicode="&#x15a;" horiz-adv-x="1266" 
d="M893 380c0 56 -19.501 100.997 -58.501 134.997s-107.5 66 -205.5 96c-168 50.667 -295.5 110.334 -382.5 179.001s-130.5 162.334 -130.5 281.001c0 119.333 49 216.833 147 292.5s223 113.5 375 113.5c161.333 0 291.166 -40.667 389.499 -122s145.833 -188 142.5 -320
l-2 -6h-283c0 72.667 -22 128.5 -66 167.5s-105.667 58.5 -185 58.5c-72 0 -127.667 -17.333 -167 -52s-59 -79 -59 -133c0 -49.333 21.333 -89.833 64 -121.5s116.334 -65.167 221.001 -100.5c160 -45.333 282 -104.5 366 -177.5s126 -169.167 126 -288.5
c0 -124.667 -48.667 -223 -146 -295s-226 -108 -386 -108c-156.667 0 -291.167 39 -403.5 117s-166.833 194.333 -163.5 349l2 6h283c0 -86 25.333 -149.333 76 -190s119.334 -61 206.001 -61c78 0 137.5 16.333 178.5 49s61.5 76.334 61.5 131.001zM689.999 1887h325l2 -6
l-277 -260h-249z" />
    <glyph glyph-name="sacute" unicode="&#x15b;" horiz-adv-x="1056" 
d="M697 300c0 32 -15.5 59.5029 -46.5 82.5029s-88.5 43.167 -172.5 60.5c-126.667 25.333 -222.834 63.666 -288.501 114.999s-98.5 121 -98.5 209c0 92.667 39.333 171.667 118 237s183.334 98 314.001 98c136.667 0 246.167 -32.667 328.5 -98
s121.833 -146.666 118.5 -243.999l-2 -6h-282c0 43.333 -14 78.666 -42 105.999s-68.333 41 -121 41c-46.667 0 -83.667 -11.667 -111 -35s-41 -52 -41 -86c0 -33.333 14.167 -60.5 42.5 -81.5s85.833 -39.833 172.5 -56.5c132.667 -26.667 231.5 -65.834 296.5 -117.501
s97.5 -122.834 97.5 -213.501c0 -97.333 -41.667 -177 -125 -239s-193.333 -93 -330 -93c-144 0 -257.833 36.5 -341.5 109.5s-123.5 156.167 -119.5 249.5l2 6h267c2 -58 21 -100 57 -126s83 -39 141 -39c54 0 95.167 10.833 123.5 32.5s42.5 51.167 42.5 88.5zM578 1544
h325l2 -6l-277 -260h-249z" />
    <glyph glyph-name="Scircumflex" unicode="&#x15c;" horiz-adv-x="1266" 
d="M893 380c0 56 -19.501 100.997 -58.501 134.997s-107.5 66 -205.5 96c-168 50.667 -295.5 110.334 -382.5 179.001s-130.5 162.334 -130.5 281.001c0 119.333 49 216.833 147 292.5s223 113.5 375 113.5c161.333 0 291.166 -40.667 389.499 -122s145.833 -188 142.5 -320
l-2 -6h-283c0 72.667 -22 128.5 -66 167.5s-105.667 58.5 -185 58.5c-72 0 -127.667 -17.333 -167 -52s-59 -79 -59 -133c0 -49.333 21.333 -89.833 64 -121.5s116.334 -65.167 221.001 -100.5c160 -45.333 282 -104.5 366 -177.5s126 -169.167 126 -288.5
c0 -124.667 -48.667 -223 -146 -295s-226 -108 -386 -108c-156.667 0 -291.167 39 -403.5 117s-166.833 194.333 -163.5 349l2 6h283c0 -86 25.333 -149.333 76 -190s119.334 -61 206.001 -61c78 0 137.5 16.333 178.5 49s61.5 76.334 61.5 131.001zM1004 1636v-23h-232
l-140 133l-139 -133h-227v26l282 240h169z" />
    <glyph glyph-name="scircumflex" unicode="&#x15d;" horiz-adv-x="1056" 
d="M697 300c0 32 -15.5 59.5029 -46.5 82.5029s-88.5 43.167 -172.5 60.5c-126.667 25.333 -222.834 63.666 -288.501 114.999s-98.5 121 -98.5 209c0 92.667 39.333 171.667 118 237s183.334 98 314.001 98c136.667 0 246.167 -32.667 328.5 -98
s121.833 -146.666 118.5 -243.999l-2 -6h-282c0 43.333 -14 78.666 -42 105.999s-68.333 41 -121 41c-46.667 0 -83.667 -11.667 -111 -35s-41 -52 -41 -86c0 -33.333 14.167 -60.5 42.5 -81.5s85.833 -39.833 172.5 -56.5c132.667 -26.667 231.5 -65.834 296.5 -117.501
s97.5 -122.834 97.5 -213.501c0 -97.333 -41.667 -177 -125 -239s-193.333 -93 -330 -93c-144 0 -257.833 36.5 -341.5 109.5s-123.5 156.167 -119.5 249.5l2 6h267c2 -58 21 -100 57 -126s83 -39 141 -39c54 0 95.167 10.833 123.5 32.5s42.5 51.167 42.5 88.5zM892 1293
v-23h-232l-140 133l-139 -133h-227v26l282 240h169z" />
    <glyph glyph-name="Scedilla" unicode="&#x15e;" horiz-adv-x="1266" 
d="M893 380c0 56 -19.501 100.997 -58.501 134.997s-107.5 66 -205.5 96c-168 50.667 -295.5 110.334 -382.5 179.001s-130.5 162.334 -130.5 281.001c0 119.333 49 216.833 147 292.5s223 113.5 375 113.5c161.333 0 291.166 -40.667 389.499 -122s145.833 -188 142.5 -320
l-2 -6h-283c0 72.667 -22 128.5 -66 167.5s-105.667 58.5 -185 58.5c-72 0 -127.667 -17.333 -167 -52s-59 -79 -59 -133c0 -49.333 21.333 -89.833 64 -121.5s116.334 -65.167 221.001 -100.5c160 -45.333 282 -104.5 366 -177.5s126 -169.167 126 -288.5
c0 -124.667 -48.667 -223 -146 -295s-226 -108 -386 -108c-156.667 0 -291.167 39 -403.5 117s-166.833 194.333 -163.5 349l2 6h283c0 -86 25.333 -149.333 76 -190s119.334 -61 206.001 -61c78 0 137.5 16.333 178.5 49s61.5 76.334 61.5 131.001zM744.999 -3.00293
l-11.001 -57.002c42.667 -7.33301 78.334 -24.666 107.001 -51.999s43 -67.666 43 -120.999c0 -71.333 -30.5 -128.333 -91.5 -171s-147.5 -64 -259.5 -64l-7 161c34 0 61 6.83301 81 20.5s30 34.5 30 62.5c0 27.333 -10.667 46.5 -32 57.5s-58 18.167 -110 21.5l31 142h219
z" />
    <glyph glyph-name="scedilla" unicode="&#x15f;" horiz-adv-x="1056" 
d="M697 300c0 32 -15.5 59.5029 -46.5 82.5029s-88.5 43.167 -172.5 60.5c-126.667 25.333 -222.834 63.666 -288.501 114.999s-98.5 121 -98.5 209c0 92.667 39.333 171.667 118 237s183.334 98 314.001 98c136.667 0 246.167 -32.667 328.5 -98
s121.833 -146.666 118.5 -243.999l-2 -6h-282c0 43.333 -14 78.666 -42 105.999s-68.333 41 -121 41c-46.667 0 -83.667 -11.667 -111 -35s-41 -52 -41 -86c0 -33.333 14.167 -60.5 42.5 -81.5s85.833 -39.833 172.5 -56.5c132.667 -26.667 231.5 -65.834 296.5 -117.501
s97.5 -122.834 97.5 -213.501c0 -97.333 -41.667 -177 -125 -239s-193.333 -93 -330 -93c-144 0 -257.833 36.5 -341.5 109.5s-123.5 156.167 -119.5 249.5l2 6h267c2 -58 21 -100 57 -126s83 -39 141 -39c54 0 95.167 10.833 123.5 32.5s42.5 51.167 42.5 88.5z
M633 -2.99707l-11.001 -57.002c42.667 -7.33301 78.334 -24.666 107.001 -51.999s43 -67.666 43 -120.999c0 -71.333 -30.5 -128.333 -91.5 -171s-147.5 -64 -259.5 -64l-7 161c34 0 61 6.83301 81 20.5s30 34.5 30 62.5c0 27.333 -10.667 46.5 -32 57.5
s-58 18.167 -110 21.5l31 142h219z" />
    <glyph glyph-name="Scaron" unicode="&#x160;" horiz-adv-x="1266" 
d="M893 380c0 56 -19.501 100.997 -58.501 134.997s-107.5 66 -205.5 96c-168 50.667 -295.5 110.334 -382.5 179.001s-130.5 162.334 -130.5 281.001c0 119.333 49 216.833 147 292.5s223 113.5 375 113.5c161.333 0 291.166 -40.667 389.499 -122s145.833 -188 142.5 -320
l-2 -6h-283c0 72.667 -22 128.5 -66 167.5s-105.667 58.5 -185 58.5c-72 0 -127.667 -17.333 -167 -52s-59 -79 -59 -133c0 -49.333 21.333 -89.833 64 -121.5s116.334 -65.167 221.001 -100.5c160 -45.333 282 -104.5 366 -177.5s126 -169.167 126 -288.5
c0 -124.667 -48.667 -223 -146 -295s-226 -108 -386 -108c-156.667 0 -291.167 39 -403.5 117s-166.833 194.333 -163.5 349l2 6h283c0 -86 25.333 -149.333 76 -190s119.334 -61 206.001 -61c78 0 137.5 16.333 178.5 49s61.5 76.334 61.5 131.001zM630.999 1767l117 127
h264v-17l-281 -255h-199l-281 256v16h264z" />
    <glyph glyph-name="scaron" unicode="&#x161;" horiz-adv-x="1056" 
d="M697 300c0 32 -15.5 59.5029 -46.5 82.5029s-88.5 43.167 -172.5 60.5c-126.667 25.333 -222.834 63.666 -288.501 114.999s-98.5 121 -98.5 209c0 92.667 39.333 171.667 118 237s183.334 98 314.001 98c136.667 0 246.167 -32.667 328.5 -98
s121.833 -146.666 118.5 -243.999l-2 -6h-282c0 43.333 -14 78.666 -42 105.999s-68.333 41 -121 41c-46.667 0 -83.667 -11.667 -111 -35s-41 -52 -41 -86c0 -33.333 14.167 -60.5 42.5 -81.5s85.833 -39.833 172.5 -56.5c132.667 -26.667 231.5 -65.834 296.5 -117.501
s97.5 -122.834 97.5 -213.501c0 -97.333 -41.667 -177 -125 -239s-193.333 -93 -330 -93c-144 0 -257.833 36.5 -341.5 109.5s-123.5 156.167 -119.5 249.5l2 6h267c2 -58 21 -100 57 -126s83 -39 141 -39c54 0 95.167 10.833 123.5 32.5s42.5 51.167 42.5 88.5zM519 1424
l117 127h264v-17l-281 -255h-199l-281 256v16h264z" />
    <glyph glyph-name="Tcommaaccent" unicode="&#x162;" horiz-adv-x="1175" 
d="M1149 1231h-416v-1231h-292v1231h-410v225h1118v-225zM677 -254l-129 -235h-122l61 245v151h190v-161z" />
    <glyph glyph-name="tcommaaccent" unicode="&#x163;" horiz-adv-x="713" 
d="M462 1347l0.000976562 -265h183v-205h-183v-551c0 -42 8.83301 -72 26.5 -90s40.834 -27 69.501 -27c15.333 0 28.666 0.833008 39.999 2.5s24.333 4.5 39 8.5l24 -211c-29.333 -10 -57.833 -17.5 -85.5 -22.5s-57.834 -7.5 -90.501 -7.5
c-100.667 0 -178.167 27.667 -232.5 83s-81.5 143 -81.5 263v552h-158v205h158v265h291zM523.001 -264l-129 -235h-122l61 245v151h190v-161z" />
    <glyph glyph-name="Tcaron" unicode="&#x164;" horiz-adv-x="1175" 
d="M1149 1231h-416v-1231h-292v1231h-410v225h1118v-225zM588 1746l117 127h264v-17l-281 -255h-199l-281 256v16h264z" />
    <glyph glyph-name="tcaron" unicode="&#x165;" horiz-adv-x="713" 
d="M462 1347l0.000976562 -265h183v-205h-183v-551c0 -42 8.83301 -72 26.5 -90s40.834 -27 69.501 -27c15.333 0 28.666 0.833008 39.999 2.5s24.333 4.5 39 8.5l24 -211c-29.333 -10 -57.833 -17.5 -85.5 -22.5s-57.834 -7.5 -90.501 -7.5
c-100.667 0 -178.167 27.667 -232.5 83s-81.5 143 -81.5 263v552h-158v205h158v265h291zM838.001 1428l-129 -235h-122l61 245v151h190v-161z" />
    <glyph glyph-name="Tbar" unicode="&#x166;" horiz-adv-x="1175" 
d="M930 757h-197v-757h-292v757h-182v181h182v293h-410v225h1118v-225h-416v-293h197v-181z" />
    <glyph glyph-name="tbar" unicode="&#x167;" horiz-adv-x="713" 
d="M462 1347l0.000976562 -265h183v-205h-183v-157h199v-181h-199v-213c0 -42 8.83301 -72 26.5 -90s40.834 -27 69.501 -27c15.333 0 28.666 0.833008 39.999 2.5s24.333 4.5 39 8.5l24 -211c-29.333 -10 -57.833 -17.5 -85.5 -22.5s-57.834 -7.5 -90.501 -7.5
c-100.667 0 -178.167 27.667 -232.5 83s-81.5 143 -81.5 263v214h-181v181h181v157h-158v205h158v265h291z" />
    <glyph glyph-name="Utilde" unicode="&#x168;" horiz-adv-x="1407" 
d="M1288 1456l0.000976562 -953c0 -164 -54.333 -292.333 -163 -385s-249.667 -139 -423 -139c-172.667 0 -312.834 46.333 -420.501 139s-161.5 221 -161.5 385v953h293v-953c0 -97.333 26 -171.666 78 -222.999s122.333 -77 211 -77c90 0 161.333 25.667 214 77
s79 125.666 79 222.999v953h293zM1078 1856c0 -64 -19.832 -118.499 -59.499 -163.499s-89.834 -67.5 -150.501 -67.5c-46.667 0 -99.5 14.5 -158.5 43.5s-105.833 43.5 -140.5 43.5c-24 0 -44 -10.833 -60 -32.5s-24 -47.5 -24 -77.5l-156 42
c0 62.667 19.833 117.167 59.5 163.5s89.5 69.5 149.5 69.5c37.333 0 88 -14.5 152 -43.5s113.333 -43.5 148 -43.5c22.667 0 42.667 10.667 60 32s26 47.666 26 78.999z" />
    <glyph glyph-name="utilde" unicode="&#x169;" 
d="M775 160c-33.333 -58 -75.666 -102.667 -126.999 -134s-111 -47 -179 -47c-114 0 -203.167 38.667 -267.5 116s-96.5 197.333 -96.5 360v627h291v-629c0 -94.667 12.833 -159.5 38.5 -194.5s65.5 -52.5 119.5 -52.5c46.667 0 86.667 7.5 120 22.5
s60.666 37.167 81.999 66.5v787h292v-1082h-242zM950 1513c0 -64 -19.832 -118.499 -59.499 -163.499s-89.834 -67.5 -150.501 -67.5c-46.667 0 -99.5 14.5 -158.5 43.5s-105.833 43.5 -140.5 43.5c-24 0 -44 -10.833 -60 -32.5s-24 -47.5 -24 -77.5l-156 42
c0 62.667 19.833 117.167 59.5 163.5s89.5 69.5 149.5 69.5c37.333 0 88 -14.5 152 -43.5s113.333 -43.5 148 -43.5c22.667 0 42.667 10.667 60 32s26 47.666 26 78.999z" />
    <glyph glyph-name="Umacron" unicode="&#x16a;" horiz-adv-x="1407" 
d="M1288 1456l0.000976562 -953c0 -164 -54.333 -292.333 -163 -385s-249.667 -139 -423 -139c-172.667 0 -312.834 46.333 -420.501 139s-161.5 221 -161.5 385v953h293v-953c0 -97.333 26 -171.666 78 -222.999s122.333 -77 211 -77c90 0 161.333 25.667 214 77
s79 125.666 79 222.999v953h293zM1071 1613h-731v165h731v-165z" />
    <glyph glyph-name="umacron" unicode="&#x16b;" 
d="M775 160c-33.333 -58 -75.666 -102.667 -126.999 -134s-111 -47 -179 -47c-114 0 -203.167 38.667 -267.5 116s-96.5 197.333 -96.5 360v627h291v-629c0 -94.667 12.833 -159.5 38.5 -194.5s65.5 -52.5 119.5 -52.5c46.667 0 86.667 7.5 120 22.5
s60.666 37.167 81.999 66.5v787h292v-1082h-242zM943 1271h-731v165h731v-165z" />
    <glyph glyph-name="Ubreve" unicode="&#x16c;" horiz-adv-x="1407" 
d="M1288 1456l0.000976562 -953c0 -164 -54.333 -292.333 -163 -385s-249.667 -139 -423 -139c-172.667 0 -312.834 46.333 -420.501 139s-161.5 221 -161.5 385v953h293v-953c0 -97.333 26 -171.666 78 -222.999s122.333 -77 211 -77c90 0 161.333 25.667 214 77
s79 125.666 79 222.999v953h293zM1043 1896l2 -6c3.33301 -84.667 -26.167 -153.834 -88.5 -207.501s-146.166 -80.5 -251.499 -80.5c-106 0 -190.333 26.833 -253 80.5s-92 122.834 -88 207.501l2 6h213c0 -35.333 10.167 -64.333 30.5 -87s52.166 -34 95.499 -34
c42 0 73.167 11.333 93.5 34s30.5 51.667 30.5 87h214z" />
    <glyph glyph-name="ubreve" unicode="&#x16d;" 
d="M775 160c-33.333 -58 -75.666 -102.667 -126.999 -134s-111 -47 -179 -47c-114 0 -203.167 38.667 -267.5 116s-96.5 197.333 -96.5 360v627h291v-629c0 -94.667 12.833 -159.5 38.5 -194.5s65.5 -52.5 119.5 -52.5c46.667 0 86.667 7.5 120 22.5
s60.666 37.167 81.999 66.5v787h292v-1082h-242zM915 1553l2 -6c3.33301 -84.667 -26.167 -153.834 -88.5 -207.501s-146.166 -80.5 -251.499 -80.5c-106 0 -190.333 26.833 -253 80.5s-92 122.834 -88 207.501l2 6h213c0 -35.333 10.167 -64.333 30.5 -87
s52.166 -34 95.499 -34c42 0 73.167 11.333 93.5 34s30.5 51.667 30.5 87h214z" />
    <glyph glyph-name="Uring" unicode="&#x16e;" horiz-adv-x="1407" 
d="M1288 1456l0.000976562 -953c0 -164 -54.333 -292.333 -163 -385s-249.667 -139 -423 -139c-172.667 0 -312.834 46.333 -420.501 139s-161.5 221 -161.5 385v953h293v-953c0 -97.333 26 -171.666 78 -222.999s122.333 -77 211 -77c90 0 161.333 25.667 214 77
s79 125.666 79 222.999v953h293zM517.001 1746c0 48.667 18 89.5 54 122.5s80.667 49.5 134 49.5c52 0 95.833 -16.5 131.5 -49.5s53.5 -73.833 53.5 -122.5c0 -49.333 -17.833 -89.833 -53.5 -121.5s-79.5 -47.5 -131.5 -47.5c-53.333 0 -98 15.833 -134 47.5
s-54 72.167 -54 121.5zM633.001 1746c0 -20.667 6.83301 -37.832 20.5 -51.499s30.834 -20.5 51.501 -20.5c20 0 36.5 6.66699 49.5 20s19.5 30.666 19.5 51.999s-6.5 38.833 -19.5 52.5s-29.5 20.5 -49.5 20.5c-20.667 0 -37.834 -6.83301 -51.501 -20.5
s-20.5 -31.167 -20.5 -52.5z" />
    <glyph glyph-name="uring" unicode="&#x16f;" 
d="M775 160c-33.333 -58 -75.666 -102.667 -126.999 -134s-111 -47 -179 -47c-114 0 -203.167 38.667 -267.5 116s-96.5 197.333 -96.5 360v627h291v-629c0 -94.667 12.833 -159.5 38.5 -194.5s65.5 -52.5 119.5 -52.5c46.667 0 86.667 7.5 120 22.5
s60.666 37.167 81.999 66.5v787h292v-1082h-242zM389 1403c0 48.667 18 89.5 54 122.5s80.667 49.5 134 49.5c52 0 95.833 -16.5 131.5 -49.5s53.5 -73.833 53.5 -122.5c0 -49.333 -17.833 -89.833 -53.5 -121.5s-79.5 -47.5 -131.5 -47.5c-53.333 0 -98 15.833 -134 47.5
s-54 72.167 -54 121.5zM505 1403c0 -20.667 6.83301 -37.832 20.5 -51.499s30.834 -20.5 51.501 -20.5c20 0 36.5 6.66699 49.5 20s19.5 30.666 19.5 51.999s-6.5 38.833 -19.5 52.5s-29.5 20.5 -49.5 20.5c-20.667 0 -37.834 -6.83301 -51.501 -20.5
s-20.5 -31.167 -20.5 -52.5z" />
    <glyph glyph-name="Uhungarumlaut" unicode="&#x170;" horiz-adv-x="1407" 
d="M1288 1456l0.000976562 -953c0 -164 -54.333 -292.333 -163 -385s-249.667 -139 -423 -139c-172.667 0 -312.834 46.333 -420.501 139s-161.5 221 -161.5 385v953h293v-953c0 -97.333 26 -171.666 78 -222.999s122.333 -77 211 -77c90 0 161.333 25.667 214 77
s79 125.666 79 222.999v953h293zM981.001 1867h279l2 -6l-285 -260h-234l-2 5zM593.001 1867h275l2 -5l-240 -261h-235z" />
    <glyph glyph-name="uhungarumlaut" unicode="&#x171;" 
d="M775 160c-33.333 -58 -75.666 -102.667 -126.999 -134s-111 -47 -179 -47c-114 0 -203.167 38.667 -267.5 116s-96.5 197.333 -96.5 360v627h291v-629c0 -94.667 12.833 -159.5 38.5 -194.5s65.5 -52.5 119.5 -52.5c46.667 0 86.667 7.5 120 22.5
s60.666 37.167 81.999 66.5v787h292v-1082h-242zM853 1524h279l2 -6l-285 -260h-234l-2 5zM465 1524h275l2 -5l-240 -261h-235z" />
    <glyph glyph-name="Uogonek" unicode="&#x172;" horiz-adv-x="1407" 
d="M1288 1456l0.000976562 -953c0 -164 -54.333 -292.333 -163 -385s-249.667 -139 -423 -139c-172.667 0 -312.834 46.333 -420.501 139s-161.5 221 -161.5 385v953h293v-953c0 -97.333 26 -171.666 78 -222.999s122.333 -77 211 -77c90 0 161.333 25.667 214 77
s79 125.666 79 222.999v953h293zM809.001 0c-36 -35.333 -62.3311 -65.3311 -78.998 -89.998s-25 -53.334 -25 -86.001c0 -18 5.66699 -34.167 17 -48.5s34.333 -21.5 69 -21.5c18.667 0 35.167 2 49.5 6s29.166 8.66699 44.499 14l35 -154
c-24 -12.667 -50.833 -23.167 -80.5 -31.5s-64.834 -12.5 -105.501 -12.5c-72 0 -131.167 18.833 -177.5 56.5s-69.5 90.167 -69.5 157.5c0 51.333 15.333 100.166 46 146.499s78.667 87.5 144 123.5z" />
    <glyph glyph-name="uogonek" unicode="&#x173;" 
d="M775 160c-33.333 -58 -75.666 -102.667 -126.999 -134s-111 -47 -179 -47c-114 0 -203.167 38.667 -267.5 116s-96.5 197.333 -96.5 360v627h291v-629c0 -94.667 12.833 -159.5 38.5 -194.5s65.5 -52.5 119.5 -52.5c46.667 0 86.667 7.5 120 22.5
s60.666 37.167 81.999 66.5v787h292v-1082h-242zM962 0c-36 -35.333 -62.3311 -65.3311 -78.998 -89.998s-25 -53.334 -25 -86.001c0 -18 5.66699 -34.167 17 -48.5s34.333 -21.5 69 -21.5c18.667 0 35.167 2 49.5 6s29.166 8.66699 44.499 14l35 -154
c-24 -12.667 -50.833 -23.167 -80.5 -31.5s-64.834 -12.5 -105.501 -12.5c-72 0 -131.167 18.833 -177.5 56.5s-69.5 90.167 -69.5 157.5c0 51.333 15.333 100.166 46 146.499s78.667 87.5 144 123.5z" />
    <glyph glyph-name="Wcircumflex" unicode="&#x174;" horiz-adv-x="1804" 
d="M1283 468h6l193 988h301l-340 -1456h-271l-268 959h-6l-267 -959h-271l-340 1456h301l194 -987h6l262 987h236zM1274 1615v-23h-232l-140 133l-139 -133h-227v26l282 240h169z" />
    <glyph glyph-name="wcircumflex" unicode="&#x175;" horiz-adv-x="1507" 
d="M1053 402h6l131 680h284l-275 -1082h-244l-201 624h-6l-201 -624h-243l-275 1082h284l133 -677h6l202 677h195zM1124 1273v-23h-232l-140 133l-139 -133h-227v26l282 240h169z" />
    <glyph glyph-name="Ycircumflex" unicode="&#x176;" horiz-adv-x="1303" 
d="M648 785h6l318 671h320l-499 -944v-512h-292v527l-491 929h320zM1029 1615v-23h-232l-140 133l-139 -133h-227v26l282 240h169z" />
    <glyph glyph-name="ycircumflex" unicode="&#x177;" horiz-adv-x="1046" 
d="M502 454l12.001 -60.001h6l207 688h314l-439 -1244c-30.667 -77.333 -72.334 -142.5 -125.001 -195.5s-131.667 -79.5 -237 -79.5c-24.667 0 -47.5 2 -68.5 6s-46.5 9.66699 -76.5 17l34 213c8.66699 -1.33301 18 -2.66602 28 -3.99902s19 -2 27 -2
c48 0 85 11.833 111 35.5s46 53.167 60 88.5l34 84l-384 1081h314zM895.001 1273v-23h-232l-140 133l-139 -133h-227v26l282 240h169z" />
    <glyph glyph-name="Ydieresis" unicode="&#x178;" horiz-adv-x="1303" 
d="M648 785h6l318 671h320l-499 -944v-512h-292v527l-491 929h320zM1040 1601h-266v204h266v-204zM540 1601h-266v204h266v-204z" />
    <glyph glyph-name="Zacute" unicode="&#x179;" horiz-adv-x="1163" 
d="M421 224h668v-224h-1012v152l648 1079h-647v225h994v-146zM659 1867h325l2 -6l-277 -260h-249z" />
    <glyph glyph-name="zacute" unicode="&#x17a;" horiz-adv-x="1046" 
d="M438 224h536v-224h-899v172l515 684h-499v226h866v-167zM582 1523h325l2 -6l-277 -260h-249z" />
    <glyph glyph-name="Zdotaccent" unicode="&#x17b;" horiz-adv-x="1163" 
d="M421 224h668v-224h-1012v152l648 1079h-647v225h994v-146zM765 1602h-327v241h327v-241z" />
    <glyph glyph-name="zdotaccent" unicode="&#x17c;" horiz-adv-x="1046" 
d="M438 224h536v-224h-899v172l515 684h-499v226h866v-167zM688 1258h-327v241h327v-241z" />
    <glyph glyph-name="Zcaron" unicode="&#x17d;" horiz-adv-x="1163" 
d="M421 224h668v-224h-1012v152l648 1079h-647v225h994v-146zM600 1747l117 127h264v-17l-281 -255h-199l-281 256v16h264z" />
    <glyph glyph-name="zcaron" unicode="&#x17e;" horiz-adv-x="1046" 
d="M438 224h536v-224h-899v172l515 684h-499v226h866v-167zM523 1403l117 127h264v-17l-281 -255h-199l-281 256v16h264z" />
    <glyph glyph-name="longs" unicode="&#x17f;" horiz-adv-x="532" 
d="M116 0l-0.000976562 1202c0 121.333 35 214.833 105 280.5s168.333 98.5 295 98.5c24.667 0 49.5 -1.83301 74.5 -5.5s53.5 -8.83398 85.5 -15.501l-25 -215c-17.333 3.33301 -33 6 -47 8s-30.667 3 -50 3c-47.333 0 -83.666 -13.5 -108.999 -40.5
s-38 -64.833 -38 -113.5v-1202h-291z" />
    <glyph glyph-name="florin" unicode="&#x192;" horiz-adv-x="740" 
d="M683 877l-207.001 0.000976562l-1 -917c0 -126.667 -33.667 -224.5 -101 -293.5s-161 -103.5 -281 -103.5c-26.667 0 -51 1.33301 -73 4s-45.333 7 -70 13l15 221c15.333 -4 31 -7.16699 47 -9.5s33 -3.5 51 -3.5c38 0 67.5 15 88.5 45s31.5 72.333 31.5 127v917h-160
v205h160v120c0 121.333 35 214.833 105 280.5s168.667 98.5 296 98.5c24.667 0 49.5 -1.83301 74.5 -5.5s53.5 -8.83398 85.5 -15.501l-25 -217c-15.333 2.66699 -30.833 5 -46.5 7s-33.167 3 -52.5 3c-47.333 0 -83.166 -13 -107.499 -39s-36.5 -63.333 -36.5 -112v-120
h207v-205z" />
    <glyph glyph-name="Ohorn" unicode="&#x1a0;" horiz-adv-x="1435" 
d="M1307 597c0 -179.333 -56.334 -327.169 -169.001 -443.502s-259.334 -174.5 -440.001 -174.5c-180 0 -326 58.333 -438 175s-168 264.334 -168 443.001v262c0 178 55.833 325.5 167.5 442.5s257.167 175.5 436.5 175.5c88.667 0 170.834 -15.5 246.501 -46.5
s140.834 -74.5 195.501 -130.5c68 18.667 119.667 55.167 155 109.5s53 123.5 53 207.5h216c0 -127.333 -26.333 -233.166 -79 -317.499s-128.334 -143.833 -227.001 -178.5c16.667 -40 29.334 -82 38.001 -126s13 -89.333 13 -136v-262zM1016 860.997
c0 113.333 -28.332 206.333 -84.999 279s-135 109 -235 109c-98.667 0 -175.5 -36.333 -230.5 -109s-82.5 -165.667 -82.5 -279v-264c0 -115.333 27.667 -209.333 83 -282s132.666 -109 231.999 -109c100 0 178 36.333 234 109s84 166.667 84 282v264z" />
    <glyph glyph-name="ohorn" unicode="&#x1a1;" horiz-adv-x="1191" 
d="M67 551c0 161.333 44.999 293.501 134.999 396.501s214.667 154.5 374 154.5c74.667 0 142.334 -12.167 203.001 -36.5s113.334 -58.5 158.001 -102.5c37.333 23.333 65.666 57.833 84.999 103.5s29 100.5 29 164.5h211c0 -97.333 -20 -179.833 -60 -247.5
s-98 -117.834 -174 -150.501c19.333 -41.333 34.166 -85.833 44.499 -133.5s15.5 -97.167 15.5 -148.5v-21c0 -162.667 -45.167 -295.167 -135.5 -397.5s-215.166 -153.5 -374.499 -153.5c-160 0 -285.167 51.167 -375.5 153.5s-135.5 234.833 -135.5 397.5v21z
M357.999 530.001c0 -98.667 17.333 -177.833 52 -237.5s90.667 -89.5 168 -89.5c75.333 0 130.5 30 165.5 90s52.5 139 52.5 237v21c0 96 -17.667 174.333 -53 235s-91 91 -167 91c-75.333 0 -130.5 -30.5 -165.5 -91.5s-52.5 -139.167 -52.5 -234.5v-21z" />
    <glyph glyph-name="Uhorn" unicode="&#x1af;" horiz-adv-x="1460" 
d="M1288 1456l0.000976562 -180.999l6 -1c55.333 13.333 95 48 119 104s36 132.333 36 229h215c0 -154 -30.5 -275.333 -91.5 -364s-155.833 -142.334 -284.5 -161.001v-579c0 -164 -54.333 -292.333 -163 -385s-249.667 -139 -423 -139
c-172.667 0 -312.834 46.333 -420.501 139s-161.5 221 -161.5 385v953h293v-953c0 -97.333 26 -171.666 78 -222.999s122.333 -77 211 -77c90 0 161.333 25.667 214 77s79 125.666 79 222.999v953h293z" />
    <glyph glyph-name="uhorn" unicode="&#x1b0;" horiz-adv-x="1166" 
d="M1394 1196l1.99805 -4.99902c2 -117.333 -25.167 -208.833 -81.5 -274.5s-145.166 -105.834 -266.499 -120.501v-796h-242l-31 160c-33.333 -58 -75.666 -102.667 -126.999 -134s-111 -47 -179 -47c-114 0 -203.167 38.667 -267.5 116s-96.5 197.333 -96.5 360v627h291
v-629c0 -94.667 12.833 -159.5 38.5 -194.5s65.5 -52.5 119.5 -52.5c46.667 0 86.667 7.5 120 22.5s60.666 37.167 81.999 66.5v787h292v-124l6 -2c54.667 8.66699 93.834 32.5 117.501 71.5s35.5 95.167 35.5 168.5h187z" />
    <glyph glyph-name="uni01F0" unicode="&#x1f0;" horiz-adv-x="578" 
d="M441 1082l0.000976562 -1122c0 -126.667 -33.667 -224.5 -101 -293.5s-160.666 -103.5 -279.999 -103.5c-27.333 0 -51.833 1.33301 -73.5 4s-45.167 7 -70.5 13l15 221c15.333 -4 31.166 -7.16699 47.499 -9.5s33.166 -3.5 50.499 -3.5c38 0 67.667 15 89 45
s32 72.333 32 127v1122h291zM274.001 1396l117 127h264v-17l-281 -255h-199l-281 256v16h264z" />
    <glyph glyph-name="Aringacute" unicode="&#x1fa;" horiz-adv-x="1303" 
d="M893 314h-472l-98 -314h-305l491 1456h299l489 -1456h-305zM493 543h329l-161 513h-6zM755 2140h256l2 -6l-263 -205h-177l-2 5zM451 1696c0 52 19.5 95.667 58.5 131s87.167 53 144.5 53c56 0 103.167 -17.667 141.5 -53s57.5 -79 57.5 -131
c0 -53.333 -19.167 -97 -57.5 -131s-85.5 -51 -141.5 -51c-57.333 0 -105.5 17.167 -144.5 51.5s-58.5 77.833 -58.5 130.5zM564 1696c0 -26 8.5 -47.167 25.5 -63.5s38.5 -24.5 64.5 -24.5c24.667 0 45.167 8.16699 61.5 24.5s24.5 37.5 24.5 63.5
s-8.16699 47.5 -24.5 64.5s-36.833 25.5 -61.5 25.5c-26 0 -47.5 -8.5 -64.5 -25.5s-25.5 -38.5 -25.5 -64.5z" />
    <glyph glyph-name="aringacute" unicode="&#x1fb;" horiz-adv-x="1100" 
d="M750 0c-10.667 24.667 -19.835 50.6699 -27.502 78.0029s-13.167 55.333 -16.5 84c-30 -52.667 -69.667 -96.334 -119 -131.001s-108 -52 -176 -52c-113.333 0 -200.666 29.167 -261.999 87.5s-92 137.833 -92 238.5c0 106 40.833 188.167 122.5 246.5
s200.834 87.5 357.501 87.5h164v86c0 52 -13.667 92.333 -41 121s-68 43 -122 43c-47.333 0 -83.833 -11.5 -109.5 -34.5s-38.5 -54.5 -38.5 -94.5h-281l-2 6c-4.66699 91.333 35.166 170.166 119.499 236.499s194.5 99.5 330.5 99.5c130 0 235.167 -32.667 315.5 -98
s120.5 -159 120.5 -281v-447c0 -50.667 3.83301 -98.334 11.5 -143.001s19.834 -89 36.501 -133h-291zM482.999 195.003c50.667 0 96 12.6699 136 38.0029s67.333 54.666 82 87.999v153h-164c-62 0 -108.833 -15.333 -140.5 -46s-47.5 -68.334 -47.5 -113.001
c0 -36.667 11.833 -65.834 35.5 -87.501s56.5 -32.5 98.5 -32.5zM647.999 1818.01h256l2 -6l-263 -205h-177l-2 5zM343.999 1374.01c0 52 19.5 95.667 58.5 131s87.167 53 144.5 53c56 0 103.167 -17.667 141.5 -53s57.5 -79 57.5 -131c0 -53.333 -19.167 -97 -57.5 -131
s-85.5 -51 -141.5 -51c-57.333 0 -105.5 17.167 -144.5 51.5s-58.5 77.833 -58.5 130.5zM456.999 1374.01c0 -26 8.5 -47.167 25.5 -63.5s38.5 -24.5 64.5 -24.5c24.667 0 45.167 8.16699 61.5 24.5s24.5 37.5 24.5 63.5s-8.16699 47.5 -24.5 64.5s-36.833 25.5 -61.5 25.5
c-26 0 -47.5 -8.5 -64.5 -25.5s-25.5 -38.5 -25.5 -64.5z" />
    <glyph glyph-name="AEacute" unicode="&#x1fc;" horiz-adv-x="1945" 
d="M1874 0h-898l-14 335h-440l-168 -335h-342l784 1456h1016v-228h-596l16 -366h499v-227h-490l17 -408h616v-227zM642 575h310l-23 559l-6 1zM1001 1866h325l2 -6l-277 -260h-249z" />
    <glyph glyph-name="aeacute" unicode="&#x1fd;" horiz-adv-x="1771" 
d="M1280 -21c-86 0 -162.331 13.501 -228.998 40.501s-122.334 66.167 -167.001 117.5c-40 -46 -93.833 -83.833 -161.5 -113.5s-147.834 -44.5 -240.501 -44.5c-128 0 -226.833 30.167 -296.5 90.5s-104.5 142.833 -104.5 247.5c0 106 42.167 187.667 126.5 245
s207.5 86 369.5 86h181v59c0 52.667 -13.5 94.167 -40.5 124.5s-65.167 45.5 -114.5 45.5c-54 0 -96.5 -12.5 -127.5 -37.5s-46.5 -56.167 -46.5 -93.5l-282 18l-2 6c-4 96 36.5 175.333 121.5 238s198.167 94 339.5 94c68 0 130 -9.16699 186 -27.5
s103.667 -44.833 143 -79.5c40.667 34.667 88 61.167 142 79.5s114 27.5 180 27.5c141.333 0 252.5 -44 333.5 -132s121.5 -207.333 121.5 -358v-158h-651l-2 -6c2.66699 -74 24.667 -133.333 66 -178s103.333 -67 186 -67c61.333 0 112.5 6.66699 153.5 20
s88.167 33.666 141.5 60.999l77 -184c-41.333 -32 -97.833 -60.167 -169.5 -84.5s-149.5 -36.5 -233.5 -36.5zM537.002 185.001c38.667 0 79 10.167 121 30.5s75.333 44.5 100 72.5v176h-179c-64.667 0 -115.334 -14.833 -152.001 -44.5s-55 -65.167 -55 -106.5
c0 -39.333 13.833 -70.5 41.5 -93.5s68.834 -34.5 123.501 -34.5zM1257 877.001c-63.333 0 -110.668 -20.5 -142.001 -61.5s-49.333 -96.5 -54 -166.5l2 -5h362v28c0 62.667 -14.167 112.5 -42.5 149.5s-70.166 55.5 -125.499 55.5zM954 1545h325l2 -6l-277 -260h-249z" />
    <glyph glyph-name="Oslashacute" unicode="&#x1fe;" horiz-adv-x="1410" 
d="M1312 597c0 -179.333 -56.333 -327.167 -169 -443.5s-259.334 -174.5 -440.001 -174.5c-53.333 0 -104.166 5.5 -152.499 16.5s-93.833 27.5 -136.5 49.5l-81 -140h-143l121 207c-68.667 55.333 -121.5 125 -158.5 209s-55.5 176 -55.5 276v262
c0 178 55.833 325.5 167.5 442.5s257.167 175.5 436.5 175.5c65.333 0 127.333 -8.5 186 -25.5s112.667 -41.5 162 -73.5l81 140h143l-128 -220c53.333 -56 94.5 -121.5 123.5 -196.5s43.5 -155.833 43.5 -242.5v-262zM388 596.999c0 -48.667 5 -93.668 15 -135.001
s24.667 -76.666 44 -105.999l6 -1l467 803c-27.333 28.667 -59.5 51 -96.5 67s-77.833 24 -122.5 24c-98.667 0 -175.5 -36.333 -230.5 -109s-82.5 -165.667 -82.5 -279v-264zM1021 860.998c0 31.333 -2.5 61.332 -7.5 89.999s-11.833 54.334 -20.5 77.001l-5 1l-452 -775
c22.667 -16 48 -28 76 -36s58.333 -12 91 -12c100 0 178 36.333 234 109s84 166.667 84 282v264zM771 1928h325l2 -6l-277 -260h-249z" />
    <glyph glyph-name="oslashacute" unicode="&#x1ff;" 
d="M67 551c0 161.333 44.999 293.498 134.999 396.498s214.667 154.5 374 154.5c33.333 0 65.5 -2.66699 96.5 -8s61.167 -12.666 90.5 -21.999l70 143h161l-103 -211c63.333 -49.333 112 -113.166 146 -191.499s51 -165.5 51 -261.5v-21
c0 -162.667 -45.167 -295.167 -135.5 -397.5s-215.166 -153.5 -374.499 -153.5c-32 0 -62.667 2.33301 -92 7s-57.333 11 -84 19l-71 -146h-161l103 211c-67.333 47.333 -118.5 110.833 -153.5 190.5s-52.5 169.5 -52.5 269.5v21zM357.999 529.998
c0 -41.333 2.83398 -79.332 8.50098 -113.999s14.5 -63.334 26.5 -86.001l6 -1l260 531c-12.667 5.33301 -25.834 9.5 -39.501 12.5s-28.167 4.5 -43.5 4.5c-75.333 0 -130.5 -30.5 -165.5 -91.5s-52.5 -139.167 -52.5 -234.5v-21zM796 550.999
c0 36 -2.66797 70.001 -8.00098 102.001s-12.666 59.333 -21.999 82l-6 1l-255 -521c10 -4.66699 21.167 -7.83398 33.5 -9.50098s25.5 -2.5 39.5 -2.5c75.333 0 130.5 30 165.5 90s52.5 139 52.5 237v21zM596.999 1540h325l2 -6l-277 -260h-249z" />
    <glyph glyph-name="Scommaaccent" unicode="&#x218;" horiz-adv-x="1266" 
d="M893 380c0 56 -19.501 100.997 -58.501 134.997s-107.5 66 -205.5 96c-168 50.667 -295.5 110.334 -382.5 179.001s-130.5 162.334 -130.5 281.001c0 119.333 49 216.833 147 292.5s223 113.5 375 113.5c161.333 0 291.166 -40.667 389.499 -122s145.833 -188 142.5 -320
l-2 -6h-283c0 72.667 -22 128.5 -66 167.5s-105.667 58.5 -185 58.5c-72 0 -127.667 -17.333 -167 -52s-59 -79 -59 -133c0 -49.333 21.333 -89.833 64 -121.5s116.334 -65.167 221.001 -100.5c160 -45.333 282 -104.5 366 -177.5s126 -169.167 126 -288.5
c0 -124.667 -48.667 -223 -146 -295s-226 -108 -386 -108c-156.667 0 -291.167 39 -403.5 117s-166.833 194.333 -163.5 349l2 6h283c0 -86 25.333 -149.333 76 -190s119.334 -61 206.001 -61c78 0 137.5 16.333 178.5 49s61.5 76.334 61.5 131.001zM719.999 -274.003
l-129 -235h-122l61 245v151h190v-161z" />
    <glyph glyph-name="scommaaccent" unicode="&#x219;" horiz-adv-x="1056" 
d="M697 300c0 32 -15.5 59.5029 -46.5 82.5029s-88.5 43.167 -172.5 60.5c-126.667 25.333 -222.834 63.666 -288.501 114.999s-98.5 121 -98.5 209c0 92.667 39.333 171.667 118 237s183.334 98 314.001 98c136.667 0 246.167 -32.667 328.5 -98
s121.833 -146.666 118.5 -243.999l-2 -6h-282c0 43.333 -14 78.666 -42 105.999s-68.333 41 -121 41c-46.667 0 -83.667 -11.667 -111 -35s-41 -52 -41 -86c0 -33.333 14.167 -60.5 42.5 -81.5s85.833 -39.833 172.5 -56.5c132.667 -26.667 231.5 -65.834 296.5 -117.501
s97.5 -122.834 97.5 -213.501c0 -97.333 -41.667 -177 -125 -239s-193.333 -93 -330 -93c-144 0 -257.833 36.5 -341.5 109.5s-123.5 156.167 -119.5 249.5l2 6h267c2 -58 21 -100 57 -126s83 -39 141 -39c54 0 95.167 10.833 123.5 32.5s42.5 51.167 42.5 88.5z
M608 -273.997l-129 -235h-122l61 245v151h190v-161z" />
    <glyph glyph-name="uni0237" unicode="&#x237;" horiz-adv-x="578" 
d="M441 1082l0.000976562 -1122c0 -126.667 -33.667 -224.5 -101 -293.5s-160.666 -103.5 -279.999 -103.5c-27.333 0 -51.833 1.33301 -73.5 4s-45.167 7 -70.5 13l15 221c15.333 -4 31.166 -7.16699 47.499 -9.5s33.166 -3.5 50.499 -3.5c38 0 67.667 15 89 45
s32 72.333 32 127v1122h291z" />
    <glyph glyph-name="uni02BC" unicode="&#x2bc;" horiz-adv-x="557" 
d="M405 1197l-102 -285h-144v544h246v-259z" />
    <glyph glyph-name="circumflex" unicode="&#x2c6;" horiz-adv-x="1016" 
d="M875 1275v-23h-232l-140 133l-139 -133h-227v26l282 240h169z" />
    <glyph glyph-name="caron" unicode="&#x2c7;" horiz-adv-x="965" 
d="M479 1397l117 127h264v-17l-281 -255h-199l-281 256v16h264z" />
    <glyph glyph-name="breve" unicode="&#x2d8;" horiz-adv-x="910" 
d="M791 1456l2 -6c3.33301 -84.667 -26.167 -153.834 -88.5 -207.501s-146.166 -80.5 -251.499 -80.5c-106 0 -190.333 26.833 -253 80.5s-92 122.834 -88 207.501l2 6h213c0 -35.333 10.167 -64.333 30.5 -87s52.166 -34 95.499 -34c42 0 73.167 11.333 93.5 34
s30.5 51.667 30.5 87h214z" />
    <glyph glyph-name="dotaccent" unicode="&#x2d9;" horiz-adv-x="629" 
d="M465 1227h-327v241h327v-241z" />
    <glyph glyph-name="ring" unicode="&#x2da;" horiz-adv-x="682" 
d="M154 1305c0 48.667 18 89.5 54 122.5s80.667 49.5 134 49.5c52 0 95.833 -16.5 131.5 -49.5s53.5 -73.833 53.5 -122.5c0 -49.333 -17.833 -89.833 -53.5 -121.5s-79.5 -47.5 -131.5 -47.5c-53.333 0 -98 15.833 -134 47.5s-54 72.167 -54 121.5zM270 1305
c0 -20.667 6.83301 -37.832 20.5 -51.499s30.834 -20.5 51.501 -20.5c20 0 36.5 6.66699 49.5 20s19.5 30.666 19.5 51.999s-6.5 38.833 -19.5 52.5s-29.5 20.5 -49.5 20.5c-20.667 0 -37.834 -6.83301 -51.501 -20.5s-20.5 -31.167 -20.5 -52.5z" />
    <glyph glyph-name="ogonek" unicode="&#x2db;" horiz-adv-x="618" 
d="M405 0c-36 -35.333 -62.3311 -65.3311 -78.998 -89.998s-25 -53.334 -25 -86.001c0 -18 5.66699 -34.167 17 -48.5s34.333 -21.5 69 -21.5c18.667 0 35.167 2 49.5 6s29.166 8.66699 44.499 14l35 -154c-24 -12.667 -50.833 -23.167 -80.5 -31.5
s-64.834 -12.5 -105.501 -12.5c-72 0 -131.167 18.833 -177.5 56.5s-69.5 90.167 -69.5 157.5c0 51.333 15.333 100.166 46 146.499s78.667 87.5 144 123.5z" />
    <glyph glyph-name="tilde" unicode="&#x2dc;" horiz-adv-x="986" 
d="M868 1484c0 -64 -19.832 -118.499 -59.499 -163.499s-89.834 -67.5 -150.501 -67.5c-46.667 0 -99.5 14.5 -158.5 43.5s-105.833 43.5 -140.5 43.5c-24 0 -44 -10.833 -60 -32.5s-24 -47.5 -24 -77.5l-156 42c0 62.667 19.833 117.167 59.5 163.5s89.5 69.5 149.5 69.5
c37.333 0 88 -14.5 152 -43.5s113.333 -43.5 148 -43.5c22.667 0 42.667 10.667 60 32s26 47.666 26 78.999z" />
    <glyph glyph-name="hungarumlaut" unicode="&#x2dd;" horiz-adv-x="876" 
d="M727 1518h279l2 -6l-285 -260h-234l-2 5zM339 1518h275l2 -5l-240 -261h-235z" />
    <glyph glyph-name="uni02F3" unicode="&#x2f3;" horiz-adv-x="664" 
d="M158 -228c0 47.333 17.667 86.666 53 117.999s79 47 131 47c50.667 0 93.334 -15.667 128.001 -47s52 -70.666 52 -117.999c0 -46.667 -17.333 -85.334 -52 -116.001s-77.334 -46 -128.001 -46c-52.667 0 -96.5 15.333 -131.5 46s-52.5 69.334 -52.5 116.001zM272 -228
c0 -19.333 6.5 -35.5 19.5 -48.5s29.833 -19.5 50.5 -19.5c19.333 0 35.166 6.33301 47.499 19s18.5 29 18.5 49c0 21.333 -6.16699 38.5 -18.5 51.5s-28.166 19.5 -47.499 19.5c-20.667 0 -37.5 -6.5 -50.5 -19.5s-19.5 -30.167 -19.5 -51.5z" />
    <glyph glyph-name="gravecomb" unicode="&#x300;" horiz-adv-x="0" 
d="M-448.818 1264.03h-174.953l-189.59 343.281l1.39453 7.92188h226.532z" />
    <glyph glyph-name="acutecomb" unicode="&#x301;" horiz-adv-x="0" 
d="M-513.639 1616.16h221.87l1.36523 -7.94531l-189.102 -344.297h-169.987z" />
    <glyph glyph-name="tildecomb" unicode="&#x303;" horiz-adv-x="0" 
d="M-151 1484c0 -64 -19.832 -118.499 -59.499 -163.499s-89.834 -67.5 -150.501 -67.5c-46.667 0 -99.5 14.5 -158.5 43.5s-105.833 43.5 -140.5 43.5c-24 0 -44 -10.833 -60 -32.5s-24 -47.5 -24 -77.5l-156 42c0 62.667 19.833 117.167 59.5 163.5s89.5 69.5 149.5 69.5
c37.333 0 88 -14.5 152 -43.5s113.333 -43.5 148 -43.5c22.667 0 42.667 10.667 60 32s26 47.666 26 78.999z" />
    <glyph glyph-name="hook" unicode="&#x309;" horiz-adv-x="0" 
d="M-719 1264l-15.9961 137.002c49.333 2 84.5 8 105.5 18s29.833 25 26.5 45v6c3.33301 23.333 -7.33398 40.166 -32.001 50.499s-59.334 15.5 -104.001 15.5l7 133c123.333 0 217.666 -17.333 282.999 -52s98 -82.334 98 -143.001c0 -42.667 -14.333 -76 -43 -100
s-64.334 -39 -107.001 -45v-65h-218z" />
    <glyph glyph-name="uni030F" unicode="&#x30f;" horiz-adv-x="0" 
d="M-515 1257l-2 -5h-233l-285 260l2 6h278zM-168 1252h-236l-240 261l2 5h275z" />
    <glyph glyph-name="dotbelow" unicode="&#x323;" horiz-adv-x="0" 
d="M-435 -354h-327v241h327v-241z" />
    <glyph glyph-name="tonos" unicode="&#x384;" horiz-adv-x="695" 
d="M302 1553h278l-197 -283h-142z" />
    <glyph glyph-name="dieresistonos" unicode="&#x385;" horiz-adv-x="1125" 
d="M955 1252h-254v204h254v-204zM406 1252h-253v204h253v-204zM520 1757h282l-176 -279h-148z" />
    <glyph glyph-name="Alphatonos" unicode="&#x386;" horiz-adv-x="1303" 
d="M893 314h-472l-98 -314h-305l491 1456h299l489 -1456h-305zM493 543h329l-161 513h-6zM153 1553h278l-197 -283h-142z" />
    <glyph glyph-name="anoteleia" unicode="&#x387;" horiz-adv-x="619" 
d="M451 568h-292v260h292v-260z" />
    <glyph glyph-name="Epsilontonos" unicode="&#x388;" horiz-adv-x="1139" 
d="M966 640h-540v-416h642v-224h-934v1456h932v-225h-640v-366h540v-225zM-178 1555h278l-197 -283h-142z" />
    <glyph glyph-name="Etatonos" unicode="&#x389;" horiz-adv-x="1445" 
d="M1311 0h-292v605h-593v-605h-292v1456h292v-626h593v626h292v-1456zM-136 1552h278l-197 -283h-142z" />
    <glyph glyph-name="Iotatonos" unicode="&#x38a;" horiz-adv-x="601" 
d="M446 0h-292v1456h292v-1456zM-125 1555h278l-197 -283h-142z" />
    <glyph glyph-name="Omicrontonos" unicode="&#x38c;" horiz-adv-x="1409" 
d="M1312 597c0 -179.333 -56.332 -327.168 -168.999 -443.501s-259.334 -174.5 -440.001 -174.5c-180 0 -326 58.333 -438 175s-168 264.334 -168 443.001v262c0 178 55.833 325.5 167.5 442.5s257.167 175.5 436.5 175.5c180.667 0 327.667 -58.5 441 -175.5
s170 -264.5 170 -442.5v-262zM1021 860.998c0 113.333 -28.332 206.333 -84.999 279s-135 109 -235 109c-98.667 0 -175.5 -36.333 -230.5 -109s-82.5 -165.667 -82.5 -279v-264c0 -115.333 27.667 -209.333 83 -282s132.666 -109 231.999 -109c100 0 178 36.333 234 109
s84 166.667 84 282v264zM33.002 1553h278l-197 -283h-142z" />
    <glyph glyph-name="Upsilontonos" unicode="&#x38e;" horiz-adv-x="1303" 
d="M648 785h6l318 671h320l-499 -944v-512h-292v527l-491 929h320zM-226 1553h278l-197 -283h-142z" />
    <glyph glyph-name="Omegatonos" unicode="&#x38f;" horiz-adv-x="1376" 
d="M735 231c61.333 22 109.665 76.833 144.998 164.5s53 210.5 53 368.5v94c0 127.333 -22.5 224.333 -67.5 291s-107.5 100 -187.5 100c-79.333 0 -141.166 -33.5 -185.499 -100.5s-66.5 -163.833 -66.5 -290.5v-94c0 -159.333 17.833 -282.5 53.5 -369.5
s85.834 -141.5 150.501 -163.5v-231h-504v227h251c-82 60 -148 137.5 -198 232.5s-75 196.5 -75 304.5v92c0 182 53.167 331 159.5 447s244.5 174 414.5 174s308.667 -58 416 -174s161 -265 161 -447v-92c0 -108 -25.167 -209.5 -75.5 -304.5s-115.833 -172.5 -196.5 -232.5
h257v-227h-505v231zM16.999 1553h278l-197 -283h-142z" />
    <glyph glyph-name="iotadieresistonos" unicode="&#x390;" horiz-adv-x="681" 
d="M429 1081l0.00195312 -759.999c0 -42.667 7.33301 -72.5 22 -89.5s37.667 -25.5 69 -25.5c19.333 0 34.666 1.16699 45.999 3.5s28.666 7.16602 51.999 14.499l30 -210c-31.333 -13.333 -61.166 -22.5 -89.499 -27.5s-60.833 -7.5 -97.5 -7.5
c-104.667 0 -184.834 28.5 -240.501 85.5s-83.5 143.833 -83.5 260.5v756h292zM688.002 1188h-254v204h254v-204zM139.002 1188h-253v204h253v-204zM253.002 1693h282l-176 -279h-148z" />
    <glyph glyph-name="Alpha" unicode="&#x391;" horiz-adv-x="1303" 
d="M893 314h-472l-98 -314h-305l491 1456h299l489 -1456h-305zM493 543h329l-161 513h-6z" />
    <glyph glyph-name="Beta" unicode="&#x392;" horiz-adv-x="1305" 
d="M134 0l0.000976562 1456h477c171.333 0 305 -33.5 401 -100.5s144 -166.5 144 -298.5c0 -66.667 -17.333 -126.334 -52 -179.001s-85.334 -92.334 -152.001 -119.001c90.667 -16.667 159 -56 205 -118s69 -134.333 69 -217c0 -139.333 -46 -244.833 -138 -316.5
s-222.333 -107.5 -391 -107.5h-563zM426.001 644.002v-420h271c77.333 0 136.333 16.833 177 50.5s61 83.5 61 149.5c0 70.667 -20 125 -60 163s-100.333 57 -181 57h-268zM426.001 846.002h195c78 0 138 16 180 48s63 78.667 63 140c0 67.333 -21.167 117 -63.5 149
s-105.5 48 -189.5 48h-185v-385z" />
    <glyph glyph-name="Gamma" unicode="&#x393;" horiz-adv-x="1137" 
d="M1081 1231h-657v-1231h-292v1456h949v-225z" />
    <glyph glyph-name="Delta" unicode="&#x394;" horiz-adv-x="1494" 
d="M605 1456h300l572 -1456h-1455zM412 224h676l-331 885h-6z" />
    <glyph glyph-name="Delta" unicode="&#x2206;" horiz-adv-x="1494" 
d="M605 1456h300l572 -1456h-1455zM412 224h676l-331 885h-6z" />
    <glyph glyph-name="Epsilon" unicode="&#x395;" horiz-adv-x="1139" 
d="M966 640h-540v-416h642v-224h-934v1456h932v-225h-640v-366h540v-225z" />
    <glyph glyph-name="Zeta" unicode="&#x396;" horiz-adv-x="1163" 
d="M421 224h668v-224h-1012v152l648 1079h-647v225h994v-146z" />
    <glyph glyph-name="Eta" unicode="&#x397;" horiz-adv-x="1445" 
d="M1311 0h-292v605h-593v-605h-292v1456h292v-626h593v626h292v-1456z" />
    <glyph glyph-name="Theta" unicode="&#x398;" horiz-adv-x="1410" 
d="M900 613h-380v224h380v-224zM1312 597c0 -179.333 -56.332 -327.168 -168.999 -443.501s-259.334 -174.5 -440.001 -174.5c-180 0 -326 58.333 -438 175s-168 264.334 -168 443.001v262c0 178 55.833 325.5 167.5 442.5s257.167 175.5 436.5 175.5
c180.667 0 327.667 -58.5 441 -175.5s170 -264.5 170 -442.5v-262zM1021 860.998c0 113.333 -28.332 206.333 -84.999 279s-135 109 -235 109c-98.667 0 -175.5 -36.333 -230.5 -109s-82.5 -165.667 -82.5 -279v-264c0 -115.333 27.667 -209.333 83 -282
s132.666 -109 231.999 -109c100 0 178 36.333 234 109s84 166.667 84 282v264z" />
    <glyph glyph-name="Iota" unicode="&#x399;" horiz-adv-x="601" 
d="M446 0h-292v1456h292v-1456z" />
    <glyph glyph-name="Kappa" unicode="&#x39a;" horiz-adv-x="1305" 
d="M533 608h-107v-608h-292v1456h292v-595h82l399 595h361l-504 -677l543 -779h-372z" />
    <glyph glyph-name="Lambda" unicode="&#x39b;" horiz-adv-x="1328" 
d="M666 1136h-6l-335 -1136h-306l494 1456h299l494 -1456h-305z" />
    <glyph glyph-name="Mu" unicode="&#x39c;" horiz-adv-x="1782" 
d="M887 383h6l374 1073h381v-1456h-292v994l-6 1l-360 -995h-198l-360 997l-6 -1v-996h-292v1456h383z" />
    <glyph glyph-name="Nu" unicode="&#x39d;" horiz-adv-x="1445" 
d="M1311 0h-292l-587 982l-6 -1v-981h-292v1456h292l587 -981l6 1v980h292v-1456z" />
    <glyph glyph-name="Xi" unicode="&#x39e;" horiz-adv-x="1163" 
d="M98 224h981v-224h-981v224zM210 849h756v-217h-756v217zM120 1456h918v-225h-918v225z" />
    <glyph glyph-name="Omicron" unicode="&#x39f;" horiz-adv-x="1409" 
d="M1312 597c0 -179.333 -56.332 -327.168 -168.999 -443.501s-259.334 -174.5 -440.001 -174.5c-180 0 -326 58.333 -438 175s-168 264.334 -168 443.001v262c0 178 55.833 325.5 167.5 442.5s257.167 175.5 436.5 175.5c180.667 0 327.667 -58.5 441 -175.5
s170 -264.5 170 -442.5v-262zM1021 860.998c0 113.333 -28.332 206.333 -84.999 279s-135 109 -235 109c-98.667 0 -175.5 -36.333 -230.5 -109s-82.5 -165.667 -82.5 -279v-264c0 -115.333 27.667 -209.333 83 -282s132.666 -109 231.999 -109c100 0 178 36.333 234 109
s84 166.667 84 282v264z" />
    <glyph glyph-name="Pi" unicode="&#x3a0;" horiz-adv-x="1444" 
d="M1311 0h-292v1231h-594v-1231h-292v1456h1178v-1456z" />
    <glyph glyph-name="Rho" unicode="&#x3a1;" horiz-adv-x="1305" 
d="M426 528v-528.001h-292v1456h557c167.333 0 299 -42.667 395 -128s144 -197.666 144 -336.999s-48 -251.333 -144 -336s-227.667 -127 -395 -127h-265zM426 752.999h265c81.333 0 143 22.167 185 66.5s63 100.833 63 169.5c0 70 -20.833 127.833 -62.5 173.5
s-103.5 68.5 -185.5 68.5h-265v-478z" />
    <glyph glyph-name="Sigma" unicode="&#x3a3;" horiz-adv-x="1163" 
d="M824 724l-364 -499h645v-225h-1033v152l443 581l-443 572v151h1006v-225h-616l362 -490v-17z" />
    <glyph glyph-name="Tau" unicode="&#x3a4;" horiz-adv-x="1175" 
d="M1149 1231h-416v-1231h-292v1231h-410v225h1118v-225z" />
    <glyph glyph-name="Upsilon" unicode="&#x3a5;" horiz-adv-x="1303" 
d="M648 785h6l318 671h320l-499 -944v-512h-292v527l-491 929h320z" />
    <glyph glyph-name="Phi" unicode="&#x3a6;" horiz-adv-x="1507" 
d="M909 1255c165.333 -10.667 299.168 -64.333 401.501 -161s153.5 -221.334 153.5 -374.001c0 -150 -51.333 -272.5 -154 -367.5s-236.334 -147.5 -401.001 -157.5v-195h-292v195c-166.667 8.66699 -301.334 60.334 -404.001 155.001s-154 217.334 -154 368.001
c0 154 51.333 279.667 154 377s237.334 150.666 404.001 159.999v201h292v-201zM345.002 718.001c0 -83.333 23.833 -149.333 71.5 -198s112.5 -75 194.5 -79l6 2v564l-6 2c-82 -5.33301 -146.833 -33.333 -194.5 -84s-71.5 -119.667 -71.5 -207zM1177 720.001
c0 86 -23.5 154.167 -70.5 204.5s-110.833 78.5 -191.5 84.5l-6 -2v-564l6 -2c80.667 5.33301 144.5 32.333 191.5 81s70.5 114.667 70.5 198z" />
    <glyph glyph-name="Chi" unicode="&#x3a7;" horiz-adv-x="1303" 
d="M649 940l273 516h340l-432 -722l457 -734h-353l-281 525l-281 -525h-341l443 734l-432 722h338z" />
    <glyph glyph-name="Psi" unicode="&#x3a8;" horiz-adv-x="1483" 
d="M888 581l6 -1.00293c76.667 10 135 45.333 175 106s60 145 60 253v517h293v-517c0 -173.333 -48 -311.666 -144 -414.999s-226 -163.666 -390 -180.999v-343h-291v342c-167.333 14 -299.333 72.833 -396 176.5s-145 243.834 -145 420.501v517h291v-517
c0 -105.333 21.333 -188.5 64 -249.5s102.667 -97.5 180 -109.5l6 2v874h291v-875z" />
    <glyph glyph-name="Omega" unicode="&#x3a9;" horiz-adv-x="1376" 
d="M735 231c61.333 22 109.665 76.833 144.998 164.5s53 210.5 53 368.5v94c0 127.333 -22.5 224.333 -67.5 291s-107.5 100 -187.5 100c-79.333 0 -141.166 -33.5 -185.499 -100.5s-66.5 -163.833 -66.5 -290.5v-94c0 -159.333 17.833 -282.5 53.5 -369.5
s85.834 -141.5 150.501 -163.5v-231h-504v227h251c-82 60 -148 137.5 -198 232.5s-75 196.5 -75 304.5v92c0 182 53.167 331 159.5 447s244.5 174 414.5 174s308.667 -58 416 -174s161 -265 161 -447v-92c0 -108 -25.167 -209.5 -75.5 -304.5s-115.833 -172.5 -196.5 -232.5
h257v-227h-505v231z" />
    <glyph glyph-name="Omega" unicode="&#x2126;" horiz-adv-x="1376" 
d="M735 231c61.333 22 109.665 76.833 144.998 164.5s53 210.5 53 368.5v94c0 127.333 -22.5 224.333 -67.5 291s-107.5 100 -187.5 100c-79.333 0 -141.166 -33.5 -185.499 -100.5s-66.5 -163.833 -66.5 -290.5v-94c0 -159.333 17.833 -282.5 53.5 -369.5
s85.834 -141.5 150.501 -163.5v-231h-504v227h251c-82 60 -148 137.5 -198 232.5s-75 196.5 -75 304.5v92c0 182 53.167 331 159.5 447s244.5 174 414.5 174s308.667 -58 416 -174s161 -265 161 -447v-92c0 -108 -25.167 -209.5 -75.5 -304.5s-115.833 -172.5 -196.5 -232.5
h257v-227h-505v231z" />
    <glyph glyph-name="Iotadieresis" unicode="&#x3aa;" horiz-adv-x="601" 
d="M446 0h-292v1456h292v-1456zM684 1601h-266v204h266v-204zM184 1601h-266v204h266v-204z" />
    <glyph glyph-name="Upsilondieresis" unicode="&#x3ab;" horiz-adv-x="1303" 
d="M648 785h6l318 671h320l-499 -944v-512h-292v527l-491 929h320zM1040 1601h-266v204h266v-204zM540 1601h-266v204h266v-204z" />
    <glyph glyph-name="alphatonos" unicode="&#x3ac;" horiz-adv-x="1154" 
d="M1029 1081l-0.000976562 -756.001c0 -42.667 5.83301 -72.5 17.5 -89.5s29.5 -25.5 53.5 -25.5c8.66699 0 16 0.5 22 1.5s12.333 2.83301 19 5.5l25 -210c-23.333 -10.667 -45.666 -18 -66.999 -22s-46 -6 -74 -6c-62 0 -114.5 12.667 -157.5 38s-75.5 64 -97.5 116
c-32.667 -50 -71.667 -88.167 -117 -114.5s-98.333 -39.5 -159 -39.5c-133.333 0 -236.833 48.667 -310.5 146s-110.5 226 -110.5 386v21c0 170.667 37 308.334 111 413.001s178 157 312 157c58 0 109.167 -13.333 153.5 -40s82.833 -64.667 115.5 -114l46 133h218z
M364.999 510.999c0 -95.333 15.833 -170.499 47.5 -225.499s83.5 -82.5 155.5 -82.5c39.333 0 73 7.5 101 22.5s51 37.167 69 66.5c-0.666992 4.66699 -1 9.5 -1 14.5v18.5v458c-18.667 30 -41.667 53.167 -69 69.5s-60 24.5 -98 24.5
c-71.333 0 -123.333 -31.833 -156 -95.5s-49 -146.834 -49 -249.501v-21zM569.999 1506h278l-197 -283h-142z" />
    <glyph glyph-name="epsilontonos" unicode="&#x3ad;" horiz-adv-x="1140" 
d="M584 458c-64 0 -113 -10.667 -147 -32s-51 -55 -51 -101c0 -36.667 17.167 -68.167 51.5 -94.5s82.5 -39.5 144.5 -39.5c62.667 0 111.667 12.333 147 37s53 55.334 53 92.001h281l2 -6c3.33301 -108 -41.5 -190.667 -134.5 -248s-203.833 -86 -332.5 -86
c-146.667 0 -267.167 29.167 -361.5 87.5s-141.5 137.833 -141.5 238.5c0 60 17.5 111.333 52.5 154s85.5 75 151.5 97c-58 24 -103.333 56.167 -136 96.5s-49 84.5 -49 132.5c0 100 44 177.5 132 232.5s205.333 82.5 352 82.5c128.667 0 236.667 -29.833 324 -89.5
s129.333 -137.834 126 -234.501l-2 -6h-282c0 36 -17 64.667 -51 86s-77.333 32 -130 32c-59.333 0 -103.833 -12.333 -133.5 -37s-44.5 -53.667 -44.5 -87c0 -36.667 15.333 -65.5 46 -86.5s75 -31.5 133 -31.5h187v-189h-187zM536 1505h278l-197 -283h-142z" />
    <glyph glyph-name="etatonos" unicode="&#x3ae;" 
d="M379 1082l13 -151.999c35.333 54 79.333 96.167 132 126.5s111.334 45.5 176.001 45.5c110 0 195.5 -34.667 256.5 -104s91.5 -181 91.5 -335v-1078h-293v1077c0 77.333 -13.5 132.5 -40.5 165.5s-67.5 49.5 -121.5 49.5c-42.667 0 -80.334 -7.83301 -113.001 -23.5
s-59.667 -37.834 -81 -66.501v-787h-292v1082h272zM528 1506h278l-197 -283h-142z" />
    <glyph glyph-name="iotatonos" unicode="&#x3af;" horiz-adv-x="681" 
d="M429 1081l0.00195312 -759.999c0 -42.667 7.33301 -72.5 22 -89.5s37.667 -25.5 69 -25.5c19.333 0 34.666 1.16699 45.999 3.5s28.666 7.16602 51.999 14.499l30 -210c-31.333 -13.333 -61.166 -22.5 -89.499 -27.5s-60.833 -7.5 -97.5 -7.5
c-104.667 0 -184.834 28.5 -240.501 85.5s-83.5 143.833 -83.5 260.5v756h292zM249.002 1484h278l-197 -283h-142z" />
    <glyph glyph-name="upsilondieresistonos" unicode="&#x3b0;" 
d="M404 1082l0.00195312 -611.999c0 -94.667 16.833 -162.834 50.5 -204.501s78.5 -62.5 134.5 -62.5c70 0 121 35.167 153 105.5s48 156.166 48 257.499c-2 84 -11.667 169 -29 255s-41.333 173 -72 261h278c33.333 -70 60.666 -148.167 81.999 -234.5
s32 -180.166 32 -281.499c0 -178.667 -37.833 -321.167 -113.5 -427.5s-198.5 -159.5 -368.5 -159.5c-152.667 0 -271.834 40.667 -357.501 122s-128.5 205 -128.5 371v610h291zM987.002 1189h-254v204h254v-204zM438.002 1189h-253v204h253v-204zM552.002 1694h282
l-176 -279h-148z" />
    <glyph glyph-name="alpha" unicode="&#x3b1;" horiz-adv-x="1154" 
d="M1029 1081l-0.000976562 -756.001c0 -42.667 5.83301 -72.5 17.5 -89.5s29.5 -25.5 53.5 -25.5c8.66699 0 16 0.5 22 1.5s12.333 2.83301 19 5.5l25 -210c-23.333 -10.667 -45.666 -18 -66.999 -22s-46 -6 -74 -6c-62 0 -114.5 12.667 -157.5 38s-75.5 64 -97.5 116
c-32.667 -50 -71.667 -88.167 -117 -114.5s-98.333 -39.5 -159 -39.5c-133.333 0 -236.833 48.667 -310.5 146s-110.5 226 -110.5 386v21c0 170.667 37 308.334 111 413.001s178 157 312 157c58 0 109.167 -13.333 153.5 -40s82.833 -64.667 115.5 -114l46 133h218z
M364.999 510.999c0 -95.333 15.833 -170.499 47.5 -225.499s83.5 -82.5 155.5 -82.5c39.333 0 73 7.5 101 22.5s51 37.167 69 66.5c-0.666992 4.66699 -1 9.5 -1 14.5v18.5v458c-18.667 30 -41.667 53.167 -69 69.5s-60 24.5 -98 24.5
c-71.333 0 -123.333 -31.833 -156 -95.5s-49 -146.834 -49 -249.501v-21z" />
    <glyph glyph-name="beta" unicode="&#x3b2;" horiz-adv-x="1233" 
d="M627 1477c143.333 0 257.501 -35.001 342.501 -105.001s127.5 -166.667 127.5 -290c0 -65.333 -17 -125.166 -51 -179.499s-80.667 -97.5 -140 -129.5c80.667 -28.667 143.167 -74 187.5 -136s66.5 -136 66.5 -222c0 -138 -39.833 -245.167 -119.5 -321.5
s-188.5 -114.5 -326.5 -114.5c-49.333 0 -98.333 6.33301 -147 19s-93.334 31.667 -134.001 57v-458h-291v1440c0 128.667 46.833 234.167 140.5 316.5s208.5 123.5 344.5 123.5zM623.001 858.999c62.667 0 108.667 17.499 138 52.499s44 85.5 44 151.5
c0 52.667 -15.5 97.334 -46.5 134.001s-74.833 55 -131.5 55c-57.333 0 -104 -19.667 -140 -59s-54 -91.333 -54 -156v-773c26 -20 57.167 -35.167 93.5 -45.5s76.833 -15.5 121.5 -15.5c67.333 0 120.833 20.167 160.5 60.5s59.5 91.833 59.5 154.5
c0 72 -18.667 129.167 -56 171.5s-90 63.5 -158 63.5h-96v206h65z" />
    <glyph glyph-name="gamma" unicode="&#x3b3;" horiz-adv-x="1046" 
d="M726 1082h305l-362 -1065v-434h-292v437l-361 1062h305l182 -679l19 -100h6l20 100z" />
    <glyph glyph-name="delta" unicode="&#x3b4;" 
d="M979 1456l-0.000976562 -223.998h-404l-2 -6l244 -188c78.667 -58 143.5 -127.833 194.5 -209.5s76.5 -174.167 76.5 -277.5v-21c0 -162.667 -45.167 -295.167 -135.5 -397.5s-215.166 -153.5 -374.499 -153.5c-160 0 -285.167 48.667 -375.5 146
s-135.5 223.666 -135.5 378.999v21c0 133.333 36 246.666 108 339.999s164.333 150 277 170l8 1l1 6l-291 237v177h809zM575.999 877.002c-75.333 0 -130.5 -30.499 -165.5 -91.499s-52.5 -139.167 -52.5 -234.5v-21c0 -98.667 17.333 -177.834 52 -237.501
s90.667 -89.5 168 -89.5c75.333 0 130.5 30 165.5 90s52.5 139 52.5 237v21c0 96 -17.667 174.333 -53 235s-91 91 -167 91z" />
    <glyph glyph-name="epsilon" unicode="&#x3b5;" horiz-adv-x="1140" 
d="M584 458c-64 0 -113 -10.667 -147 -32s-51 -55 -51 -101c0 -36.667 17.167 -68.167 51.5 -94.5s82.5 -39.5 144.5 -39.5c62.667 0 111.667 12.333 147 37s53 55.334 53 92.001h281l2 -6c3.33301 -108 -41.5 -190.667 -134.5 -248s-203.833 -86 -332.5 -86
c-146.667 0 -267.167 29.167 -361.5 87.5s-141.5 137.833 -141.5 238.5c0 60 17.5 111.333 52.5 154s85.5 75 151.5 97c-58 24 -103.333 56.167 -136 96.5s-49 84.5 -49 132.5c0 100 44 177.5 132 232.5s205.333 82.5 352 82.5c128.667 0 236.667 -29.833 324 -89.5
s129.333 -137.834 126 -234.501l-2 -6h-282c0 36 -17 64.667 -51 86s-77.333 32 -130 32c-59.333 0 -103.833 -12.333 -133.5 -37s-44.5 -53.667 -44.5 -87c0 -36.667 15.333 -65.5 46 -86.5s75 -31.5 133 -31.5h187v-189h-187z" />
    <glyph glyph-name="zeta" unicode="&#x3b6;" horiz-adv-x="1034" 
d="M968 1456l0.000976562 -155.998l-360 -432c-72.667 -86 -124.334 -160.833 -155.001 -224.5s-46 -137.5 -46 -221.5c0 -68 16.167 -118.5 48.5 -151.5s82.5 -49.5 150.5 -49.5h54c98 0 175.333 -24.333 232 -73s85 -117.667 85 -207
c-1.33301 -83.333 -31.666 -158.5 -90.999 -225.5s-138.666 -114.5 -237.999 -142.5l-97 193c43.333 18.667 78.166 39.667 104.499 63s39.5 52.666 39.5 87.999c0 26.667 -10.333 47.167 -31 61.5s-55.334 21.5 -104.001 21.5h-49c-128.667 0 -226.5 36.667 -293.5 110
s-100.5 164 -100.5 272c0 102 22 199.667 66 293s112.333 196.666 205 309.999l205 242l-2 5h-516v224h893z" />
    <glyph glyph-name="eta" unicode="&#x3b7;" 
d="M379 1082l13 -151.999c35.333 54 79.333 96.167 132 126.5s111.334 45.5 176.001 45.5c110 0 195.5 -34.667 256.5 -104s91.5 -181 91.5 -335v-1078h-293v1077c0 77.333 -13.5 132.5 -40.5 165.5s-67.5 49.5 -121.5 49.5c-42.667 0 -80.334 -7.83301 -113.001 -23.5
s-59.667 -37.834 -81 -66.501v-787h-292v1082h272z" />
    <glyph glyph-name="theta" unicode="&#x3b8;" horiz-adv-x="1209" 
d="M1086 527c0 -170.667 -44.834 -304.667 -134.501 -402s-208.5 -146 -356.5 -146c-149.333 0 -269 48.667 -359 146s-135 231.333 -135 402v401c0 170 44.833 304 134.5 402s208.834 147 357.501 147c148 0 267.167 -49 357.5 -147s135.5 -232 135.5 -402v-401z
M794.999 623h-403v-124c0 -95.333 17.667 -168.5 53 -219.5s85.333 -76.5 150 -76.5c63.333 0 112.5 25.5 147.5 76.5s52.5 124.167 52.5 219.5v124zM391.999 840h403v118c0 93.333 -17.833 165.666 -53.5 216.999s-85.167 77 -148.5 77c-64 0 -113.5 -25.667 -148.5 -77
s-52.5 -123.666 -52.5 -216.999v-118z" />
    <glyph glyph-name="iota" unicode="&#x3b9;" horiz-adv-x="681" 
d="M429 1081l0.00195312 -759.999c0 -42.667 7.33301 -72.5 22 -89.5s37.667 -25.5 69 -25.5c19.333 0 34.666 1.16699 45.999 3.5s28.666 7.16602 51.999 14.499l30 -210c-31.333 -13.333 -61.166 -22.5 -89.499 -27.5s-60.833 -7.5 -97.5 -7.5
c-104.667 0 -184.834 28.5 -240.501 85.5s-83.5 143.833 -83.5 260.5v756h292z" />
    <glyph glyph-name="kappa" unicode="&#x3ba;" horiz-adv-x="1210" 
d="M537 405h-116v-405h-292v1082h292v-412h87l279 412h368l-384 -507l401 -575h-374z" />
    <glyph glyph-name="lambda" unicode="&#x3bb;" horiz-adv-x="1102" 
d="M327 0l-315.001 0.000976562l376 1059l-54 108c-16 36.667 -37.333 66.667 -64 90s-57.667 35 -93 35c-8.66699 0 -20 -0.666992 -34 -2s-24.667 -2.66602 -32 -3.99902l-6 209c27.333 7.33301 51.833 13 73.5 17s44.834 6 69.501 6c105.333 0 184.5 -26.333 237.5 -79
s94.5 -117.667 124.5 -195l363 -899c12 -35.333 27.833 -64.333 47.5 -87s43.167 -36.334 70.5 -41.001c8 -1.33301 16.167 -2 24.5 -2s17.5 0.333008 27.5 1l-19 -219c-21.333 -4 -43.166 -6.83301 -65.499 -8.5s-44.5 -1.83398 -66.5 -0.500977
c-84.667 6 -151.834 39.5 -201.501 100.5s-89.167 135.167 -118.5 222.5l-142 392h-6l-15 -80z" />
    <glyph glyph-name="uni03BC" unicode="&#x3bc;" horiz-adv-x="1264" 
d="M430 1082l0.000976562 -620c0 -99.333 15 -166.833 45 -202.5s75 -53.5 135 -53.5c50 0 91.667 9.16699 125 27.5s59.333 44.833 78 79.5v769h292v-1082h-272l-6 67c-29.333 -28.667 -62.833 -50.5 -100.5 -65.5s-78.834 -22.5 -123.501 -22.5
c-34 0 -65.5 3.5 -94.5 10.5s-55.167 18.167 -78.5 33.5v-439h-291v1498h291z" />
    <glyph glyph-name="nu" unicode="&#x3bd;" horiz-adv-x="1046" 
d="M503 403l19 -100h6l20 100l178 679h305l-368 -1082h-279l-368 1082h305z" />
    <glyph glyph-name="xi" unicode="&#x3be;" horiz-adv-x="1097" 
d="M981 1456l0.000976562 -232.001h-280c-72.667 -2 -126.834 -17.333 -162.501 -46s-53.5 -67 -53.5 -115c0 -50 17.833 -89.5 53.5 -118.5s91.5 -43.5 167.5 -43.5h151v-232h-143c-104.667 0 -184.167 -21.5 -238.5 -64.5s-81.5 -105.833 -81.5 -188.5
c0 -61.333 21 -110.833 63 -148.5s99.667 -56.5 173 -56.5h121c102 0 182 -23.333 240 -70s87 -115.667 87 -207c-1.33301 -94 -30.166 -173 -86.499 -237s-136.833 -112.333 -241.5 -145l-82 172c39.333 17.333 73.166 38.166 101.499 62.499s42.5 56.5 42.5 96.5
c0 30 -10.5 53.5 -31.5 70.5s-53.167 25.5 -96.5 25.5h-70c-156 0 -280.167 38.833 -372.5 116.5s-138.5 185.834 -138.5 324.501c0 88.667 25 163.667 75 225s123.333 107.666 220 138.999c-66 22.667 -116.667 53.834 -152 93.501s-53 86.834 -53 141.501
c0 46 12.167 86.167 36.5 120.5s59.5 62.5 105.5 84.5h-213v232h859z" />
    <glyph glyph-name="omicron" unicode="&#x3bf;" 
d="M67 551c0 161.333 44.999 293.5 134.999 396.5s214.667 154.5 374 154.5c160 0 285.333 -51.333 376 -154s136 -235 136 -397v-21c0 -162.667 -45.167 -295.167 -135.5 -397.5s-215.166 -153.5 -374.499 -153.5c-160 0 -285.167 51.167 -375.5 153.5
s-135.5 234.833 -135.5 397.5v21zM357.999 530c0 -98.667 17.333 -177.833 52 -237.5s90.667 -89.5 168 -89.5c75.333 0 130.5 30 165.5 90s52.5 139 52.5 237v21c0 96 -17.667 174.333 -53 235s-91 91 -167 91c-75.333 0 -130.5 -30.5 -165.5 -91.5
s-52.5 -139.167 -52.5 -234.5v-21z" />
    <glyph glyph-name="pi" unicode="&#x3c0;" horiz-adv-x="1356" 
d="M1223 868l-192.998 0.000976562v-547c0 -42.667 7.33301 -72.5 22 -89.5s37.667 -25.5 69 -25.5c19.333 0 34.666 1.16699 45.999 3.5s28.666 7.16602 51.999 14.499l30 -210c-31.333 -13.333 -61.166 -22.5 -89.499 -27.5s-60.833 -7.5 -97.5 -7.5
c-104.667 0 -184.834 28.5 -240.501 85.5s-83.5 143.833 -83.5 260.5v543h-209v-868h-292v868h-159v214h1145v-214z" />
    <glyph glyph-name="rho" unicode="&#x3c1;" 
d="M1086 511c0 -160 -36.666 -288.668 -109.999 -386.001s-176.333 -146 -309 -146c-56.667 0 -106.834 10.167 -150.501 30.5s-81.5 50.166 -113.5 89.499v-515h-291v993c0 156.667 44.5 283.334 133.5 380.001s209.5 145 361.5 145c152.667 0 270.667 -52.167 354 -156.5
s125 -242.166 125 -413.499v-21zM795.001 531.999c0 102.667 -16.335 185.833 -49.002 249.5s-84 95.5 -154 95.5c-63.333 0 -110.666 -30.667 -141.999 -92s-47 -138.333 -47 -231l-1 -1h1v-256c18 -30.667 42.5 -54 73.5 -70s69.167 -24 114.5 -24
c70.667 0 122.334 27.667 155.001 83s49 130.333 49 225v21z" />
    <glyph glyph-name="sigma1" unicode="&#x3c2;" horiz-adv-x="1052" 
d="M562 1102c133.333 0 240.332 -37.1689 320.999 -111.502s119.667 -175.166 117 -302.499l-2 -6h-266c0 56.667 -14.5 103.334 -43.5 140.001s-71.167 55 -126.5 55c-74.667 0 -128 -30.333 -160 -91s-48 -137.667 -48 -231v-30c0 -90.667 21.667 -160.667 65 -210
s113.333 -81 210 -95c126 -20 217.833 -51.333 275.5 -94s86.5 -108.667 86.5 -198c-1.33301 -84 -31.666 -159.333 -90.999 -226s-138.333 -114 -237 -142l-97 193c43.333 19.333 78 40.333 104 63s39 52 39 88c0 26.667 -12.5 47.5 -37.5 62.5s-63.833 27.167 -116.5 36.5
c-166 24 -289.667 80 -371 168s-122 206 -122 354v30c0 158 43.833 288.667 131.5 392s210.5 155 368.5 155z" />
    <glyph glyph-name="sigma" unicode="&#x3c3;" horiz-adv-x="1172" 
d="M1149 856l-257.998 -0.000976562c53.333 -44 96.666 -96.167 129.999 -156.5s50 -123.5 50 -189.5v-21c0 -147.333 -44 -269.166 -132 -365.499s-208.667 -144.5 -362 -144.5c-160.667 0 -286.167 51.167 -376.5 153.5s-135.5 234.833 -135.5 397.5v21
c0 156 45.167 283.5 135.5 382.5s215.166 148.5 374.499 148.5h574v-226zM357.002 529.999c0 -98.667 17.333 -177.833 52 -237.5s90.667 -89.5 168 -89.5c70 0 121.333 30 154 90s49 139 49 237v21c0 90 -16.5 163.333 -49.5 220s-84.833 85 -155.5 85
c-75.333 0 -130.5 -28.5 -165.5 -85.5s-52.5 -130.167 -52.5 -219.5v-21z" />
    <glyph glyph-name="tau" unicode="&#x3c4;" horiz-adv-x="1076" 
d="M1031 859h-347v-859h-292v859h-341v223h980v-223z" />
    <glyph glyph-name="upsilon" unicode="&#x3c5;" 
d="M404 1082l0.00195312 -611.999c0 -94.667 16.833 -162.834 50.5 -204.501s78.5 -62.5 134.5 -62.5c70 0 121 35.167 153 105.5s48 156.166 48 257.499c-2 84 -11.667 169 -29 255s-41.333 173 -72 261h278c33.333 -70 60.666 -148.167 81.999 -234.5
s32 -180.166 32 -281.499c0 -178.667 -37.833 -321.167 -113.5 -427.5s-198.5 -159.5 -368.5 -159.5c-152.667 0 -271.834 40.667 -357.501 122s-128.5 205 -128.5 371v610h291z" />
    <glyph glyph-name="phi" unicode="&#x3c6;" horiz-adv-x="1529" 
d="M901 1082c177.333 0 315.332 -54.832 413.999 -164.499s148 -236.5 148 -380.5c0 -146 -45 -269.5 -135 -370.5s-232.333 -161.167 -427 -180.5v-464h-291v466c-194 23.333 -335.333 90.166 -424 200.499s-133 244.833 -133 403.5c0 96 11.833 185 35.5 267
s54.834 156.333 93.501 223h271c-33.333 -87.333 -59.5 -171.333 -78.5 -252s-28.833 -160 -29.5 -238c0 -96.667 20.167 -177.167 60.5 -241.5s106.5 -105.5 198.5 -123.5l6 2v853h291zM1171 537.001c-1.33301 92 -25.001 167.832 -71.001 227.499
s-110.333 87.834 -193 84.501l-6 -2v-624l6 -2c92.667 14.667 159.834 50 201.501 106s62.5 126 62.5 210z" />
    <glyph glyph-name="chi" unicode="&#x3c7;" horiz-adv-x="1102" 
d="M166 1098c105.333 0 184.671 -26.5 238.004 -79.5s94.666 -117.5 123.999 -193.5l62 -145l6 -1l196 403h296l-358 -729l184 -426c13.333 -34.667 29.666 -63.334 48.999 -86.001s42.333 -36.667 69 -42c7.33301 -1.33301 15.333 -2 24 -2h28l-19 -220
c-20 -4.66699 -41.333 -7.66699 -64 -9s-45.334 -1 -68.001 1c-74 6.66699 -133.5 40 -178.5 100s-84.167 134.667 -117.5 224l-59 136l-6 1l-219 -446h-289l374 770l-170 394c-15.333 38.667 -38.333 69.167 -69 91.5s-65.334 33.5 -104.001 33.5
c-8.66699 0 -20 -0.666992 -34 -2s-24.667 -2.66602 -32 -3.99902l-6 209c26 6.66699 50 12 72 16s45.667 6 71 6z" />
    <glyph glyph-name="psi" unicode="&#x3c8;" horiz-adv-x="1526" 
d="M899 1082v-854.002l6 -2c91.333 18 158.166 59.5 200.499 124.5s63.5 145.5 63.5 241.5c-2 78.667 -12.5 158.334 -31.5 239.001s-44.833 164.334 -77.5 251.001h271c38 -66 69 -140 93 -222s36 -171.333 36 -268c0 -160.667 -44.667 -296.334 -134 -407.001
s-231.666 -176.667 -426.999 -198v-465h-292v467c-171.333 20.667 -304 80.5 -398 179.5s-141 239.5 -141 421.5v492h292v-495c0 -107.333 21.5 -190.166 64.5 -248.499s101.833 -94.833 176.5 -109.5l6 1v852h292z" />
    <glyph glyph-name="omega" unicode="&#x3c9;" horiz-adv-x="1760" 
d="M512 1082c-42.667 -86.667 -76.1689 -173.166 -100.502 -259.499s-37.833 -171.833 -40.5 -256.5c0 -105.333 13.667 -192.166 41 -260.499s72.333 -102.5 135 -102.5c53.333 0 96.5 22.833 129.5 68.5s49.5 118.5 49.5 218.5v346h308v-346
c0 -100 16.167 -172.833 48.5 -218.5s75.5 -68.5 129.5 -68.5c62 0 106.833 34 134.5 102s41.5 155 41.5 261c-2.66699 85.333 -16.167 171 -40.5 257s-57.833 172.333 -100.5 259h278c46 -68.667 83.167 -146.334 111.5 -233.001s42.5 -181 42.5 -283
c0 -178.667 -35.667 -321.167 -107 -427.5s-187.666 -159.5 -348.999 -159.5c-78.667 0 -147.167 18.333 -205.5 55s-104.166 90.334 -137.499 161.001c-34 -70.667 -80.333 -124.334 -139 -161.001s-126.667 -55 -204 -55c-162 0 -278.667 53.167 -350 159.5
s-107 248.833 -107 427.5c0 102 14 196.167 42 282.5s65.333 164.166 112 233.499h278z" />
    <glyph glyph-name="iotadieresis" unicode="&#x3ca;" horiz-adv-x="681" 
d="M429 1081l0.00195312 -759.999c0 -42.667 7.33301 -72.5 22 -89.5s37.667 -25.5 69 -25.5c19.333 0 34.666 1.16699 45.999 3.5s28.666 7.16602 51.999 14.499l30 -210c-31.333 -13.333 -61.166 -22.5 -89.499 -27.5s-60.833 -7.5 -97.5 -7.5
c-104.667 0 -184.834 28.5 -240.501 85.5s-83.5 143.833 -83.5 260.5v756h292zM681.002 1257h-266v204h266v-204zM181.002 1257h-266v204h266v-204z" />
    <glyph glyph-name="upsilondieresis" unicode="&#x3cb;" 
d="M404 1082l0.00195312 -611.999c0 -94.667 16.833 -162.834 50.5 -204.501s78.5 -62.5 134.5 -62.5c70 0 121 35.167 153 105.5s48 156.166 48 257.499c-2 84 -11.667 169 -29 255s-41.333 173 -72 261h278c33.333 -70 60.666 -148.167 81.999 -234.5
s32 -180.166 32 -281.499c0 -178.667 -37.833 -321.167 -113.5 -427.5s-198.5 -159.5 -368.5 -159.5c-152.667 0 -271.834 40.667 -357.501 122s-128.5 205 -128.5 371v610h291zM980.002 1258h-266v204h266v-204zM480.002 1258h-266v204h266v-204z" />
    <glyph glyph-name="omicrontonos" unicode="&#x3cc;" 
d="M67 551c0 161.333 44.999 293.5 134.999 396.5s214.667 154.5 374 154.5c160 0 285.333 -51.333 376 -154s136 -235 136 -397v-21c0 -162.667 -45.167 -295.167 -135.5 -397.5s-215.166 -153.5 -374.499 -153.5c-160 0 -285.167 51.167 -375.5 153.5
s-135.5 234.833 -135.5 397.5v21zM357.999 530c0 -98.667 17.333 -177.833 52 -237.5s90.667 -89.5 168 -89.5c75.333 0 130.5 30 165.5 90s52.5 139 52.5 237v21c0 96 -17.667 174.333 -53 235s-91 91 -167 91c-75.333 0 -130.5 -30.5 -165.5 -91.5
s-52.5 -139.167 -52.5 -234.5v-21zM527.999 1506h278l-197 -283h-142z" />
    <glyph glyph-name="upsilontonos" unicode="&#x3cd;" 
d="M404 1082l0.00195312 -611.999c0 -94.667 16.833 -162.834 50.5 -204.501s78.5 -62.5 134.5 -62.5c70 0 121 35.167 153 105.5s48 156.166 48 257.499c-2 84 -11.667 169 -29 255s-41.333 173 -72 261h278c33.333 -70 60.666 -148.167 81.999 -234.5
s32 -180.166 32 -281.499c0 -178.667 -37.833 -321.167 -113.5 -427.5s-198.5 -159.5 -368.5 -159.5c-152.667 0 -271.834 40.667 -357.501 122s-128.5 205 -128.5 371v610h291zM548.002 1485h278l-197 -283h-142z" />
    <glyph glyph-name="omegatonos" unicode="&#x3ce;" horiz-adv-x="1760" 
d="M512 1082c-42.667 -86.667 -76.1689 -173.166 -100.502 -259.499s-37.833 -171.833 -40.5 -256.5c0 -105.333 13.667 -192.166 41 -260.499s72.333 -102.5 135 -102.5c53.333 0 96.5 22.833 129.5 68.5s49.5 118.5 49.5 218.5v346h308v-346
c0 -100 16.167 -172.833 48.5 -218.5s75.5 -68.5 129.5 -68.5c62 0 106.833 34 134.5 102s41.5 155 41.5 261c-2.66699 85.333 -16.167 171 -40.5 257s-57.833 172.333 -100.5 259h278c46 -68.667 83.167 -146.334 111.5 -233.001s42.5 -181 42.5 -283
c0 -178.667 -35.667 -321.167 -107 -427.5s-187.666 -159.5 -348.999 -159.5c-78.667 0 -147.167 18.333 -205.5 55s-104.166 90.334 -137.499 161.001c-34 -70.667 -80.333 -124.334 -139 -161.001s-126.667 -55 -204 -55c-162 0 -278.667 53.167 -350 159.5
s-107 248.833 -107 427.5c0 102 14 196.167 42 282.5s65.333 164.166 112 233.499h278zM829.998 1485h278l-197 -283h-142z" />
    <glyph glyph-name="uni03D1" unicode="&#x3d1;" horiz-adv-x="1396" 
d="M546 968l-0.00292969 103c0 123.333 35.833 221.833 107.5 295.5s164.834 110.5 279.501 110.5c114 0 204.333 -36.167 271 -108.5s100 -171.5 100 -297.5v-515c0 -174 -53.667 -313.667 -161 -419s-248.666 -158 -423.999 -158c-177.333 0 -321.166 54.667 -431.499 164
s-165.5 247 -165.5 413v696l308 2v-698c0 -101.333 25.833 -183.833 77.5 -247.5s122.167 -95.5 211.5 -95.5c84.667 0 151.5 29.333 200.5 88s74.833 140 77.5 244c-129.333 9.33301 -236.833 53.333 -322.5 132s-128.5 175.667 -128.5 291v0zM996.997 1098
c0 43.333 -6.83301 76 -20.5 98s-33.5 33 -59.5 33c-28.667 0 -51.5 -11.167 -68.5 -33.5s-25.5 -54.833 -25.5 -97.5v-132c0 -55.333 15 -102 45 -140s71 -59.667 123 -65l6 2v335z" />
    <glyph glyph-name="uni03D2" unicode="&#x3d2;" horiz-adv-x="1202" 
d="M770 1203c40.667 102 86.167 173.666 136.5 214.999s118.833 62 205.5 62c21.333 0 40.333 -1.33301 57 -4s32 -7.66699 46 -15l-24 -222c-2.66699 0.666992 -10 1.66699 -22 3s-21.667 2 -29 2c-24.667 0 -46.334 -8.66699 -65.001 -26s-34 -40.333 -46 -69l-286 -672
v-477h-291v489l-280 660c-13.333 28.667 -29.333 51.667 -48 69s-40 26 -64 26c-8 0 -17.833 -0.666992 -29.5 -2s-18.5 -2.33301 -20.5 -3l-23 222c12.667 7.33301 27.334 12.333 44.001 15s36 4 58 4c87.333 0 156 -19.667 206 -59s95 -109.666 135 -210.999l149 -385
l18 -90h6l19 90z" />
    <glyph glyph-name="uni03D6" unicode="&#x3d6;" horiz-adv-x="1696" 
d="M1688 900h-132.999c18 -50 32.167 -103 42.5 -159s15.5 -114.333 15.5 -175c0 -178.667 -33.333 -321.167 -100 -427.5s-175.334 -159.5 -326.001 -159.5c-77.333 0 -144.833 18.333 -202.5 55s-102.834 90.334 -135.501 161.001
c-34 -70.667 -79.833 -124.334 -137.5 -161.001s-124.5 -55 -200.5 -55c-151.333 0 -260.166 53.167 -326.499 159.5s-99.5 248.833 -99.5 427.5c0 60.667 5 119 15 175s24.333 109 43 159h-124v182h1669v-182zM1322 566c-2 54.667 -8.33203 109.834 -18.999 165.501
s-25 111.834 -43 168.501h-822c-18.667 -56.667 -33.334 -112.834 -44.001 -168.501s-16.667 -110.834 -18 -165.501c0 -106 11.167 -193 33.5 -261s59.5 -102 111.5 -102c52.667 0 95 22.833 127 68.5s48 118.5 48 218.5v205h307v-205c0 -100 15.833 -172.833 47.5 -218.5
s73.5 -68.5 125.5 -68.5c51.333 0 88.5 34 111.5 102s34.5 155 34.5 261z" />
    <glyph glyph-name="uni0400" unicode="&#x400;" horiz-adv-x="1139" 
d="M966 640h-540v-416h642v-224h-934v1456h932v-225h-640v-366h540v-225zM741 1600h-251l-272 260l2 6h325z" />
    <glyph glyph-name="uni0401" unicode="&#x401;" horiz-adv-x="1139" 
d="M966 640h-540v-416h642v-224h-934v1456h932v-225h-640v-366h540v-225zM984 1601h-266v204h266v-204zM484 1601h-266v204h266v-204z" />
    <glyph glyph-name="uni0402" unicode="&#x402;" horiz-adv-x="1560" 
d="M1169 1231h-416v-314h175c177.333 0 319.333 -41.833 426 -125.5s160 -204.167 160 -361.5c1.33301 -89.333 -30 -179.166 -94 -269.499s-156.333 -154.5 -277 -192.5l-123 188c66 29.333 116.167 66.166 150.5 110.499s51.833 98.833 52.5 163.5c0 84 -26 148 -78 192
s-124.333 66 -217 66h-175v-688h-292v1231h-410v225h1118v-225z" />
    <glyph glyph-name="uni0403" unicode="&#x403;" horiz-adv-x="1137" 
d="M1081 1231h-657v-1231h-292v1456h949v-225zM665 1866h325l2 -6l-277 -260h-249z" />
    <glyph glyph-name="uni0404" unicode="&#x404;" horiz-adv-x="1290" 
d="M1243 483l1.99805 -6.00195c2.66699 -155.333 -44.666 -277 -141.999 -365s-231.666 -132 -402.999 -132c-174.667 0 -315.667 56.167 -423 168.5s-161 257.5 -161 435.5v289c0 177.333 52.333 322.5 157 435.5s242 169.5 412 169.5c177.333 0 316 -43.333 416 -130
s148.667 -208.667 146 -366l-2 -6h-284c0 93.333 -22.5 162.833 -67.5 208.5s-114.5 68.5 -208.5 68.5c-87.333 0 -155.5 -35.167 -204.5 -105.5s-73.5 -161.166 -73.5 -272.499v-31h431v-226h-431v-34c0 -112 25.833 -203.333 77.5 -274s123.5 -106 215.5 -106
c87.333 0 152.5 22.833 195.5 68.5s64.5 115.834 64.5 210.501h283z" />
    <glyph glyph-name="uni0405" unicode="&#x405;" horiz-adv-x="1266" 
d="M893 380c0 56 -19.501 100.997 -58.501 134.997s-107.5 66 -205.5 96c-168 50.667 -295.5 110.334 -382.5 179.001s-130.5 162.334 -130.5 281.001c0 119.333 49 216.833 147 292.5s223 113.5 375 113.5c161.333 0 291.166 -40.667 389.499 -122s145.833 -188 142.5 -320
l-2 -6h-283c0 72.667 -22 128.5 -66 167.5s-105.667 58.5 -185 58.5c-72 0 -127.667 -17.333 -167 -52s-59 -79 -59 -133c0 -49.333 21.333 -89.833 64 -121.5s116.334 -65.167 221.001 -100.5c160 -45.333 282 -104.5 366 -177.5s126 -169.167 126 -288.5
c0 -124.667 -48.667 -223 -146 -295s-226 -108 -386 -108c-156.667 0 -291.167 39 -403.5 117s-166.833 194.333 -163.5 349l2 6h283c0 -86 25.333 -149.333 76 -190s119.334 -61 206.001 -61c78 0 137.5 16.333 178.5 49s61.5 76.334 61.5 131.001z" />
    <glyph glyph-name="uni0406" unicode="&#x406;" horiz-adv-x="601" 
d="M446 0h-292v1456h292v-1456z" />
    <glyph glyph-name="uni0407" unicode="&#x407;" horiz-adv-x="601" 
d="M446 0h-292v1456h292v-1456zM684 1601h-266v204h266v-204zM184 1601h-266v204h266v-204z" />
    <glyph glyph-name="uni0408" unicode="&#x408;" horiz-adv-x="1137" 
d="M714 1456h291v-1005c0 -144 -44.167 -258.667 -132.5 -344s-201.833 -128 -340.5 -128c-154 0 -276 38 -366 114s-133.333 186.333 -130 331l2 6h284c0 -77.333 19 -134.5 57 -171.5s89 -55.5 153 -55.5c53.333 0 97 22.167 131 66.5s51 104.833 51 181.5v1005z" />
    <glyph glyph-name="uni0409" unicode="&#x409;" horiz-adv-x="2169" 
d="M1311 1456v-509h250c166.667 0 299.334 -44.167 398.001 -132.5s148 -201.833 148 -340.5c0 -140 -49.333 -254 -148 -342s-231.334 -132 -398.001 -132h-542v1231h-386v-438c0 -280.667 -45.167 -483 -135.5 -607s-227.833 -186 -412.5 -186h-43v224h40
c100 0 168.167 41.167 204.5 123.5s54.5 230.833 54.5 445.5v663h970zM1311 722v-498.001h250c81.333 0 144.166 24.333 188.499 73s66.5 108.334 66.5 179.001c0 68 -22.167 126 -66.5 174s-107.166 72 -188.499 72h-250z" />
    <glyph glyph-name="uni040A" unicode="&#x40a;" horiz-adv-x="2168" 
d="M425 841h593v615h292v-527h250c167.333 0 300.333 -43 399 -129s148 -197.333 148 -334c0 -137.333 -49.5 -249.333 -148.5 -336s-231.833 -130 -398.5 -130h-542v616h-593v-616h-292v1456h292v-615zM1310 704v-476h250c82 0 145 23 189 69s66 103 66 171
c0 66 -22 121.833 -66 167.5s-107 68.5 -189 68.5h-250z" />
    <glyph glyph-name="uni040B" unicode="&#x40b;" horiz-adv-x="1634" 
d="M1185 1231h-416v-253h195c176 0 311 -39.167 405 -117.5s141 -198.833 141 -361.5v-499h-292v499c0 95.333 -19.333 161.5 -58 198.5s-104 55.5 -196 55.5h-195v-753h-292v1231h-410v225h1118v-225z" />
    <glyph glyph-name="uni040C" unicode="&#x40c;" horiz-adv-x="1305" 
d="M533 608h-107v-608h-292v1456h292v-595h82l399 595h361l-504 -677l543 -779h-372zM657 1778h325l2 -6l-277 -260h-249z" />
    <glyph glyph-name="uni040D" unicode="&#x40d;" horiz-adv-x="1431" 
d="M1009 1456h292v-1456h-292v973l-6 1l-588 -974h-291v1456h291v-972l6 -1zM853 1600h-251l-272 260l2 6h325z" />
    <glyph glyph-name="uni040E" unicode="&#x40e;" horiz-adv-x="1310" 
d="M637 809l26 -88.001l6 -1l306 736h309l-531 -1180c-42 -94 -92.667 -167 -152 -219s-142.333 -78 -249 -78c-40 0 -75.667 3.5 -107 10.5s-67.333 17.167 -108 30.5l34 209c30 -8.66699 56.5 -15.167 79.5 -19.5s46.167 -6.5 69.5 -6.5c54.667 0 96.667 11.833 126 35.5
s52.333 58.834 69 105.501l22 55l-513 1057h315zM993 1896l2 -6c3.33301 -84.667 -26.167 -153.834 -88.5 -207.501s-146.166 -80.5 -251.499 -80.5c-106 0 -190.333 26.833 -253 80.5s-92 122.834 -88 207.501l2 6h213c0 -35.333 10.167 -64.333 30.5 -87
s52.166 -34 95.499 -34c42 0 73.167 11.333 93.5 34s30.5 51.667 30.5 87h214z" />
    <glyph glyph-name="uni040F" unicode="&#x40f;" horiz-adv-x="1431" 
d="M120 1456h291v-1232h594v1232h292v-1456h-430v-360h-292v360h-455v1456z" />
    <glyph glyph-name="uni0410" unicode="&#x410;" horiz-adv-x="1303" 
d="M893 314h-472l-98 -314h-305l491 1456h299l489 -1456h-305zM493 543h329l-161 513h-6z" />
    <glyph glyph-name="uni0411" unicode="&#x411;" horiz-adv-x="1283" 
d="M1081 1231h-657v-287h250c167.333 0 300.333 -43.667 399 -131s148 -200.333 148 -339c0 -140 -49.5 -254 -148.5 -342s-231.833 -132 -398.5 -132h-542v1456h949v-225zM424 719v-495.001h250c82 0 145.167 24.333 189.5 73s66.5 108.334 66.5 179.001
c0 68 -22.167 125.5 -66.5 172.5s-107.5 70.5 -189.5 70.5h-250z" />
    <glyph glyph-name="uni0412" unicode="&#x412;" horiz-adv-x="1305" 
d="M134 0l0.000976562 1456h477c171.333 0 305 -33.5 401 -100.5s144 -166.5 144 -298.5c0 -66.667 -17.333 -126.334 -52 -179.001s-85.334 -92.334 -152.001 -119.001c90.667 -16.667 159 -56 205 -118s69 -134.333 69 -217c0 -139.333 -46 -244.833 -138 -316.5
s-222.333 -107.5 -391 -107.5h-563zM426.001 644.002v-420h271c77.333 0 136.333 16.833 177 50.5s61 83.5 61 149.5c0 70.667 -20 125 -60 163s-100.333 57 -181 57h-268zM426.001 846.002h195c78 0 138 16 180 48s63 78.667 63 140c0 67.333 -21.167 117 -63.5 149
s-105.5 48 -189.5 48h-185v-385z" />
    <glyph glyph-name="uni0413" unicode="&#x413;" horiz-adv-x="1137" 
d="M1081 1231h-657v-1231h-292v1456h949v-225z" />
    </font>
</defs>
</svg>
